# Blender 5.0.1
# www.blender.org
mtllib track_switch_medium_45degree_active1.mtl
o right_on_track_normal.002
v 0.360477 0.041289 -1.750000
v 0.360477 0.025803 -1.750000
v 0.360477 0.025803 -2.500000
v 0.360477 0.041289 -2.500000
v 0.318222 0.041289 -2.500000
v 0.342732 0.041289 -2.500000
v 0.300477 0.025803 -2.500000
v 0.300477 0.041289 -2.500000
v 0.342732 0.071584 -2.500000
v 0.318222 0.071584 -2.500000
v 0.308588 0.071584 -2.500000
v 0.308588 0.085803 -2.500000
v 0.352366 0.085803 -2.500000
v 0.352366 0.071584 -2.500000
v 0.318222 0.071584 -1.750000
v 0.318222 0.041289 -1.750000
v 0.308588 0.085803 -1.750000
v 0.308588 0.071584 -1.750000
v -0.308588 0.071584 0.500000
v -0.308588 0.085803 0.500000
v -0.342732 0.071584 0.500000
v -0.318222 0.071584 0.500000
v -0.352366 0.085803 0.500000
v -0.352366 0.071584 0.500000
v -0.360477 0.041289 0.500000
v -0.360477 0.025803 0.500000
v -0.318222 0.041289 0.500000
v -0.342732 0.041289 0.500000
v -0.300477 0.025803 0.500000
v -0.300477 0.041289 0.500000
v -0.360477 0.025803 -2.500000
v -0.360477 0.041289 -2.500000
v -0.300477 0.025803 -2.500000
v -0.318222 0.041289 -2.500000
v -0.300477 0.041289 -2.500000
v -0.342732 0.041289 -2.500000
v -0.352366 0.071584 -2.500000
v -0.352366 0.085803 -2.500000
v -0.318222 0.071584 -2.500000
v -0.342732 0.071584 -2.500000
v -0.308588 0.085803 -2.500000
v -0.308588 0.071584 -2.500000
v -0.287867 -0.025279 0.140000
v -0.287867 0.054721 0.140000
v -0.317867 0.054721 0.140000
v -0.317867 -0.025279 0.140000
v -0.287867 -0.025279 0.110000
v -0.287867 0.054721 0.110000
v -0.317867 -0.025279 0.110000
v -0.317867 0.054721 0.110000
v -0.287867 -0.025279 -0.110000
v -0.287867 0.054721 -0.110000
v -0.317867 0.054721 -0.110000
v -0.317867 -0.025279 -0.110000
v -0.287867 -0.025279 -0.140000
v -0.287867 0.054721 -0.140000
v -0.317867 -0.025279 -0.140000
v -0.317867 0.054721 -0.140000
v -0.287867 -0.025279 -0.360000
v -0.287867 0.054721 -0.360000
v -0.317867 0.054721 -0.360000
v -0.317867 -0.025279 -0.360000
v -0.287867 -0.025279 -0.390000
v -0.287867 0.054721 -0.390000
v -0.317867 -0.025279 -0.390000
v -0.317867 0.054721 -0.390000
v 0.470000 -0.030000 -0.305000
v 0.470000 0.030000 -0.305000
v -0.470000 0.030000 -0.305000
v -0.470000 -0.030000 -0.305000
v 0.470000 -0.030000 -0.445000
v 0.470000 0.030000 -0.445000
v -0.470000 -0.030000 -0.445000
v -0.470000 0.030000 -0.445000
v 0.470000 -0.030000 -0.055000
v 0.470000 0.030000 -0.055000
v -0.470000 0.030000 -0.055000
v -0.470000 -0.030000 -0.055000
v 0.470000 -0.030000 -0.195000
v 0.470000 0.030000 -0.195000
v -0.470000 -0.030000 -0.195000
v -0.470000 0.030000 -0.195000
v 0.470000 -0.030000 0.195000
v 0.470000 0.030000 0.195000
v -0.470000 0.030000 0.195000
v -0.470000 -0.030000 0.195000
v 0.470000 -0.030000 0.055000
v 0.470000 0.030000 0.055000
v -0.470000 -0.030000 0.055000
v -0.470000 0.030000 0.055000
v 0.470000 -0.030000 0.445000
v 0.470000 0.030000 0.445000
v -0.470000 0.030000 0.445000
v -0.470000 -0.030000 0.445000
v 0.470000 -0.030000 0.305000
v 0.470000 0.030000 0.305000
v -0.470000 -0.030000 0.305000
v -0.470000 0.030000 0.305000
v -0.287867 -0.025279 -0.610000
v -0.287867 0.054721 -0.610000
v -0.317867 0.054721 -0.610000
v -0.317867 -0.025279 -0.610000
v -0.287867 -0.025279 -0.640000
v -0.287867 0.054721 -0.640000
v -0.317867 -0.025279 -0.640000
v -0.317867 0.054721 -0.640000
v -0.287867 -0.025279 -0.860000
v -0.287867 0.054721 -0.860000
v -0.317867 0.054721 -0.860000
v -0.317867 -0.025279 -0.860000
v -0.287867 -0.025279 -0.890000
v -0.287867 0.054721 -0.890000
v -0.317867 -0.025279 -0.890000
v -0.317867 0.054721 -0.890000
v -0.287867 -0.025279 -1.110000
v -0.287867 0.054721 -1.110000
v -0.317867 0.054721 -1.110000
v -0.317867 -0.025279 -1.110000
v -0.287867 -0.025279 -1.140000
v -0.287867 0.054721 -1.140000
v -0.317867 -0.025279 -1.140000
v -0.317867 0.054721 -1.140000
v 0.317867 0.054721 -1.110000
v 0.287867 0.054721 -1.110000
v 0.287867 -0.025279 -1.110000
v 0.317867 -0.025279 -1.110000
v 0.287867 0.054721 -1.140000
v 0.287867 -0.025279 -1.140000
v 0.317867 0.054721 -1.140000
v 0.317867 -0.025279 -1.140000
v -0.287867 -0.025279 -1.360000
v -0.287867 0.054721 -1.360000
v -0.317867 0.054721 -1.360000
v -0.317867 -0.025279 -1.360000
v -0.287867 -0.025279 -1.390000
v -0.287867 0.054721 -1.390000
v -0.317867 -0.025279 -1.390000
v -0.317867 0.054721 -1.390000
v 0.470000 -0.030000 -1.305000
v 0.470000 0.030000 -1.305000
v -0.470000 0.030000 -1.305000
v -0.470000 -0.030000 -1.305000
v 0.470000 -0.030000 -1.445000
v 0.470000 0.030000 -1.445000
v -0.470000 -0.030000 -1.445000
v -0.470000 0.030000 -1.445000
v 0.470000 -0.030000 -1.055000
v 0.470000 0.030000 -1.055000
v -0.470000 0.030000 -1.055000
v -0.470000 -0.030000 -1.055000
v 0.470000 -0.030000 -1.195000
v 0.470000 0.030000 -1.195000
v -0.470000 -0.030000 -1.195000
v -0.470000 0.030000 -1.195000
v 0.470000 -0.030000 -0.805000
v 0.470000 0.030000 -0.805000
v -0.470000 0.030000 -0.805000
v -0.470000 -0.030000 -0.805000
v 0.470000 -0.030000 -0.945000
v 0.470000 0.030000 -0.945000
v -0.470000 -0.030000 -0.945000
v -0.470000 0.030000 -0.945000
v 0.470000 -0.030000 -0.555000
v 0.470000 0.030000 -0.555000
v -0.470000 0.030000 -0.555000
v -0.470000 -0.030000 -0.555000
v 0.470000 -0.030000 -0.695000
v 0.470000 0.030000 -0.695000
v -0.470000 -0.030000 -0.695000
v -0.470000 0.030000 -0.695000
v -0.287867 -0.025279 -1.610000
v -0.287867 0.054721 -1.610000
v -0.317867 0.054721 -1.610000
v -0.317867 -0.025279 -1.610000
v -0.287867 -0.025279 -1.640000
v -0.287867 0.054721 -1.640000
v -0.317867 -0.025279 -1.640000
v -0.317867 0.054721 -1.640000
v 0.317867 0.054721 -1.610000
v 0.287867 0.054721 -1.610000
v 0.287867 -0.025279 -1.610000
v 0.317867 -0.025279 -1.610000
v 0.287867 0.054721 -1.640000
v 0.287867 -0.025279 -1.640000
v 0.317867 0.054721 -1.640000
v 0.317867 -0.025279 -1.640000
v -0.287867 -0.025279 -1.860000
v -0.287867 0.054721 -1.860000
v -0.317867 0.054721 -1.860000
v -0.317867 -0.025279 -1.860000
v -0.287867 -0.025279 -1.890000
v -0.287867 0.054721 -1.890000
v -0.317867 -0.025279 -1.890000
v -0.317867 0.054721 -1.890000
v 0.317867 0.054721 -1.860000
v 0.287867 0.054721 -1.860000
v 0.287867 -0.025279 -1.860000
v 0.317867 -0.025279 -1.860000
v 0.287867 0.054721 -1.890000
v 0.287867 -0.025279 -1.890000
v 0.317867 0.054721 -1.890000
v 0.317867 -0.025279 -1.890000
v -0.287867 -0.025279 -2.110000
v -0.287867 0.054721 -2.110000
v -0.317867 0.054721 -2.110000
v -0.317867 -0.025279 -2.110000
v -0.287867 -0.025279 -2.140000
v -0.287867 0.054721 -2.140000
v -0.317867 -0.025279 -2.140000
v -0.317867 0.054721 -2.140000
v 0.317867 0.054721 -2.110000
v 0.287867 0.054721 -2.110000
v 0.287867 -0.025279 -2.110000
v 0.317867 -0.025279 -2.110000
v 0.287867 0.054721 -2.140000
v 0.287867 -0.025279 -2.140000
v 0.317867 0.054721 -2.140000
v 0.317867 -0.025279 -2.140000
v -0.287867 -0.025279 -2.360000
v -0.287867 0.054721 -2.360000
v -0.317867 0.054721 -2.360000
v -0.317867 -0.025279 -2.360000
v -0.287867 -0.025279 -2.390000
v -0.287867 0.054721 -2.390000
v -0.317867 -0.025279 -2.390000
v -0.317867 0.054721 -2.390000
v 0.317867 0.054721 -2.360000
v 0.287867 0.054721 -2.360000
v 0.287867 -0.025279 -2.360000
v 0.317867 -0.025279 -2.360000
v 0.287867 0.054721 -2.390000
v 0.287867 -0.025279 -2.390000
v 0.317867 0.054721 -2.390000
v 0.317867 -0.025279 -2.390000
v 0.470000 -0.030000 -2.305000
v 0.470000 0.030000 -2.305000
v -0.470000 0.030000 -2.305000
v -0.470000 -0.030000 -2.305000
v 0.470000 -0.030000 -2.445000
v 0.470000 0.030000 -2.445000
v -0.470000 -0.030000 -2.445000
v -0.470000 0.030000 -2.445000
v 0.470000 -0.030000 -2.055000
v 0.470000 0.030000 -2.055000
v -0.470000 0.030000 -2.055000
v -0.470000 -0.030000 -2.055000
v 0.470000 -0.030000 -2.195000
v 0.470000 0.030000 -2.195000
v -0.470000 -0.030000 -2.195000
v -0.470000 0.030000 -2.195000
v 0.470000 -0.030000 -1.805000
v 0.470000 0.030000 -1.805000
v -0.470000 0.030000 -1.805000
v -0.470000 -0.030000 -1.805000
v 0.470000 -0.030000 -1.945000
v 0.470000 0.030000 -1.945000
v -0.470000 -0.030000 -1.945000
v -0.470000 0.030000 -1.945000
v 0.470000 -0.030000 -1.555000
v 0.470000 0.030000 -1.555000
v -0.470000 0.030000 -1.555000
v -0.470000 -0.030000 -1.555000
v 0.470000 -0.030000 -1.695000
v 0.470000 0.030000 -1.695000
v -0.470000 -0.030000 -1.695000
v -0.470000 0.030000 -1.695000
v 0.302141 0.040830 0.279838
v 0.302127 0.025344 0.280561
v 0.299367 0.025344 0.500611
v 0.299367 0.040830 0.500611
v 0.353973 0.085343 0.282127
v 0.310243 0.085343 0.280196
v 0.307478 0.085343 0.500598
v 0.351256 0.085343 0.500531
v 0.362078 0.025344 0.282374
v 0.359367 0.025344 0.500518
v 0.319858 0.071124 0.281092
v 0.317111 0.071124 0.500583
v 0.307478 0.071124 0.500598
v 0.310232 0.071124 0.280804
v 0.317111 0.040830 0.500583
v 0.319858 0.040830 0.281092
v 0.344347 0.071124 0.281833
v 0.341622 0.071124 0.500545
v 0.341622 0.040830 0.500545
v 0.344347 0.040830 0.281833
v 0.351256 0.071124 0.500531
v 0.353973 0.071124 0.282127
v 0.359367 0.040830 0.500518
v 0.362078 0.040830 0.282374
v -0.286855 -0.025739 0.402302
v -0.286855 0.054262 0.402302
v -0.316855 0.054262 0.402348
v -0.316855 -0.025739 0.402348
v -0.286211 -0.025739 0.370640
v -0.286211 0.054262 0.370640
v -0.316211 -0.025739 0.370513
v -0.316211 0.054262 0.370513
v 0.318878 0.054262 0.401365
v 0.288878 0.054262 0.401412
v 0.288878 -0.025739 0.401412
v 0.318878 -0.025739 0.401365
v 0.289518 0.054262 0.373078
v 0.289518 -0.025739 0.373078
v 0.319517 0.054262 0.373205
v 0.319517 -0.025739 0.373205
v 0.318351 0.040830 0.076127
v 0.318271 0.025344 0.076848
v 0.369797 0.085343 0.082848
v 0.326393 0.085343 0.077177
v 0.377852 0.025344 0.083788
v 0.335893 0.071124 0.078896
v 0.326326 0.071124 0.077784
v 0.335893 0.040830 0.078896
v 0.360231 0.071124 0.081731
v 0.360231 0.040830 0.081731
v 0.369797 0.071124 0.082848
v 0.377852 0.040830 0.083788
v 0.351834 0.040830 -0.126595
v 0.351689 0.025344 -0.125880
v 0.402551 0.085343 -0.115658
v 0.359762 0.085343 -0.124886
v 0.410502 0.025344 -0.114058
v 0.369084 0.071124 -0.122388
v 0.359640 0.071124 -0.124283
v 0.369084 0.040830 -0.122388
v 0.393108 0.071124 -0.117558
v 0.393108 0.040830 -0.117558
v 0.402551 0.071124 -0.115658
v 0.410502 0.040830 -0.114058
v 0.348318 0.054262 -0.004538
v 0.318722 0.054262 -0.009445
v 0.318722 -0.025739 -0.009445
v 0.348318 -0.025739 -0.004538
v 0.322898 0.054262 -0.036040
v 0.322898 -0.025739 -0.036040
v 0.352439 0.054262 -0.030811
v 0.352439 -0.025739 -0.030811
v 0.491218 -0.030460 0.065505
v 0.491218 0.029540 0.065505
v -0.438998 0.029540 -0.069756
v -0.438998 -0.030460 -0.069756
v 0.511087 -0.030460 -0.049346
v 0.511087 0.029540 -0.049346
v -0.411150 -0.030460 -0.231216
v -0.411150 0.029540 -0.231216
v 0.401787 0.040830 -0.327441
v 0.401579 0.025344 -0.326735
v 0.451499 0.085343 -0.312591
v 0.409558 0.085343 -0.325120
v 0.459303 0.025344 -0.310378
v 0.418652 0.071124 -0.321901
v 0.409383 0.071124 -0.324525
v 0.418652 0.040830 -0.321901
v 0.442231 0.071124 -0.315219
v 0.442231 0.040830 -0.315219
v 0.451499 0.071124 -0.312591
v 0.459303 0.040830 -0.310378
v -0.236260 0.025344 -0.505275
v -0.316557 0.026531 -0.149719
v -0.316557 0.042017 -0.149719
v -0.236260 0.040830 -0.505275
v -0.195638 0.040830 -0.493321
v -0.195631 0.071124 -0.493322
v -0.275223 0.072311 -0.140965
v -0.275223 0.042017 -0.140965
v -0.186573 0.071124 -0.490756
v -0.186546 0.085343 -0.490596
v -0.265798 0.086530 -0.138969
v -0.265764 0.072311 -0.139134
v 0.388261 0.054262 -0.205155
v 0.359158 0.054262 -0.212433
v 0.359158 -0.025739 -0.212433
v 0.388261 -0.025739 -0.205155
v 0.365704 0.054262 -0.238748
v 0.365705 -0.025739 -0.238748
v 0.394732 0.054262 -0.231172
v 0.394732 -0.025739 -0.231172
v 0.524571 -0.030460 -0.123343
v 0.524571 0.029540 -0.123343
v -0.391463 0.029540 -0.334245
v -0.391463 -0.030460 -0.334246
v 0.554026 -0.030460 -0.237576
v 0.554026 0.029540 -0.237576
v -0.350962 -0.030460 -0.491729
v -0.350962 0.029540 -0.491729
v -0.299286 0.042017 -0.145619
v -0.219765 0.040830 -0.499843
v -0.299286 0.072311 -0.145619
v -0.308744 0.072311 -0.147447
v -0.228569 0.071124 -0.502405
v -0.219516 0.071124 -0.499843
v -0.308744 0.086530 -0.147447
v -0.228642 0.085343 -0.502405
v -0.257803 0.042017 -0.137592
v -0.178820 0.040830 -0.488597
v -0.257803 0.026531 -0.137592
v -0.178584 0.025344 -0.488597
v 0.467099 0.040830 -0.525648
v 0.466832 0.025344 -0.524955
v 0.515606 0.085343 -0.507238
v 0.474682 0.085343 -0.522771
v 0.523231 0.025344 -0.504467
v 0.483513 0.071124 -0.518899
v 0.474456 0.071124 -0.522187
v 0.483513 0.040830 -0.518899
v 0.506551 0.071124 -0.510529
v 0.506551 0.040830 -0.510529
v 0.515606 0.071124 -0.507238
v 0.523231 0.040830 -0.504467
v -0.157084 0.025344 -0.749233
v -0.157368 0.040830 -0.749233
v -0.117882 0.040830 -0.734365
v -0.117966 0.071124 -0.734365
v -0.109145 0.071124 -0.731130
v -0.109429 0.085343 -0.730975
v 0.444135 0.054262 -0.403703
v 0.415666 0.054262 -0.413164
v 0.415666 -0.025739 -0.413163
v 0.444135 -0.025739 -0.403702
v 0.424477 0.054262 -0.439061
v 0.424477 -0.025739 -0.439061
v 0.452855 0.054262 -0.429331
v 0.452855 -0.025739 -0.429331
v 0.573740 -0.030460 -0.311197
v 0.573740 0.029540 -0.311197
v -0.323343 0.029540 -0.591984
v -0.323343 -0.030460 -0.591984
v 0.611806 -0.030460 -0.424511
v 0.611806 0.029540 -0.424511
v -0.271959 -0.030460 -0.744757
v -0.271959 0.029540 -0.744757
v -0.141449 0.040830 -0.742592
v -0.150042 0.071124 -0.745824
v -0.141329 0.071124 -0.742592
v -0.149806 0.085343 -0.745824
v -0.101599 0.040830 -0.728407
v -0.101892 0.025344 -0.728407
v 0.546455 0.040830 -0.720629
v 0.546132 0.025344 -0.719951
v 0.593626 0.085343 -0.699024
v 0.553828 0.085343 -0.717252
v 0.601050 0.025344 -0.695751
v 0.562375 0.071124 -0.712797
v 0.553556 0.071124 -0.716681
v 0.562375 0.040830 -0.712797
v 0.584808 0.071124 -0.702911
v 0.584808 0.040830 -0.702911
v 0.593626 0.071124 -0.699024
v 0.601050 0.040830 -0.695751
v -0.059358 0.025344 -0.985343
v -0.059358 0.040830 -0.985343
v -0.020894 0.040830 -0.967859
v -0.020894 0.071124 -0.967859
v -0.012053 0.071124 -0.964021
v -0.012124 0.085343 -0.963872
v 0.514760 0.054262 -0.599504
v 0.487025 0.054262 -0.610938
v 0.487025 -0.025739 -0.610938
v 0.514760 -0.025739 -0.599504
v 0.497961 0.054262 -0.636296
v 0.497961 -0.025739 -0.636296
v 0.525598 0.054262 -0.624624
v 0.525598 -0.025739 -0.624624
v 0.637936 -0.030460 -0.497373
v 0.637936 0.029540 -0.497373
v -0.236843 0.029540 -0.841408
v -0.236843 -0.030460 -0.841408
v 0.684607 -0.030460 -0.609308
v 0.684607 0.029540 -0.609308
v -0.175456 -0.030460 -0.988635
v -0.175456 0.029540 -0.988635
v -0.043386 0.040830 -0.977619
v -0.052227 0.071124 -0.981455
v -0.043386 0.071124 -0.977619
v -0.052227 0.085343 -0.981455
v -0.004612 0.040830 -0.960790
v -0.004612 0.025344 -0.960790
v 0.639274 0.040830 -0.911661
v 0.638926 0.025344 -0.910991
v 0.685047 0.085343 -0.887235
v 0.646429 0.085343 -0.907843
v 0.692257 0.025344 -0.883520
v 0.654700 0.071124 -0.902870
v 0.646136 0.071124 -0.907279
v 0.654700 0.040830 -0.902870
v 0.676485 0.071124 -0.891648
v 0.676485 0.040830 -0.891648
v 0.685047 0.071124 -0.887235
v 0.692257 0.040830 -0.883520
v 0.050889 0.025344 -1.212561
v 0.050889 0.040830 -1.212562
v 0.088219 0.040830 -1.192771
v 0.088219 0.071124 -1.192771
v 0.096806 0.071124 -1.188403
v 0.096730 0.085343 -1.188258
v 0.055539 -0.025739 -1.058075
v 0.055539 0.054262 -1.058075
v 0.028594 0.054262 -1.071264
v 0.028594 -0.025739 -1.071264
v 0.069696 -0.025739 -1.087228
v 0.069696 0.054262 -1.087228
v 0.042858 -0.025739 -1.100633
v 0.042858 0.054262 -1.100633
v 0.599597 0.054262 -0.791777
v 0.572651 0.054262 -0.804965
v 0.572651 -0.025739 -0.804965
v 0.599597 -0.025739 -0.791777
v 0.584756 0.054262 -0.829968
v 0.584757 -0.025739 -0.829968
v 0.611595 0.054262 -0.816563
v 0.611595 -0.025739 -0.816563
v 0.715595 -0.030460 -0.681376
v 0.715595 0.029540 -0.681376
v -0.134766 0.029540 -1.081982
v -0.134766 -0.030460 -1.081982
v 0.770143 -0.030460 -0.791626
v 0.770143 0.029540 -0.791626
v -0.064788 -0.030460 -1.223469
v -0.064788 0.029540 -1.223469
v 0.066372 0.040830 -1.203878
v 0.057784 0.071124 -1.208243
v 0.066372 0.071124 -1.203878
v 0.057784 0.085343 -1.208243
v 0.104034 0.040830 -1.184727
v 0.104034 0.025344 -1.184727
v 0.743948 0.040830 -1.098449
v 0.743551 0.025344 -1.097798
v 0.788309 0.085343 -1.071543
v 0.750882 0.085343 -1.094243
v 0.795306 0.025344 -1.067437
v 0.758859 0.071124 -1.088821
v 0.750548 0.071124 -1.093694
v 0.758859 0.040830 -1.088821
v 0.780000 0.071124 -1.076419
v 0.780000 0.040830 -1.076419
v 0.788309 0.071124 -1.071543
v 0.795306 0.040830 -1.067437
v 0.172936 0.025344 -1.431404
v 0.172936 0.040830 -1.431404
v 0.209114 0.040830 -1.409579
v 0.209115 0.071124 -1.409579
v 0.217448 0.071124 -1.404742
v 0.217364 0.085343 -1.404603
v 0.169425 -0.025739 -1.277639
v 0.169425 0.054262 -1.277639
v 0.143293 0.054262 -1.292375
v 0.143293 -0.025739 -1.292375
v 0.185259 -0.025739 -1.305663
v 0.185259 0.054262 -1.305663
v 0.159235 -0.025739 -1.320588
v 0.159235 0.054262 -1.320588
v 0.697052 0.054262 -0.980110
v 0.670920 0.054262 -0.994846
v 0.670920 -0.025739 -0.994846
v 0.697052 -0.025739 -0.980110
v 0.684691 0.054262 -1.019242
v 0.684691 -0.025739 -1.019242
v 0.710715 0.054262 -1.004318
v 0.710715 -0.025739 -1.004318
v 0.805464 -0.030460 -0.862792
v 0.805464 0.029540 -0.862792
v -0.019390 0.029540 -1.313586
v -0.019390 -0.030460 -1.313586
v 0.867118 -0.030460 -0.971135
v 0.867118 0.029540 -0.971135
v 0.057889 -0.030460 -1.449410
v 0.057889 0.029540 -1.449410
v 0.187913 0.040830 -1.421883
v 0.179579 0.071124 -1.426718
v 0.187912 0.071124 -1.421883
v 0.179579 0.085343 -1.426718
v 0.224463 0.040830 -1.400670
v 0.224463 0.025344 -1.400670
v 0.858475 0.040830 -1.281164
v 0.858034 0.025344 -1.280534
v 0.901434 0.085343 -1.252072
v 0.865190 0.085343 -1.276617
v 0.908219 0.025344 -1.247621
v 0.872878 0.071124 -1.270802
v 0.864819 0.071124 -1.276086
v 0.872878 0.040830 -1.270802
v 0.893377 0.071124 -1.257358
v 0.893377 0.040830 -1.257358
v 0.901434 0.071124 -1.252072
v 0.908219 0.040830 -1.247621
v 0.360477 0.025803 -1.608078
v 0.360477 0.041289 -1.608078
v 0.342732 0.041289 -1.608078
v 0.318222 0.041289 -1.608078
v 0.300477 0.041289 -1.608078
v 0.300477 0.025803 -1.608078
v 0.318222 0.071584 -1.608078
v 0.352366 0.085803 -1.608078
v 0.308588 0.085803 -1.608078
v 0.308588 0.071584 -1.608078
v 0.342732 0.071584 -1.608078
v 0.352366 0.071584 -1.608078
v 0.805162 0.054262 -1.164520
v 0.779849 0.054262 -1.180620
v 0.779849 -0.025739 -1.180620
v 0.805162 -0.025739 -1.164520
v 0.795330 0.054262 -1.204262
v 0.795330 -0.025739 -1.204262
v 0.820540 0.054262 -1.188000
v 0.820540 -0.025739 -1.188000
v 0.907463 -0.030460 -1.040892
v 0.907463 0.029540 -1.040892
v 0.108167 0.029540 -1.535588
v 0.108167 -0.030460 -1.535588
v 0.975573 -0.030460 -1.147105
v 0.975573 0.029540 -1.147105
v 0.191689 -0.030460 -1.665875
v 0.191689 0.029540 -1.665875
v 0.983253 0.040830 -1.458951
v 0.982792 0.025344 -1.458332
v 1.024864 0.085343 -1.427962
v 0.989757 0.085343 -1.454107
v 1.031441 0.025344 -1.423214
v 0.997182 0.071124 -1.447948
v 0.989369 0.071124 -1.453585
v 0.997182 0.040830 -1.447948
v 1.017054 0.071124 -1.433602
v 1.017054 0.040830 -1.433602
v 1.024864 0.071124 -1.427962
v 1.031441 0.040830 -1.423214
v 0.446489 0.025344 -1.844630
v 0.304940 0.025344 -1.642305
v 0.304940 0.040830 -1.642305
v 0.446489 0.040830 -1.844630
v 0.480424 0.040830 -1.819461
v 0.480425 0.071124 -1.819461
v 0.339975 0.071124 -1.618690
v 0.339975 0.040830 -1.618690
v 0.488258 0.071124 -1.813851
v 0.488162 0.085343 -1.813722
v 0.347964 0.085343 -1.613305
v 0.348053 0.071124 -1.613441
v 0.428888 -0.025739 -1.693403
v 0.428888 0.054262 -1.693403
v 0.404370 0.054262 -1.710692
v 0.404371 -0.025739 -1.710692
v 0.447127 -0.025739 -1.719492
v 0.447127 0.054262 -1.719492
v 0.422714 -0.025739 -1.736927
v 0.422714 0.054262 -1.736927
v 0.923919 0.054262 -1.344322
v 0.899402 0.054262 -1.361610
v 0.899402 -0.025739 -1.361610
v 0.923919 -0.025739 -1.344322
v 0.915643 0.054262 -1.384884
v 0.915643 -0.025739 -1.384884
v 0.940057 0.054262 -1.367449
v 0.940057 -0.025739 -1.367449
v 1.019596 -0.030460 -1.215636
v 1.019596 0.029540 -1.215636
v 0.245482 0.029540 -1.748878
v 0.245482 -0.030460 -1.748878
v 1.093371 -0.030460 -1.319666
v 1.093371 0.029540 -1.319666
v 0.334234 -0.030460 -1.874021
v 0.334234 0.029540 -1.874020
v 0.319426 0.040830 -1.632041
v 0.460495 0.040830 -1.833731
v 0.319426 0.071124 -1.632041
v 0.311348 0.071124 -1.637289
v 0.452661 0.071124 -1.839339
v 0.460495 0.071124 -1.833731
v 0.311348 0.085343 -1.637289
v 0.452661 0.085343 -1.839339
v 0.354852 0.040830 -1.609022
v 0.494852 0.040830 -1.809129
v 0.354852 0.025344 -1.609022
v 0.494852 0.025344 -1.809129
v 1.115501 0.040830 -1.632738
v 1.115004 0.025344 -1.632141
v 1.155808 0.085343 -1.600070
v 1.121802 0.085343 -1.627632
v 1.162187 0.025344 -1.595057
v 1.128960 0.071124 -1.621175
v 1.121383 0.071124 -1.627128
v 1.128960 0.040830 -1.621175
v 1.148233 0.071124 -1.606026
v 1.148233 0.040830 -1.606026
v 1.155809 0.071124 -1.600071
v 1.162187 0.040830 -1.595057
v 0.595028 0.025344 -2.040134
v 0.595028 0.040830 -2.040134
v 0.627899 0.040830 -2.013590
v 0.627899 0.071124 -2.013590
v 0.635494 0.071124 -2.007663
v 0.635394 0.085343 -2.007537
v 0.571718 -0.025739 -1.890139
v 0.571718 0.054262 -1.890139
v 0.547972 0.054262 -1.908473
v 0.547972 -0.025739 -1.908473
v 0.591264 -0.025739 -1.914986
v 0.591264 0.054262 -1.914986
v 0.567615 -0.025739 -1.933445
v 0.567615 0.054262 -1.933445
v 1.051166 0.054262 -1.519946
v 1.027421 0.054262 -1.538280
v 1.027421 -0.025739 -1.538280
v 1.051166 -0.025739 -1.519946
v 1.045114 0.054262 -1.560741
v 1.045114 -0.025739 -1.560741
v 1.068763 0.054262 -1.542282
v 1.068763 -0.025739 -1.542282
v 1.140925 -0.030460 -1.386833
v 1.140925 0.029540 -1.386833
v 0.391212 0.029540 -1.953867
v 0.391212 -0.030460 -1.953867
v 1.220027 -0.030460 -1.488490
v 1.220027 0.029540 -1.488490
v 0.484625 -0.030460 -2.073965
v 0.484625 0.029540 -2.073965
v 0.608578 0.040830 -2.028666
v 0.600984 0.071124 -2.034590
v 0.608578 0.071124 -2.028666
v 0.600984 0.085343 -2.034590
v 0.641886 0.040830 -2.002674
v 0.641886 0.025344 -2.002674
v 1.255899 0.040830 -1.801637
v 1.255386 0.025344 -1.801049
v 1.294979 0.085343 -1.767510
v 1.262008 0.085343 -1.796302
v 1.301169 0.025344 -1.762267
v 1.268927 0.071124 -1.789581
v 1.261575 0.071124 -1.795807
v 1.268927 0.040830 -1.789581
v 1.287629 0.071124 -1.773738
v 1.287629 0.040830 -1.773739
v 1.294979 0.071124 -1.767510
v 1.301169 0.040830 -1.762267
v 0.750767 0.025344 -2.227944
v 0.750767 0.040830 -2.227944
v 0.782636 0.040830 -2.200204
v 0.782637 0.071124 -2.200204
v 0.790008 0.071124 -2.193998
v 0.789903 0.085343 -2.193879
v 0.722051 -0.025739 -2.079639
v 0.722051 0.054262 -2.079639
v 0.699039 0.054262 -2.098886
v 0.699039 -0.025739 -2.098886
v 0.742206 -0.025739 -2.103868
v 0.742206 0.054262 -2.103868
v 0.719290 -0.025739 -2.123228
v 0.719290 0.054262 -2.123228
v 1.186680 0.054262 -1.691008
v 1.163669 0.054262 -1.710256
v 1.163669 -0.025739 -1.710256
v 1.186680 -0.025739 -1.691008
v 1.182008 0.054262 -1.732325
v 1.182008 -0.025739 -1.732325
v 1.204925 0.054262 -1.712965
v 1.204925 -0.025739 -1.712965
v 1.270784 -0.030460 -1.554214
v 1.270784 0.029540 -1.554214
v 0.544365 0.029540 -2.150799
v 0.544365 -0.030460 -2.150799
v 1.354250 -0.030460 -1.653690
v 1.354250 0.029540 -1.653690
v 0.641502 -0.030460 -2.266544
v 0.641502 0.029540 -2.266544
v 0.763883 0.040830 -2.215989
v 0.756511 0.071124 -2.222193
v 0.763883 0.071124 -2.215989
v 0.756511 0.085343 -2.222193
v 0.796213 0.040830 -2.188775
v 0.796213 0.025344 -2.188775
v 1.402263 0.040830 -1.966641
v 1.401734 0.025344 -1.966064
v 1.440173 0.085343 -1.931219
v 1.408189 0.085343 -1.961104
v 1.446182 0.025344 -1.925772
v 1.414881 0.071124 -1.954149
v 1.407743 0.071124 -1.960618
v 1.414881 0.040830 -1.954149
v 1.433037 0.071124 -1.937690
v 1.433037 0.040830 -1.937690
v 1.440173 0.071124 -1.931219
v 1.446182 0.040830 -1.925772
v 0.911854 0.025344 -2.409659
v 0.911854 0.040830 -2.409659
v 0.942769 0.040830 -2.380860
v 0.942769 0.071124 -2.380860
v 0.949926 0.071124 -2.374410
v 0.949818 0.085343 -2.374293
v 0.878245 -0.025739 -2.263063
v 0.878245 0.054262 -2.263063
v 0.855935 0.054262 -2.283119
v 0.855935 -0.025739 -2.283119
v 0.899444 -0.025739 -2.286133
v 0.899444 0.054262 -2.286133
v 0.877219 -0.025739 -2.306284
v 0.877219 0.054262 -2.306284
v 1.328723 0.054262 -1.858114
v 1.306412 0.054262 -1.878170
v 1.306412 -0.025739 -1.878170
v 1.328723 -0.025739 -1.858114
v 1.325961 0.054262 -1.899413
v 1.325961 -0.025739 -1.899413
v 1.348186 0.054262 -1.879262
v 1.348186 -0.025739 -1.879262
v 1.407994 -0.030460 -1.717907
v 1.407994 0.029540 -1.717907
v 0.703717 0.029540 -2.340477
v 0.703717 -0.030460 -2.340477
v 1.495758 -0.030460 -1.814976
v 1.495758 0.029540 -1.814976
v 0.804353 -0.030460 -2.451810
v 0.804353 0.029540 -2.451810
v 0.924562 0.040830 -2.397267
v 0.917406 0.071124 -2.403716
v 0.924562 0.071124 -2.397267
v 0.917406 0.085343 -2.403716
v 0.955950 0.040830 -2.368981
v 0.955950 0.025344 -2.368981
v 1.554666 0.040830 -2.127342
v 1.554107 0.025344 -2.126788
v 1.591475 0.085343 -2.090779
v 1.560419 0.085343 -2.121627
v 1.597318 0.025344 -2.085150
v 1.566888 0.071124 -2.114475
v 1.559948 0.071124 -2.121159
v 1.566888 0.040830 -2.114475
v 1.584538 0.071124 -2.097466
v 1.584538 0.040830 -2.097466
v 1.591476 0.071124 -2.090779
v 1.597318 0.040830 -2.085150
v 1.077953 0.025347 -2.585294
v 1.077953 0.040833 -2.585294
v 1.107969 0.040831 -2.555558
v 1.107969 0.071125 -2.555558
v 1.114925 0.071125 -2.548888
v 1.114813 0.085345 -2.548778
v 1.040441 -0.025739 -2.439784
v 1.040441 0.054262 -2.439784
v 1.018786 0.054262 -2.460545
v 1.018786 -0.025739 -2.460545
v 1.062124 -0.025739 -2.462287
v 1.062124 0.054262 -2.462287
v 1.040551 -0.025739 -2.483135
v 1.040551 0.054262 -2.483135
v 1.477691 0.054262 -2.020587
v 1.456036 0.054262 -2.041348
v 1.456036 -0.025739 -2.041348
v 1.477691 -0.025739 -2.020587
v 1.476125 0.054262 -2.062197
v 1.476125 -0.025739 -2.062197
v 1.497698 0.054262 -2.041349
v 1.497698 -0.025739 -2.041349
v 1.551589 -0.030460 -1.878053
v 1.551589 0.029540 -1.878053
v 0.868310 0.029540 -2.523597
v 0.868310 -0.030460 -2.523597
v 1.642987 -0.030460 -1.972903
v 1.642987 0.029540 -1.972903
v 0.971844 -0.030457 -2.631057
v 0.971844 0.029543 -2.631057
v 1.090272 0.040831 -2.572523
v 1.083317 0.071125 -2.579190
v 1.090272 0.071125 -2.572523
v 1.083317 0.085345 -2.579190
v 1.120780 0.040830 -2.543275
v 1.120780 0.025344 -2.543275
v 1.718059 0.041289 -2.293112
v 1.717481 0.025803 -2.292539
v 1.754213 0.085802 -2.255900
v 1.723710 0.085802 -2.287296
v 1.759956 0.025803 -2.250173
v 1.730043 0.071583 -2.280009
v 1.723222 0.071583 -2.286812
v 1.730043 0.041289 -2.280009
v 1.747394 0.071583 -2.262704
v 1.747394 0.041289 -2.262704
v 1.754213 0.071583 -2.255901
v 1.759956 0.041289 -2.250173
v 1.251101 0.025346 -2.759856
v 1.251101 0.040832 -2.759856
v 1.280542 0.040832 -2.729553
v 1.280542 0.071126 -2.729553
v 1.287363 0.071126 -2.722749
v 1.287255 0.085345 -2.722643
v 1.207129 -0.025736 -2.611241
v 1.207129 0.054265 -2.611241
v 1.186095 0.054265 -2.632632
v 1.186095 -0.025736 -2.632632
v 1.229263 -0.025736 -2.633201
v 1.229263 0.054265 -2.633201
v 1.208310 -0.025736 -2.654672
v 1.208310 0.054265 -2.654672
v 1.631810 0.054262 -2.179316
v 1.610777 0.054262 -2.200707
v 1.610777 -0.025739 -2.200707
v 1.631810 -0.025739 -2.179316
v 1.631371 0.054262 -2.221159
v 1.631371 -0.025739 -2.221159
v 1.652324 0.054262 -2.199689
v 1.652324 -0.025739 -2.199689
v 1.701598 -0.030460 -2.034227
v 1.701598 0.029540 -2.034227
v 1.037976 0.029543 -2.699963
v 1.037976 -0.030457 -2.699963
v 1.796903 -0.030460 -2.128867
v 1.796903 0.029540 -2.128867
v 1.141886 -0.030457 -2.803071
v 1.141886 0.029543 -2.803071
v 1.263191 0.040832 -2.746860
v 1.256371 0.071126 -2.753662
v 1.263191 0.071126 -2.746860
v 1.256371 0.085345 -2.753662
v 1.293104 0.040832 -2.717023
v 1.293104 0.025346 -2.717023
v 0.342732 0.041289 -1.750000
v 0.342732 0.041289 -1.187500
v 0.342732 0.041289 -1.000000
v 0.360477 0.041289 -1.000000
v 0.360477 0.041289 -1.187500
v 0.253082 0.040958 -0.086769
v 0.270827 0.040958 -0.086769
v 0.352366 0.071584 -1.750000
v 0.342732 0.071584 -1.750000
v 0.352366 0.071584 -1.187500
v 0.352366 0.071584 -1.000000
v 0.342732 0.071584 -1.000000
v 0.342732 0.071584 -1.187500
v 0.262716 0.071253 -0.086769
v 0.253082 0.071253 -0.086769
v 0.352366 0.085803 -1.750000
v 0.352366 0.085803 -1.187500
v 0.352366 0.085803 -1.000000
v 0.262716 0.085472 -0.086769
v 0.300477 0.041289 -1.750000
v 0.300477 0.041289 -1.187500
v 0.300477 0.041289 -1.000000
v 0.318222 0.041289 -1.000000
v 0.318222 0.041289 -1.187500
v 0.210565 0.040878 -0.086684
v 0.228572 0.040958 -0.086769
v 0.318222 0.071584 -1.187500
v 0.318222 0.071584 -1.000000
v 0.308588 0.071584 -1.000000
v 0.308588 0.071584 -1.187500
v 0.228572 0.071253 -0.086769
v 0.218938 0.071253 -0.086769
v 0.218938 0.085472 -0.086769
v 0.308588 0.085803 -1.000000
v 0.300477 0.025803 -1.750000
v 0.360477 0.025803 -1.187500
v 0.360477 0.025803 -1.000000
v 0.300477 0.025803 -1.000000
v 0.300477 0.025803 -1.187500
v 0.270827 0.025472 -0.086769
v 0.210827 0.025472 -0.086769
v 0.308588 0.085803 -1.187500
v 0.360477 0.025803 -1.395000
v 0.360477 0.041289 -1.395000
v 0.300477 0.041289 -1.395000
v 0.300477 0.025803 -1.395000
v 0.352366 0.085803 -1.395000
v 0.308588 0.085803 -1.395000
v 0.318222 0.071584 -1.395000
v 0.318222 0.041289 -1.395000
v 0.308588 0.071584 -1.395000
v 0.342732 0.071584 -1.395000
v 0.342732 0.041289 -1.395000
v 0.352366 0.071584 -1.395000
v 0.317867 0.054721 -1.350000
v 0.287867 0.054721 -1.350000
v 0.287867 -0.025279 -1.350000
v 0.317867 -0.025279 -1.350000
v 0.287867 0.054721 -1.380000
v 0.287867 -0.025279 -1.380000
v 0.317867 0.054721 -1.380000
v 0.317867 -0.025279 -1.380000
v 0.322450 -0.025279 0.161405
v 0.322450 0.054721 0.161405
v 0.292633 0.054721 0.158097
v 0.292633 -0.025279 0.158097
v 0.325759 -0.025279 0.131588
v 0.325759 0.054721 0.131588
v 0.295942 -0.025279 0.128280
v 0.295942 0.054721 0.128280
vn 1.0000 -0.0000 -0.0000
vn -0.0000 -0.0000 -1.0000
vn -1.0000 -0.0000 -0.0000
vn -0.0000 -0.0000 1.0000
vn -0.0000 1.0000 -0.0000
vn -0.0000 -1.0000 -0.0000
vn -0.9999 0.0002 -0.0126
vn 0.9999 -0.0000 0.0125
vn 0.9999 -0.0000 0.0124
vn 0.0015 -0.0000 1.0000
vn 0.9998 -0.0000 0.0203
vn 0.0042 -0.0000 -1.0000
vn -0.9998 -0.0000 -0.0202
vn 0.0016 -0.0000 1.0000
vn -0.9997 -0.0000 -0.0226
vn 0.9997 -0.0000 0.0227
vn -0.9999 0.0001 -0.0125
vn -0.9999 -0.0000 -0.0125
vn -0.9969 -0.0007 -0.0792
vn 0.9969 -0.0000 0.0791
vn 0.9969 -0.0000 0.0792
vn -0.9969 -0.0006 -0.0792
vn -0.9969 -0.0000 -0.0791
vn -0.9867 -0.0004 -0.1628
vn 0.9867 -0.0000 0.1628
vn -0.1636 -0.0000 0.9865
vn -0.9879 -0.0000 -0.1551
vn 0.1743 -0.0000 -0.9847
vn 0.9879 -0.0000 0.1550
vn -0.1439 -0.0000 0.9896
vn 0.9854 -0.0000 0.1705
vn 0.1935 -0.0000 -0.9811
vn -0.9854 -0.0000 -0.1700
vn -0.9867 -0.0000 -0.1627
vn -0.9705 -0.0000 -0.2412
vn 0.9705 -0.0000 0.2412
vn -0.9754 -0.0000 -0.2203
vn 0.9754 -0.0001 0.2203
vn 0.9755 -0.0023 0.2198
vn -0.2426 -0.0000 0.9701
vn -0.9704 -0.0000 -0.2414
vn 0.2525 -0.0000 -0.9676
vn 0.9704 -0.0000 0.2414
vn -0.2244 -0.0000 0.9745
vn 0.9683 -0.0000 0.2497
vn 0.2704 -0.0000 -0.9628
vn -0.9685 -0.0000 -0.2491
vn 0.0009 1.0000 -0.0031
vn 0.0005 1.0000 -0.0016
vn 0.0004 1.0000 -0.0015
vn -0.0008 -1.0000 0.0032
vn -0.0004 -1.0000 0.0016
vn -0.9754 -0.0025 -0.2202
vn -0.9756 0.0040 -0.2194
vn 0.0008 1.0000 -0.0032
vn 0.0004 1.0000 -0.0016
vn 0.9755 0.0074 0.2198
vn -0.9705 -0.0000 -0.2411
vn -0.9498 0.0004 -0.3128
vn 0.9498 -0.0000 0.3128
vn -0.9513 -0.0087 -0.3082
vn 0.9518 0.0012 0.3068
vn 0.9520 0.0052 0.3060
vn -0.3154 -0.0000 0.9490
vn -0.9467 -0.0000 -0.3221
vn 0.3243 -0.0000 -0.9459
vn 0.9467 -0.0000 0.3221
vn -0.2987 -0.0000 0.9543
vn 0.9479 -0.0000 0.3184
vn 0.3407 -0.0000 -0.9402
vn -0.9478 -0.0000 -0.3188
vn -0.9515 0.0055 -0.3076
vn -0.9518 0.0058 -0.3068
vn 0.9522 -0.0018 0.3056
vn -0.9498 -0.0000 -0.3127
vn -0.9263 0.0010 -0.3768
vn 0.9263 -0.0000 0.3768
vn -0.9238 -0.0085 -0.3829
vn 0.9234 0.0013 0.3837
vn 0.9228 0.0074 0.3851
vn -0.3811 -0.0000 0.9245
vn -0.9182 -0.0000 -0.3960
vn 0.3891 -0.0000 -0.9212
vn 0.9182 -0.0000 0.3961
vn -0.3660 -0.0000 0.9306
vn 0.9230 -0.0000 0.3848
vn 0.4035 -0.0000 -0.9150
vn -0.9230 -0.0000 -0.3848
vn -0.9237 0.0077 -0.3830
vn -0.9230 0.0018 -0.3849
vn 0.9226 -0.0087 0.3856
vn -0.9263 0.0009 -0.3768
vn -0.9263 -0.0000 -0.3768
vn -0.8995 0.0005 -0.4370
vn 0.8995 -0.0000 0.4369
vn -0.8997 -0.0000 -0.4365
vn 0.8997 -0.0000 0.4365
vn 0.8997 0.0001 0.4365
vn -0.4396 -0.0000 0.8982
vn 0.8995 -0.0000 0.4368
vn 0.4468 -0.0000 -0.8946
vn -0.8995 -0.0000 -0.4369
vn -0.9001 -0.0000 -0.4358
vn 0.9001 -0.0000 0.4357
vn -0.4262 -0.0000 0.9046
vn 0.8963 -0.0000 0.4435
vn 0.4594 -0.0000 -0.8882
vn -0.8964 -0.0000 -0.4433
vn -0.8997 -0.0000 -0.4364
vn -0.8995 0.0004 -0.4370
vn -0.8724 0.0001 -0.4888
vn 0.8724 -0.0000 0.4888
vn -0.8734 -0.0000 -0.4871
vn 0.8734 -0.0000 0.4870
vn 0.8734 0.0001 0.4870
vn -0.4912 -0.0000 0.8711
vn 0.8706 -0.0000 0.4919
vn 0.4975 -0.0000 -0.8675
vn -0.8706 -0.0000 -0.4920
vn -0.8708 -0.0000 -0.4916
vn 0.8709 -0.0000 0.4915
vn -0.4796 -0.0000 0.8775
vn 0.8691 -0.0000 0.4946
vn 0.5088 -0.0000 -0.8609
vn -0.8692 -0.0000 -0.4945
vn -0.8734 -0.0000 -0.4869
vn 0.8734 -0.0000 0.4871
vn -0.8725 -0.0000 -0.4887
vn -0.8474 0.0010 -0.5310
vn 0.8474 -0.0000 0.5310
vn -0.5367 -0.0000 0.8438
vn -0.8366 -0.0000 -0.5478
vn 0.5421 -0.0000 -0.8403
vn 0.8365 -0.0000 0.5479
vn -0.5263 -0.0000 0.8503
vn 0.8418 -0.0000 0.5398
vn 0.5519 -0.0000 -0.8339
vn -0.8419 -0.0000 -0.5397
vn -0.8474 0.0008 -0.5310
vn -0.8474 -0.0000 -0.5309
vn -0.8186 0.0007 -0.5744
vn 0.8186 -0.0000 0.5744
vn -0.8194 -0.0000 -0.5732
vn 0.8194 -0.0000 0.5732
vn -0.5763 -0.0000 0.8172
vn 0.8196 -0.0000 0.5730
vn 0.5812 -0.0000 -0.8138
vn -0.8195 -0.0000 -0.5730
vn -0.5763 -0.0000 0.8173
vn -0.8201 -0.0000 -0.5723
vn 0.8201 -0.0000 0.5722
vn -0.5673 -0.0000 0.8235
vn 0.8157 -0.0000 0.5785
vn 0.5897 -0.0000 -0.8076
vn -0.8157 -0.0000 -0.5785
vn -0.8195 -0.0000 -0.5731
vn 0.8194 -0.0000 0.5733
vn -0.8186 0.0006 -0.5744
vn -0.8186 -0.0000 -0.5744
vn -0.7958 0.0008 -0.6055
vn 0.7959 -0.0000 0.6055
vn 0.7958 -0.0000 0.6055
vn -0.7962 -0.0000 -0.6050
vn 0.7963 -0.0000 0.6049
vn 0.7963 0.0001 0.6049
vn -0.6111 -0.0000 0.7915
vn 0.7860 -0.0000 0.6183
vn 0.6153 -0.0000 -0.7883
vn -0.7860 -0.0000 -0.6183
vn -0.7855 -0.0000 -0.6188
vn 0.7855 -0.0000 0.6188
vn -0.6032 -0.0000 0.7976
vn 0.7892 -0.0000 0.6141
vn 0.6228 -0.0000 -0.7823
vn -0.7893 -0.0000 -0.6140
vn -0.7963 -0.0000 -0.6049
vn -0.7958 0.0007 -0.6055
vn -0.7959 -0.0000 -0.6054
vn -0.7690 0.0006 -0.6392
vn 0.7690 -0.0000 0.6392
vn -0.7698 -0.0000 -0.6383
vn 0.7698 -0.0000 0.6383
vn -0.6416 -0.0000 0.7671
vn 0.7688 -0.0000 0.6395
vn 0.6454 -0.0000 -0.7639
vn -0.7687 -0.0000 -0.6396
vn -0.6416 -0.0000 0.7670
vn -0.7691 -0.0000 -0.6391
vn 0.6453 -0.0000 -0.7639
vn 0.7691 -0.0000 0.6391
vn -0.6347 -0.0000 0.7728
vn 0.7661 -0.0000 0.6428
vn 0.6520 -0.0000 -0.7582
vn -0.7660 -0.0000 -0.6428
vn -0.7699 -0.0000 -0.6382
vn -0.7698 -0.0000 -0.6382
vn -0.7691 -0.0000 -0.6392
vn -0.7481 0.0002 -0.6636
vn 0.7481 -0.0000 0.6635
vn -0.7483 -0.0000 -0.6634
vn 0.7483 -0.0000 0.6633
vn 0.7483 0.0001 0.6633
vn -0.6685 -0.0000 0.7437
vn 0.7363 -0.0000 0.6766
vn 0.6717 -0.0000 -0.7408
vn -0.7364 -0.0000 -0.6766
vn -0.7358 -0.0000 -0.6772
vn 0.7358 -0.0000 0.6772
vn -0.6623 -0.0000 0.7492
vn 0.7418 -0.0000 0.6707
vn 0.6775 -0.0000 -0.7355
vn -0.7418 -0.0000 -0.6706
vn -0.7483 -0.0000 -0.6633
vn -0.7482 -0.0000 -0.6635
vn -0.7257 0.0004 -0.6881
vn -0.0007 1.0000 0.0007
vn 0.0007 -1.0000 -0.0007
vn 0.7256 -0.0000 0.6881
vn -0.7266 -0.0000 -0.6871
vn 0.7266 -0.0000 0.6871
vn 0.7266 0.0001 0.6871
vn -0.6920 -0.0000 0.7219
vn 0.7201 -0.0000 0.6939
vn 0.6949 -0.0000 -0.7191
vn -0.7201 -0.0000 -0.6938
vn -0.7201 -0.0000 -0.6939
vn -0.6868 -0.0000 0.7269
vn 0.7002 -0.0000 -0.7140
vn -0.7266 -0.0000 -0.6870
vn -0.7256 0.0003 -0.6881
vn -0.7257 -0.0000 -0.6880
vn -0.7122 0.0006 -0.7020
vn -0.0014 1.0000 0.0014
vn 0.0014 -1.0000 -0.0014
vn -0.0014 1.0000 0.0013
vn 0.7122 -0.0000 0.7020
vn 0.7122 -0.0000 0.7019
vn -0.7100 -0.0000 -0.7042
vn 0.7100 -0.0000 0.7042
vn 0.7100 0.0001 0.7042
vn -0.7130 -0.0000 0.7011
vn 0.7043 -0.0000 0.7099
vn 0.7157 -0.0000 -0.6984
vn -0.7043 -0.0000 -0.7099
vn -0.7047 -0.0000 -0.7095
vn 0.7047 -0.0000 0.7095
vn -0.7082 -0.0000 0.7060
vn 0.7046 -0.0000 0.7096
vn 0.7172 -0.0000 -0.6968
vn -0.7044 -0.0000 -0.7098
vn -0.7122 0.0005 -0.7020
vn -0.7122 -0.0000 -0.7020
vn 0.7180 0.0233 -0.6957
vn -0.0000 1.0000 0.0002
vn -0.0000 1.0000 0.0004
vn -0.0000 -1.0000 -0.0002
vn -0.0000 -1.0000 -0.0004
vn 0.9952 -0.0000 0.0977
vn -0.0012 1.0000 0.0001
vn -0.0011 1.0000 0.0001
vn -0.0022 1.0000 0.0002
vn -0.9952 -0.0000 -0.0977
vn -0.9952 -0.0082 -0.0978
vn 0.5177 0.0252 -0.8552
vn 0.5020 -0.0000 -0.8649
vn 0.5019 -0.0000 -0.8649
vn 0.5019 0.0016 -0.8649
vn 0.5019 0.0077 -0.8649
vn 0.5040 0.0039 -0.8637
vn 0.5019 0.0115 -0.8648
vn 0.5045 0.0021 -0.8634
vn 0.7062 -0.0000 -0.7080
vn 0.7195 -0.0220 -0.6941
vn 0.7062 0.0071 -0.7080
vn 0.7062 0.0015 -0.7080
vn 0.7152 -0.0086 -0.6988
vn 0.7082 0.0019 -0.7060
vn 0.7078 0.0036 -0.7064
vn 0.7062 0.0107 -0.7080
vn 0.7053 -0.0483 -0.7072
vn -0.2087 -0.0261 0.9776
vn -0.1899 0.0001 0.9818
vn -0.1899 -0.0000 0.9818
vn -0.1900 0.0001 0.9818
vn -0.1899 -0.0080 0.9818
vn -0.1899 -0.0017 0.9818
vn -0.1899 -0.0119 0.9817
vn -0.1924 -0.0040 0.9813
vn -0.1930 -0.0022 0.9812
vn 0.0001 -0.0002 1.0000
vn 0.0016 -0.0018 1.0000
vn 0.0020 -0.0023 1.0000
vn 0.0013 -0.0015 1.0000
vn -0.1103 -0.0000 0.9939
vn 0.9939 -0.0000 0.1103
vn 0.1103 -0.0000 -0.9939
vn -0.9939 -0.0000 -0.1103
vt 0.679406 0.062150
vt 0.679406 0.048121
vt 0.905875 0.048121
vt 0.905875 0.062150
vt 0.982037 0.022561
vt 0.226469 0.121202
vt 0.000000 0.121202
vt 0.000000 0.093759
vt 0.226469 0.093759
vt 0.226469 0.025761
vt 0.000000 0.025761
vt 0.000000 0.012881
vt 0.226469 0.012881
vt 0.949641 0.103062
vt 0.949641 0.115757
vt 0.980127 0.103062
vt 0.958243 0.103062
vt 0.988729 0.115757
vt 0.988729 0.103062
vt 0.995971 0.076013
vt 0.995971 0.062186
vt 0.958243 0.076013
vt 0.980127 0.076013
vt 0.942399 0.062186
vt 0.942399 0.076013
vt 0.000000 0.048121
vt 0.000000 0.062150
vt 0.905875 0.034093
vt 0.000000 0.034093
vt 0.906075 0.219937
vt 0.000200 0.219937
vt 0.000200 0.259595
vt 0.906075 0.259595
vt -0.000122 0.156096
vt -0.000122 0.210448
vt 0.905753 0.210448
vt 0.905753 0.156096
vt 0.905875 0.121202
vt 0.905875 0.093759
vt 0.905875 0.025761
vt 0.905875 0.012881
vt 0.000512 0.321630
vt 0.000512 0.330358
vt 0.906387 0.330358
vt 0.906387 0.321630
vt 0.906075 0.312903
vt 0.906075 0.296828
vt 0.000200 0.296828
vt 0.000200 0.312903
vt 0.000000 0.089593
vt 0.905875 0.089593
vt 0.000000 0.000000
vt 0.905875 0.000000
vt 0.000512 0.312903
vt 0.906387 0.312903
vt 0.906075 0.297453
vt 0.906075 0.281378
vt 0.000200 0.281378
vt 0.000200 0.297453
vt 0.999050 0.183297
vt 0.999050 0.342604
vt 0.939310 0.342604
vt 0.939310 0.183297
vt 0.985655 0.132863
vt 0.985655 0.179437
vt 0.939081 0.179437
vt 0.939081 0.132863
vt 0.979692 0.781451
vt 0.979692 0.844034
vt -0.000781 0.844034
vt -0.000781 0.781451
vt 0.146184 0.656284
vt 0.146184 0.718868
vt 0.000156 0.718868
vt 0.000156 0.656284
vt 0.980629 0.718868
vt 0.980629 0.781451
vt 0.000156 0.781451
vt 0.302823 0.656284
vt 0.302823 0.718868
vt 0.156795 0.718868
vt 0.156795 0.656284
vt 0.999534 0.505675
vt 0.999534 0.654611
vt -0.000466 0.654611
vt -0.000466 0.505675
vt 0.145247 0.656284
vt 0.145247 0.718868
vt -0.000781 0.718868
vt -0.000781 0.656284
vt 0.979692 0.718868
vt 1.000000 0.851064
vt 1.000000 1.000000
vt 0.000000 1.000000
vt 0.000000 0.851064
vt 0.999897 0.349106
vt 0.999897 0.498042
vt -0.000103 0.498042
vt -0.000103 0.349106
vt 0.998987 0.850355
vt 0.998987 0.998895
vt 0.001647 0.998895
vt 0.001647 0.850355
vt 0.998987 0.849509
vt 0.998987 0.998049
vt 0.001647 0.998049
vt 0.001647 0.849509
vt 0.997339 0.352016
vt 0.997339 0.500556
vt 0.000000 0.500556
vt 0.000000 0.352016
vt 0.998987 0.504118
vt 0.998987 0.652658
vt 0.001647 0.652658
vt 0.001647 0.504118
vt 0.679406 0.034093
vt 0.679606 0.259595
vt 0.679606 0.219937
vt 0.226347 0.210448
vt 0.226347 0.156096
vt 0.226981 0.330358
vt 0.226981 0.321630
vt 0.679606 0.296828
vt 0.679606 0.312903
vt 0.226469 0.089593
vt 0.226469 0.062150
vt 0.226469 0.000000
vt 0.226981 0.312903
vt 0.679606 0.281378
vt 0.679606 0.297453
vt 0.679406 0.025761
vt 0.679406 0.012881
vt 0.679406 0.121202
vt 0.679406 0.093759
vt 0.226469 0.048121
vt 0.415989 0.075507
vt 0.226669 0.281378
vt 0.226669 0.297453
vt 0.396520 0.281378
vt 0.453137 0.281378
vt 0.453137 0.297453
vt 0.396520 0.297453
vt 0.679918 0.321630
vt 0.679918 0.312903
vt 0.510067 0.321630
vt 0.453449 0.321630
vt 0.453449 0.312903
vt 0.510067 0.312903
vt 0.679406 0.000000
vt 0.509555 0.012881
vt 0.452938 0.012881
vt 0.452938 0.000000
vt 0.509555 0.000000
vt 0.679406 0.089593
vt 0.509555 0.089593
vt 0.452938 0.089593
vt 0.452938 0.062150
vt 0.509555 0.062150
vt 0.226669 0.296828
vt 0.226669 0.312903
vt 0.396520 0.296828
vt 0.453137 0.296828
vt 0.453137 0.312903
vt 0.396520 0.312903
vt 0.679918 0.330358
vt 0.510067 0.330358
vt 0.453449 0.330358
vt 0.452937 0.025761
vt 0.452937 0.012881
vt 0.283086 0.025761
vt 0.283086 0.012881
vt 0.452937 0.121202
vt 0.452937 0.093759
vt 0.283086 0.121202
vt 0.283086 0.093759
vt 0.679284 0.210448
vt 0.679284 0.156096
vt 0.509433 0.210448
vt 0.452816 0.210448
vt 0.452816 0.156096
vt 0.509433 0.156096
vt 0.226669 0.219937
vt 0.226669 0.259595
vt 0.396520 0.259595
vt 0.396520 0.219937
vt 0.453137 0.219937
vt 0.453137 0.259595
vt 0.226469 0.034093
vt 0.396320 0.048121
vt 0.396320 0.034093
vt 0.452937 0.034093
vt 0.452937 0.048121
vt 0.452938 0.048121
vt 0.622789 0.062150
vt 0.622789 0.048121
vt 0.509555 0.048121
vt 0.566172 0.048121
vt 0.566172 0.062150
vt 0.283086 0.034093
vt 0.283086 0.048121
vt 0.339703 0.048121
vt 0.339703 0.034093
vt 0.283286 0.219937
vt 0.283286 0.259595
vt 0.339903 0.259595
vt 0.339903 0.219937
vt 0.622667 0.210448
vt 0.622667 0.156096
vt 0.566050 0.210448
vt 0.566050 0.156096
vt 0.396320 0.121202
vt 0.396320 0.093759
vt 0.339703 0.121202
vt 0.339703 0.093759
vt 0.396320 0.025761
vt 0.396320 0.012881
vt 0.339703 0.025761
vt 0.339703 0.012881
vt 0.623301 0.330358
vt 0.623301 0.321630
vt 0.566684 0.330358
vt 0.566684 0.321630
vt 0.283286 0.296828
vt 0.283286 0.312903
vt 0.339903 0.296828
vt 0.339903 0.312903
vt 0.622789 0.089593
vt 0.566172 0.089593
vt 0.622789 0.012881
vt 0.622789 0.000000
vt 0.566172 0.012881
vt 0.566172 0.000000
vt 0.623301 0.312903
vt 0.566684 0.312903
vt 0.283286 0.281378
vt 0.283286 0.297453
vt 0.339903 0.281378
vt 0.339903 0.297453
vt 0.955240 0.109372
s 1
usemtl Default_OBJ
f 1/1/1 2/2/1 3/3/1 4/4/1
f 5/5/2 6/5/2 4/5/2 3/5/2
f 3/5/2 7/5/2 8/5/2 5/5/2
f 9/5/2 10/5/2 11/5/2 12/5/2
f 12/5/2 13/5/2 14/5/2 9/5/2
f 6/5/2 5/5/2 10/5/2 9/5/2
f 15/6/3 10/7/3 5/8/3 16/9/3
f 17/10/3 12/11/3 11/12/3 18/13/3
f 19/14/4 20/15/4 21/16/4 22/17/4
f 23/18/4 24/19/4 21/16/4 20/15/4
f 25/20/4 26/21/4 27/22/4 28/23/4
f 29/24/4 30/25/4 27/22/4 26/21/4
f 27/22/4 22/17/4 21/16/4 28/23/4
f 31/3/3 26/26/3 25/27/3 32/4/3
f 33/5/2 31/5/2 34/5/2 35/5/2
f 32/5/2 36/5/2 34/5/2 31/5/2
f 37/5/2 38/5/2 39/5/2 40/5/2
f 41/5/2 42/5/2 39/5/2 38/5/2
f 40/5/2 39/5/2 34/5/2 36/5/2
f 29/28/1 33/29/1 35/26/1 30/3/1
f 20/30/5 41/31/5 38/32/5 23/33/5
f 29/34/6 26/35/6 31/36/6 33/37/6
f 34/8/1 39/7/1 22/38/1 27/39/1
f 42/12/1 41/11/1 20/40/1 19/41/1
f 19/42/6 22/43/6 39/44/6 42/45/6
f 27/46/5 30/47/5 35/48/5 34/49/5
f 28/27/3 21/50/3 40/51/3 36/4/3
f 24/52/3 23/12/3 38/41/3 37/53/3
f 21/54/6 24/42/6 37/45/6 40/55/6
f 25/56/5 28/57/5 36/58/5 32/59/5
f 43/60/4 44/61/4 45/62/4 46/63/4
f 47/60/1 48/61/1 44/62/1 43/63/1
f 49/60/2 50/61/2 48/62/2 47/63/2
f 46/60/3 45/61/3 50/62/3 49/63/3
f 44/64/5 48/65/5 50/66/5 45/67/5
f 51/60/4 52/61/4 53/62/4 54/63/4
f 55/60/1 56/61/1 52/62/1 51/63/1
f 57/60/2 58/61/2 56/62/2 55/63/2
f 54/60/3 53/61/3 58/62/3 57/63/3
f 52/64/5 56/65/5 58/66/5 53/67/5
f 59/60/4 60/61/4 61/62/4 62/63/4
f 63/60/1 64/61/1 60/62/1 59/63/1
f 65/60/2 66/61/2 64/62/2 63/63/2
f 62/60/3 61/61/3 66/62/3 65/63/3
f 60/64/5 64/65/5 66/66/5 61/67/5
f 67/68/4 68/69/4 69/70/4 70/71/4
f 71/72/1 72/73/1 68/74/1 67/75/1
f 73/76/2 74/77/2 72/78/2 71/74/2
f 70/79/3 69/80/3 74/81/3 73/82/3
f 68/83/5 72/84/5 74/85/5 69/86/5
f 75/68/4 76/69/4 77/70/4 78/71/4
f 79/87/1 80/88/1 76/89/1 75/90/1
f 81/91/2 82/68/2 80/71/2 79/89/2
f 78/79/3 77/80/3 82/81/3 81/82/3
f 76/92/5 80/93/5 82/94/5 77/95/5
f 83/68/4 84/69/4 85/70/4 86/71/4
f 87/87/1 88/88/1 84/89/1 83/90/1
f 89/91/2 90/68/2 88/71/2 87/89/2
f 86/79/3 85/80/3 90/81/3 89/82/3
f 84/96/5 88/97/5 90/98/5 85/99/5
f 91/68/4 92/69/4 93/70/4 94/71/4
f 95/87/1 96/88/1 92/89/1 91/90/1
f 97/91/2 98/68/2 96/71/2 95/89/2
f 94/79/3 93/80/3 98/81/3 97/82/3
f 92/92/5 96/93/5 98/94/5 93/95/5
f 71/100/6 67/101/6 70/102/6 73/103/6
f 79/104/6 75/105/6 78/106/6 81/107/6
f 87/108/6 83/109/6 86/110/6 89/111/6
f 95/112/6 91/113/6 94/114/6 97/115/6
f 99/60/4 100/61/4 101/62/4 102/63/4
f 103/60/1 104/61/1 100/62/1 99/63/1
f 105/60/2 106/61/2 104/62/2 103/63/2
f 102/60/3 101/61/3 106/62/3 105/63/3
f 100/64/5 104/65/5 106/66/5 101/67/5
f 107/60/4 108/61/4 109/62/4 110/63/4
f 111/60/1 112/61/1 108/62/1 107/63/1
f 113/60/2 114/61/2 112/62/2 111/63/2
f 110/60/3 109/61/3 114/62/3 113/63/3
f 108/64/5 112/65/5 114/66/5 109/67/5
f 115/60/4 116/61/4 117/62/4 118/63/4
f 119/60/1 120/61/1 116/62/1 115/63/1
f 121/60/2 122/61/2 120/62/2 119/63/2
f 118/60/3 117/61/3 122/62/3 121/63/3
f 116/64/5 120/65/5 122/66/5 117/67/5
f 123/62/4 124/61/4 125/60/4 126/63/4
f 124/62/3 127/61/3 128/60/3 125/63/3
f 127/62/2 129/61/2 130/60/2 128/63/2
f 129/62/1 123/61/1 126/60/1 130/63/1
f 129/66/5 127/65/5 124/64/5 123/67/5
f 131/60/4 132/61/4 133/62/4 134/63/4
f 135/60/1 136/61/1 132/62/1 131/63/1
f 137/60/2 138/61/2 136/62/2 135/63/2
f 134/60/3 133/61/3 138/62/3 137/63/3
f 132/64/5 136/65/5 138/66/5 133/67/5
f 139/68/4 140/69/4 141/70/4 142/71/4
f 143/72/1 144/73/1 140/74/1 139/75/1
f 145/76/2 146/77/2 144/78/2 143/74/2
f 142/79/3 141/80/3 146/81/3 145/82/3
f 140/83/5 144/84/5 146/85/5 141/86/5
f 147/68/4 148/69/4 149/70/4 150/71/4
f 151/87/1 152/88/1 148/89/1 147/90/1
f 153/91/2 154/68/2 152/71/2 151/89/2
f 150/79/3 149/80/3 154/81/3 153/82/3
f 148/92/5 152/93/5 154/94/5 149/95/5
f 155/68/4 156/69/4 157/70/4 158/71/4
f 159/87/1 160/88/1 156/89/1 155/90/1
f 161/91/2 162/68/2 160/71/2 159/89/2
f 158/79/3 157/80/3 162/81/3 161/82/3
f 156/96/5 160/97/5 162/98/5 157/99/5
f 163/68/4 164/69/4 165/70/4 166/71/4
f 167/87/1 168/88/1 164/89/1 163/90/1
f 169/91/2 170/68/2 168/71/2 167/89/2
f 166/79/3 165/80/3 170/81/3 169/82/3
f 164/92/5 168/93/5 170/94/5 165/95/5
f 143/100/6 139/101/6 142/102/6 145/103/6
f 151/104/6 147/105/6 150/106/6 153/107/6
f 159/108/6 155/109/6 158/110/6 161/111/6
f 167/112/6 163/113/6 166/114/6 169/115/6
f 171/60/4 172/61/4 173/62/4 174/63/4
f 175/60/1 176/61/1 172/62/1 171/63/1
f 177/60/2 178/61/2 176/62/2 175/63/2
f 174/60/3 173/61/3 178/62/3 177/63/3
f 172/64/5 176/65/5 178/66/5 173/67/5
f 179/62/4 180/61/4 181/60/4 182/63/4
f 180/62/3 183/61/3 184/60/3 181/63/3
f 183/62/2 185/61/2 186/60/2 184/63/2
f 185/62/1 179/61/1 182/60/1 186/63/1
f 185/66/5 183/65/5 180/64/5 179/67/5
f 187/60/4 188/61/4 189/62/4 190/63/4
f 191/60/1 192/61/1 188/62/1 187/63/1
f 193/60/2 194/61/2 192/62/2 191/63/2
f 190/60/3 189/61/3 194/62/3 193/63/3
f 188/64/5 192/65/5 194/66/5 189/67/5
f 195/62/4 196/61/4 197/60/4 198/63/4
f 196/62/3 199/61/3 200/60/3 197/63/3
f 199/62/2 201/61/2 202/60/2 200/63/2
f 201/62/1 195/61/1 198/60/1 202/63/1
f 201/66/5 199/65/5 196/64/5 195/67/5
f 203/60/4 204/61/4 205/62/4 206/63/4
f 207/60/1 208/61/1 204/62/1 203/63/1
f 209/60/2 210/61/2 208/62/2 207/63/2
f 206/60/3 205/61/3 210/62/3 209/63/3
f 204/64/5 208/65/5 210/66/5 205/67/5
f 211/62/4 212/61/4 213/60/4 214/63/4
f 212/62/3 215/61/3 216/60/3 213/63/3
f 215/62/2 217/61/2 218/60/2 216/63/2
f 217/62/1 211/61/1 214/60/1 218/63/1
f 217/66/5 215/65/5 212/64/5 211/67/5
f 219/60/4 220/61/4 221/62/4 222/63/4
f 223/60/1 224/61/1 220/62/1 219/63/1
f 225/60/2 226/61/2 224/62/2 223/63/2
f 222/60/3 221/61/3 226/62/3 225/63/3
f 220/64/5 224/65/5 226/66/5 221/67/5
f 227/62/4 228/61/4 229/60/4 230/63/4
f 228/62/3 231/61/3 232/60/3 229/63/3
f 231/62/2 233/61/2 234/60/2 232/63/2
f 233/62/1 227/61/1 230/60/1 234/63/1
f 233/66/5 231/65/5 228/64/5 227/67/5
f 235/68/4 236/69/4 237/70/4 238/71/4
f 239/72/1 240/73/1 236/74/1 235/75/1
f 241/76/2 242/77/2 240/78/2 239/74/2
f 238/79/3 237/80/3 242/81/3 241/82/3
f 236/83/5 240/84/5 242/85/5 237/86/5
f 243/68/4 244/69/4 245/70/4 246/71/4
f 247/87/1 248/88/1 244/89/1 243/90/1
f 249/91/2 250/68/2 248/71/2 247/89/2
f 246/79/3 245/80/3 250/81/3 249/82/3
f 244/92/5 248/93/5 250/94/5 245/95/5
f 251/68/4 252/69/4 253/70/4 254/71/4
f 255/87/1 256/88/1 252/89/1 251/90/1
f 257/91/2 258/68/2 256/71/2 255/89/2
f 254/79/3 253/80/3 258/81/3 257/82/3
f 252/96/5 256/97/5 258/98/5 253/99/5
f 259/68/4 260/69/4 261/70/4 262/71/4
f 263/87/1 264/88/1 260/89/1 259/90/1
f 265/91/2 266/68/2 264/71/2 263/89/2
f 262/79/3 261/80/3 266/81/3 265/82/3
f 260/92/5 264/93/5 266/94/5 261/95/5
f 239/100/6 235/101/6 238/102/6 241/103/6
f 247/104/6 243/105/6 246/106/6 249/107/6
f 255/108/6 251/109/6 254/110/6 257/111/6
f 263/112/6 259/113/6 262/114/6 265/115/6
f 267/2/7 268/116/7 269/28/7 270/3/7
f 271/117/5 272/118/5 273/30/5 274/33/5
f 275/119/6 276/35/6 269/34/6 268/120/6
f 277/121/6 278/43/6 279/42/6 280/122/6
f 267/123/5 270/47/5 281/46/5 282/124/5
f 283/125/8 284/50/8 285/27/8 286/126/8
f 271/13/9 274/12/9 287/52/9 288/127/9
f 288/122/6 287/42/6 284/54/6 283/128/6
f 286/129/5 285/57/5 289/56/5 290/130/5
f 291/60/10 292/61/10 293/62/10 294/63/10
f 295/60/11 296/61/11 292/62/11 291/63/11
f 297/60/12 298/61/12 296/62/12 295/63/12
f 294/60/13 293/61/13 298/62/13 297/63/13
f 292/64/5 296/65/5 298/66/5 293/67/5
f 299/62/14 300/61/14 301/60/14 302/63/14
f 300/62/15 303/61/15 304/60/15 301/63/15
f 303/62/12 305/61/12 306/60/12 304/63/12
f 305/62/16 299/61/16 302/60/16 306/63/16
f 305/66/5 303/65/5 300/64/5 299/67/5
f 273/40/17 272/131/17 280/132/17 279/41/17
f 278/38/18 277/133/18 282/134/18 281/39/18
f 289/27/9 276/26/9 275/135/9 290/126/9
f 307/2/19 308/116/19 268/28/19 267/3/19
f 309/117/5 310/118/5 272/30/5 271/33/5
f 311/119/6 275/35/6 268/34/6 308/120/6
f 312/121/6 277/43/6 280/42/6 313/122/6
f 307/123/5 267/47/5 282/46/5 314/124/5
f 315/125/20 283/50/20 286/27/20 316/126/20
f 309/13/21 271/12/21 288/52/21 317/127/21
f 317/122/6 288/42/6 283/54/6 315/128/6
f 316/129/5 286/57/5 290/56/5 318/130/5
f 272/40/22 310/131/22 313/132/22 280/41/22
f 277/38/23 312/133/23 314/134/23 282/39/23
f 290/27/21 275/26/21 311/135/21 318/126/21
f 319/2/24 320/116/24 308/28/24 307/3/24
f 321/117/5 322/118/5 310/30/5 309/33/5
f 323/119/6 311/35/6 308/34/6 320/120/6
f 324/121/6 312/43/6 313/42/6 325/122/6
f 319/123/5 307/47/5 314/46/5 326/124/5
f 327/125/25 315/50/25 316/27/25 328/126/25
f 321/13/25 309/12/25 317/52/25 329/127/25
f 329/122/6 317/42/6 315/54/6 327/128/6
f 328/129/5 316/57/5 318/56/5 330/130/5
f 331/62/26 332/61/26 333/60/26 334/63/26
f 332/62/27 335/61/27 336/60/27 333/63/27
f 335/62/28 337/61/28 338/60/28 336/63/28
f 337/62/29 331/61/29 334/60/29 338/63/29
f 337/66/5 335/65/5 332/64/5 331/67/5
f 339/68/30 340/69/30 341/70/30 342/71/30
f 343/87/31 344/88/31 340/89/31 339/90/31
f 345/91/32 346/68/32 344/71/32 343/89/32
f 342/79/33 341/80/33 346/81/33 345/82/33
f 340/92/5 344/93/5 346/94/5 341/95/5
f 343/112/6 339/113/6 342/114/6 345/115/6
f 310/40/24 322/131/24 325/132/24 313/41/24
f 312/38/34 324/133/34 326/134/34 314/39/34
f 318/27/25 311/26/25 323/135/25 330/126/25
f 347/2/35 348/116/35 320/28/35 319/3/35
f 349/117/5 350/118/5 322/30/5 321/33/5
f 351/119/6 323/35/6 320/34/6 348/120/6
f 352/121/6 324/43/6 325/42/6 353/122/6
f 347/123/5 319/47/5 326/46/5 354/124/5
f 355/125/36 327/50/36 328/27/36 356/126/36
f 349/13/36 321/12/36 329/52/36 357/127/36
f 357/122/6 329/42/6 327/54/6 355/128/6
f 356/129/5 328/57/5 330/56/5 358/130/5
f 359/135/37 360/26/37 361/27/37 362/126/37
f 363/134/38 364/133/38 365/38/38 366/39/38
f 367/132/39 368/131/39 369/40/39 370/41/39
f 371/62/40 372/61/40 373/60/40 374/63/40
f 372/62/41 375/61/41 376/60/41 373/63/41
f 375/62/42 377/61/42 378/60/42 376/63/42
f 377/62/43 371/61/43 374/60/43 378/63/43
f 377/66/5 375/65/5 372/64/5 371/67/5
f 379/68/44 380/69/44 381/70/44 382/71/44
f 383/87/45 384/88/45 380/89/45 379/90/45
f 385/91/46 386/68/46 384/71/46 383/89/46
f 382/79/47 381/80/47 386/81/47 385/82/47
f 380/92/5 384/93/5 386/94/5 381/95/5
f 383/112/6 379/113/6 382/114/6 385/115/6
f 361/56/48 387/57/48 388/129/49 362/130/50
f 389/54/51 390/42/51 391/122/52 392/128/52
f 390/52/53 393/12/53 394/13/53 391/127/53
f 387/27/54 389/50/54 392/125/54 388/126/54
f 366/46/55 395/47/55 396/123/56 363/124/56
f 370/42/51 365/43/51 364/121/52 367/122/52
f 397/34/51 360/35/51 359/119/52 398/120/52
f 369/30/55 368/118/56 394/117/56 393/33/55
f 397/28/57 398/116/57 396/2/57 395/3/57
f 322/40/35 350/131/35 353/132/35 325/41/35
f 324/38/58 352/133/58 354/134/58 326/39/58
f 330/27/36 323/26/36 351/135/36 358/126/36
f 399/2/59 400/116/59 348/28/59 347/3/59
f 401/117/5 402/118/5 350/30/5 349/33/5
f 403/119/6 351/35/6 348/34/6 400/120/6
f 404/121/6 352/43/6 353/42/6 405/122/6
f 399/123/5 347/47/5 354/46/5 406/124/5
f 407/125/60 355/50/60 356/27/60 408/126/60
f 401/13/60 349/12/60 357/52/60 409/127/60
f 409/122/6 357/42/6 355/54/6 407/128/6
f 408/129/5 356/57/5 358/56/5 410/130/5
f 411/135/61 359/26/61 362/27/61 412/126/61
f 413/134/62 414/133/62 364/38/62 363/39/62
f 415/132/63 416/131/63 368/40/63 367/41/63
f 417/62/64 418/61/64 419/60/64 420/63/64
f 418/62/65 421/61/65 422/60/65 419/63/65
f 421/62/66 423/61/66 424/60/66 422/63/66
f 423/62/67 417/61/67 420/60/67 424/63/67
f 423/66/5 421/65/5 418/64/5 417/67/5
f 425/68/68 426/69/68 427/70/68 428/71/68
f 429/87/69 430/88/69 426/89/69 425/90/69
f 431/91/70 432/68/70 430/71/70 429/89/70
f 428/79/71 427/80/71 432/81/71 431/82/71
f 426/92/5 430/93/5 432/94/5 427/95/5
f 429/112/6 425/113/6 428/114/6 431/115/6
f 362/56/50 388/57/49 433/129/5 412/130/5
f 392/54/52 391/42/52 434/122/6 435/128/6
f 391/52/72 394/12/72 436/13/72 434/127/72
f 388/27/73 392/50/73 435/125/73 433/126/73
f 363/46/56 396/47/56 437/123/5 413/124/5
f 367/42/52 364/43/52 414/121/6 415/122/6
f 398/34/52 359/35/52 411/119/6 438/120/6
f 368/30/56 416/118/5 436/117/5 394/33/56
f 398/28/74 438/116/74 437/2/74 396/3/74
f 350/40/59 402/131/59 405/132/59 353/41/59
f 352/38/75 404/133/75 406/134/75 354/39/75
f 358/27/60 351/26/60 403/135/60 410/126/60
f 439/2/76 440/116/76 400/28/76 399/3/76
f 441/117/5 442/118/5 402/30/5 401/33/5
f 443/119/6 403/35/6 400/34/6 440/120/6
f 444/121/6 404/43/6 405/42/6 445/122/6
f 439/123/5 399/47/5 406/46/5 446/124/5
f 447/125/77 407/50/77 408/27/77 448/126/77
f 441/13/77 401/12/77 409/52/77 449/127/77
f 449/122/6 409/42/6 407/54/6 447/128/6
f 448/129/5 408/57/5 410/56/5 450/130/5
f 451/135/78 411/26/78 412/27/78 452/126/78
f 453/134/79 454/133/79 414/38/79 413/39/79
f 455/132/80 456/131/80 416/40/80 415/41/80
f 457/62/81 458/61/81 459/60/81 460/63/81
f 458/62/82 461/61/82 462/60/82 459/63/82
f 461/62/83 463/61/83 464/60/83 462/63/83
f 463/62/84 457/61/84 460/60/84 464/63/84
f 463/66/5 461/65/5 458/64/5 457/67/5
f 465/68/85 466/69/85 467/70/85 468/71/85
f 469/87/86 470/88/86 466/89/86 465/90/86
f 471/91/87 472/68/87 470/71/87 469/89/87
f 468/79/88 467/80/88 472/81/88 471/82/88
f 466/92/5 470/93/5 472/94/5 467/95/5
f 469/112/6 465/113/6 468/114/6 471/115/6
f 412/56/5 433/57/5 473/129/5 452/130/5
f 435/54/6 434/42/6 474/122/6 475/128/6
f 434/52/89 436/12/89 476/13/89 474/127/89
f 433/27/90 435/50/90 475/125/90 473/126/90
f 413/46/5 437/47/5 477/123/5 453/124/5
f 415/42/6 414/43/6 454/121/6 455/122/6
f 438/34/6 411/35/6 451/119/6 478/120/6
f 416/30/5 456/118/5 476/117/5 436/33/5
f 438/28/91 478/116/91 477/2/91 437/3/91
f 402/40/92 442/131/92 445/132/92 405/41/92
f 404/38/93 444/133/93 446/134/93 406/39/93
f 410/27/77 403/26/77 443/135/77 450/126/77
f 479/2/94 480/116/94 440/28/94 439/3/94
f 481/117/5 482/118/5 442/30/5 441/33/5
f 483/119/6 443/35/6 440/34/6 480/120/6
f 484/121/6 444/43/6 445/42/6 485/122/6
f 479/123/5 439/47/5 446/46/5 486/124/5
f 487/125/95 447/50/95 448/27/95 488/126/95
f 481/13/95 441/12/95 449/52/95 489/127/95
f 489/122/6 449/42/6 447/54/6 487/128/6
f 488/129/5 448/57/5 450/56/5 490/130/5
f 491/135/96 451/26/96 452/27/96 492/126/96
f 493/134/97 494/133/97 454/38/97 453/39/97
f 495/132/98 496/131/98 456/40/98 455/41/98
f 497/60/99 498/61/99 499/62/99 500/63/99
f 501/60/100 502/61/100 498/62/100 497/63/100
f 503/60/101 504/61/101 502/62/101 501/63/101
f 500/60/102 499/61/102 504/62/102 503/63/102
f 498/64/5 502/65/5 504/66/5 499/67/5
f 505/62/99 506/61/99 507/60/99 508/63/99
f 506/62/103 509/61/103 510/60/103 507/63/103
f 509/62/101 511/61/101 512/60/101 510/63/101
f 511/62/104 505/61/104 508/60/104 512/63/104
f 511/66/5 509/65/5 506/64/5 505/67/5
f 513/68/105 514/69/105 515/70/105 516/71/105
f 517/87/106 518/88/106 514/89/106 513/90/106
f 519/91/107 520/68/107 518/71/107 517/89/107
f 516/79/108 515/80/108 520/81/108 519/82/108
f 514/92/5 518/93/5 520/94/5 515/95/5
f 517/112/6 513/113/6 516/114/6 519/115/6
f 452/56/5 473/57/5 521/129/5 492/130/5
f 475/54/6 474/42/6 522/122/6 523/128/6
f 474/52/109 476/12/109 524/13/109 522/127/109
f 473/27/96 475/50/96 523/125/96 521/126/96
f 453/46/5 477/47/5 525/123/5 493/124/5
f 455/42/6 454/43/6 494/121/6 495/122/6
f 478/34/6 451/35/6 491/119/6 526/120/6
f 456/30/5 496/118/5 524/117/5 476/33/5
f 478/28/97 526/116/97 525/2/97 477/3/97
f 442/40/110 482/131/110 485/132/110 445/41/110
f 444/38/102 484/133/102 486/134/102 446/39/102
f 450/27/95 443/26/95 483/135/95 490/126/95
f 527/2/111 528/116/111 480/28/111 479/3/111
f 529/117/5 530/118/5 482/30/5 481/33/5
f 531/119/6 483/35/6 480/34/6 528/120/6
f 532/121/6 484/43/6 485/42/6 533/122/6
f 527/123/5 479/47/5 486/46/5 534/124/5
f 535/125/112 487/50/112 488/27/112 536/126/112
f 529/13/112 481/12/112 489/52/112 537/127/112
f 537/122/6 489/42/6 487/54/6 535/128/6
f 536/129/5 488/57/5 490/56/5 538/130/5
f 539/135/113 491/26/113 492/27/113 540/126/113
f 541/134/114 542/133/114 494/38/114 493/39/114
f 543/132/115 544/131/115 496/40/115 495/41/115
f 545/60/116 546/61/116 547/62/116 548/63/116
f 549/60/117 550/61/117 546/62/117 545/63/117
f 551/60/118 552/61/118 550/62/118 549/63/118
f 548/60/119 547/61/119 552/62/119 551/63/119
f 546/64/5 550/65/5 552/66/5 547/67/5
f 553/62/116 554/61/116 555/60/116 556/63/116
f 554/62/120 557/61/120 558/60/120 555/63/120
f 557/62/118 559/61/118 560/60/118 558/63/118
f 559/62/121 553/61/121 556/60/121 560/63/121
f 559/66/5 557/65/5 554/64/5 553/67/5
f 561/68/122 562/69/122 563/70/122 564/71/122
f 565/87/123 566/88/123 562/89/123 561/90/123
f 567/91/124 568/68/124 566/71/124 565/89/124
f 564/79/125 563/80/125 568/81/125 567/82/125
f 562/92/5 566/93/5 568/94/5 563/95/5
f 565/112/6 561/113/6 564/114/6 567/115/6
f 492/56/5 521/57/5 569/129/5 540/130/5
f 523/54/6 522/42/6 570/122/6 571/128/6
f 522/52/126 524/12/126 572/13/126 570/127/126
f 521/27/126 523/50/126 571/125/126 569/126/126
f 493/46/5 525/47/5 573/123/5 541/124/5
f 495/42/6 494/43/6 542/121/6 543/122/6
f 526/34/6 491/35/6 539/119/6 574/120/6
f 496/30/5 544/118/5 572/117/5 524/33/5
f 526/28/127 574/116/127 573/2/127 525/3/127
f 482/40/111 530/131/111 533/132/111 485/41/111
f 484/38/128 532/133/128 534/134/128 486/39/128
f 490/27/112 483/26/112 531/135/112 538/126/112
f 575/2/129 576/116/129 528/28/129 527/3/129
f 577/117/5 578/118/5 530/30/5 529/33/5
f 579/119/6 531/35/6 528/34/6 576/120/6
f 580/121/6 532/43/6 533/42/6 581/122/6
f 575/123/5 527/47/5 534/46/5 582/124/5
f 583/125/130 535/50/130 536/27/130 584/126/130
f 577/13/130 529/12/130 537/52/130 585/127/130
f 585/122/6 537/42/6 535/54/6 583/128/6
f 584/129/5 536/57/5 538/56/5 586/130/5
f 587/136/4 588/136/4 589/136/4 590/136/4
f 590/136/4 591/136/4 592/136/4 587/136/4
f 593/136/4 594/136/4 595/136/4 596/136/4
f 593/136/4 597/136/4 598/136/4 594/136/4
f 597/136/4 593/136/4 590/136/4 589/136/4
f 599/62/131 600/61/131 601/60/131 602/63/131
f 600/62/132 603/61/132 604/60/132 601/63/132
f 603/62/133 605/61/133 606/60/133 604/63/133
f 605/62/134 599/61/134 602/60/134 606/63/134
f 605/66/5 603/65/5 600/64/5 599/67/5
f 607/68/135 608/69/135 609/70/135 610/71/135
f 611/87/136 612/88/136 608/89/136 607/90/136
f 613/91/137 614/68/137 612/71/137 611/89/137
f 610/79/138 609/80/138 614/81/138 613/82/138
f 608/92/5 612/93/5 614/94/5 609/95/5
f 611/112/6 607/113/6 610/114/6 613/115/6
f 530/40/139 578/131/139 581/132/139 533/41/139
f 532/38/140 580/133/140 582/134/140 534/39/140
f 538/27/130 531/26/130 579/135/130 586/126/130
f 615/2/141 616/116/141 576/28/141 575/3/141
f 617/117/5 618/118/5 578/30/5 577/33/5
f 619/119/6 579/35/6 576/34/6 616/120/6
f 620/121/6 580/43/6 581/42/6 621/122/6
f 615/123/5 575/47/5 582/46/5 622/124/5
f 623/125/142 583/50/142 584/27/142 624/126/142
f 617/13/142 577/12/142 585/52/142 625/127/142
f 625/122/6 585/42/6 583/54/6 623/128/6
f 624/129/5 584/57/5 586/56/5 626/130/5
f 627/135/143 628/26/143 629/27/143 630/126/143
f 631/134/144 632/133/144 633/38/144 634/39/144
f 635/132/144 636/131/144 637/40/144 638/41/144
f 639/60/145 640/61/145 641/62/145 642/63/145
f 643/60/146 644/61/146 640/62/146 639/63/146
f 645/60/147 646/61/147 644/62/147 643/63/147
f 642/60/148 641/61/148 646/62/148 645/63/148
f 640/64/5 644/65/5 646/66/5 641/67/5
f 647/62/149 648/61/149 649/60/149 650/63/149
f 648/62/150 651/61/150 652/60/150 649/63/150
f 651/62/147 653/61/147 654/60/147 652/63/147
f 653/62/151 647/61/151 650/60/151 654/63/151
f 653/66/5 651/65/5 648/64/5 647/67/5
f 655/68/152 656/69/152 657/70/152 658/71/152
f 659/87/153 660/88/153 656/89/153 655/90/153
f 661/91/154 662/68/154 660/71/154 659/89/154
f 658/79/155 657/80/155 662/81/155 661/82/155
f 656/92/5 660/93/5 662/94/5 657/95/5
f 659/112/6 655/113/6 658/114/6 661/115/6
f 629/56/5 663/57/5 664/129/5 630/130/5
f 665/54/6 666/42/6 667/122/6 668/128/6
f 666/52/156 669/12/156 670/13/156 667/127/156
f 663/27/143 665/50/143 668/125/143 664/126/143
f 634/46/5 671/47/5 672/123/5 631/124/5
f 638/42/6 633/43/6 632/121/6 635/122/6
f 673/34/6 628/35/6 627/119/6 674/120/6
f 637/30/5 636/118/5 670/117/5 669/33/5
f 673/28/157 674/116/157 672/2/157 671/3/157
f 578/40/158 618/131/158 621/132/158 581/41/158
f 580/38/159 620/133/159 622/134/159 582/39/159
f 586/27/142 579/26/142 619/135/142 626/126/142
f 675/2/160 676/116/160 616/28/160 615/3/160
f 677/117/5 678/118/5 618/30/5 617/33/5
f 679/119/6 619/35/6 616/34/6 676/120/6
f 680/121/6 620/43/6 621/42/6 681/122/6
f 675/123/5 615/47/5 622/46/5 682/124/5
f 683/125/161 623/50/161 624/27/161 684/126/161
f 677/13/162 617/12/162 625/52/162 685/127/162
f 685/122/6 625/42/6 623/54/6 683/128/6
f 684/129/5 624/57/5 626/56/5 686/130/5
f 687/135/163 627/26/163 630/27/163 688/126/163
f 689/134/164 690/133/164 632/38/164 631/39/164
f 691/132/165 692/131/165 636/40/165 635/41/165
f 693/60/166 694/61/166 695/62/166 696/63/166
f 697/60/167 698/61/167 694/62/167 693/63/167
f 699/60/168 700/61/168 698/62/168 697/63/168
f 696/60/169 695/61/169 700/62/169 699/63/169
f 694/64/5 698/65/5 700/66/5 695/67/5
f 701/62/166 702/61/166 703/60/166 704/63/166
f 702/62/170 705/61/170 706/60/170 703/63/170
f 705/62/168 707/61/168 708/60/168 706/63/168
f 707/62/171 701/61/171 704/60/171 708/63/171
f 707/66/5 705/65/5 702/64/5 701/67/5
f 709/68/172 710/69/172 711/70/172 712/71/172
f 713/87/173 714/88/173 710/89/173 709/90/173
f 715/91/174 716/68/174 714/71/174 713/89/174
f 712/79/175 711/80/175 716/81/175 715/82/175
f 710/92/5 714/93/5 716/94/5 711/95/5
f 713/112/6 709/113/6 712/114/6 715/115/6
f 630/56/5 664/57/5 717/129/5 688/130/5
f 668/54/6 667/42/6 718/122/6 719/128/6
f 667/52/176 670/12/176 720/13/176 718/127/176
f 664/27/176 668/50/176 719/125/176 717/126/176
f 631/46/5 672/47/5 721/123/5 689/124/5
f 635/42/6 632/43/6 690/121/6 691/122/6
f 674/34/6 627/35/6 687/119/6 722/120/6
f 636/30/5 692/118/5 720/117/5 670/33/5
f 674/28/164 722/116/164 721/2/164 672/3/164
f 618/40/177 678/131/177 681/132/177 621/41/177
f 620/38/178 680/133/178 682/134/178 622/39/178
f 626/27/162 619/26/162 679/135/162 686/126/162
f 723/2/179 724/116/179 676/28/179 675/3/179
f 725/117/5 726/118/5 678/30/5 677/33/5
f 727/119/6 679/35/6 676/34/6 724/120/6
f 728/121/6 680/43/6 681/42/6 729/122/6
f 723/123/5 675/47/5 682/46/5 730/124/5
f 731/125/180 683/50/180 684/27/180 732/126/180
f 725/13/180 677/12/180 685/52/180 733/127/180
f 733/122/6 685/42/6 683/54/6 731/128/6
f 732/129/5 684/57/5 686/56/5 734/130/5
f 735/135/181 687/26/181 688/27/181 736/126/181
f 737/134/182 738/133/182 690/38/182 689/39/182
f 739/132/182 740/131/182 692/40/182 691/41/182
f 741/60/183 742/61/183 743/62/183 744/63/183
f 745/60/184 746/61/184 742/62/184 741/63/184
f 747/60/185 748/61/185 746/62/185 745/63/185
f 744/60/186 743/61/186 748/62/186 747/63/186
f 742/64/5 746/65/5 748/66/5 743/67/5
f 749/62/187 750/61/187 751/60/187 752/63/187
f 750/62/188 753/61/188 754/60/188 751/63/188
f 753/62/189 755/61/189 756/60/189 754/63/189
f 755/62/190 749/61/190 752/60/190 756/63/190
f 755/66/5 753/65/5 750/64/5 749/67/5
f 757/68/191 758/69/191 759/70/191 760/71/191
f 761/87/192 762/88/192 758/89/192 757/90/192
f 763/91/193 764/68/193 762/71/193 761/89/193
f 760/79/194 759/80/194 764/81/194 763/82/194
f 758/92/5 762/93/5 764/94/5 759/95/5
f 761/112/6 757/113/6 760/114/6 763/115/6
f 688/56/5 717/57/5 765/129/5 736/130/5
f 719/54/6 718/42/6 766/122/6 767/128/6
f 718/52/195 720/12/195 768/13/195 766/127/195
f 717/27/196 719/50/196 767/125/196 765/126/196
f 689/46/5 721/47/5 769/123/5 737/124/5
f 691/42/6 690/43/6 738/121/6 739/122/6
f 722/34/6 687/35/6 735/119/6 770/120/6
f 692/30/5 740/118/5 768/117/5 720/33/5
f 722/28/182 770/116/182 769/2/182 721/3/182
f 678/40/179 726/131/179 729/132/179 681/41/179
f 680/38/197 728/133/197 730/134/197 682/39/197
f 686/27/180 679/26/180 727/135/180 734/126/180
f 771/2/198 772/116/198 724/28/198 723/3/198
f 773/117/5 774/118/5 726/30/5 725/33/5
f 775/119/6 727/35/6 724/34/6 772/120/6
f 776/121/6 728/43/6 729/42/6 777/122/6
f 771/123/5 723/47/5 730/46/5 778/124/5
f 779/125/199 731/50/199 732/27/199 780/126/199
f 773/13/199 725/12/199 733/52/199 781/127/199
f 781/122/6 733/42/6 731/54/6 779/128/6
f 780/129/5 732/57/5 734/56/5 782/130/5
f 783/135/200 735/26/200 736/27/200 784/126/200
f 785/134/201 786/133/201 738/38/201 737/39/201
f 787/132/202 788/131/202 740/40/202 739/41/202
f 789/60/203 790/61/203 791/62/203 792/63/203
f 793/60/204 794/61/204 790/62/204 789/63/204
f 795/60/205 796/61/205 794/62/205 793/63/205
f 792/60/206 791/61/206 796/62/206 795/63/206
f 790/64/5 794/65/5 796/66/5 791/67/5
f 797/62/203 798/61/203 799/60/203 800/63/203
f 798/62/207 801/61/207 802/60/207 799/63/207
f 801/62/205 803/61/205 804/60/205 802/63/205
f 803/62/208 797/61/208 800/60/208 804/63/208
f 803/66/5 801/65/5 798/64/5 797/67/5
f 805/68/209 806/69/209 807/70/209 808/71/209
f 809/87/210 810/88/210 806/89/210 805/90/210
f 811/91/211 812/68/211 810/71/211 809/89/211
f 808/79/212 807/80/212 812/81/212 811/82/212
f 806/92/5 810/93/5 812/94/5 807/95/5
f 809/112/6 805/113/6 808/114/6 811/115/6
f 736/56/5 765/57/5 813/129/5 784/130/5
f 767/54/6 766/42/6 814/122/6 815/128/6
f 766/52/213 768/12/213 816/13/213 814/127/213
f 765/27/213 767/50/213 815/125/213 813/126/213
f 737/46/5 769/47/5 817/123/5 785/124/5
f 739/42/6 738/43/6 786/121/6 787/122/6
f 770/34/6 735/35/6 783/119/6 818/120/6
f 740/30/5 788/118/5 816/117/5 768/33/5
f 770/28/201 818/116/201 817/2/201 769/3/201
f 726/40/198 774/131/198 777/132/198 729/41/198
f 728/38/214 776/133/214 778/134/214 730/39/214
f 734/27/199 727/26/199 775/135/199 782/126/199
f 819/2/215 820/116/215 772/28/215 771/3/215
f 821/117/216 822/118/216 774/30/5 773/33/5
f 823/119/217 775/35/6 772/34/6 820/120/217
f 824/121/217 776/43/6 777/42/6 825/122/217
f 819/123/216 771/47/5 778/46/5 826/124/216
f 827/125/218 779/50/218 780/27/218 828/126/218
f 821/13/218 773/12/218 781/52/218 829/127/218
f 829/122/217 781/42/6 779/54/6 827/128/217
f 828/129/216 780/57/5 782/56/5 830/130/216
f 831/135/219 783/26/219 784/27/219 832/126/219
f 833/134/220 834/133/220 786/38/220 785/39/220
f 835/132/221 836/131/221 788/40/221 787/41/221
f 837/60/222 838/61/222 839/62/222 840/63/222
f 841/60/223 842/61/223 838/62/223 837/63/223
f 843/60/224 844/61/224 842/62/224 841/63/224
f 840/60/225 839/61/225 844/62/225 843/63/225
f 838/64/5 842/65/5 844/66/5 839/67/5
f 845/62/222 846/61/222 847/60/222 848/63/222
f 846/62/226 849/61/226 850/60/226 847/63/226
f 849/62/224 851/61/224 852/60/224 850/63/224
f 851/62/223 845/61/223 848/60/223 852/63/223
f 851/66/5 849/65/5 846/64/5 845/67/5
f 853/68/227 854/69/227 855/70/227 856/71/227
f 857/87/223 858/88/223 854/89/223 853/90/223
f 859/91/228 860/68/228 858/71/228 857/89/228
f 856/79/225 855/80/225 860/81/225 859/82/225
f 854/92/5 858/93/5 860/94/5 855/95/5
f 857/112/6 853/113/6 856/114/6 859/115/6
f 784/56/5 813/57/5 861/129/5 832/130/5
f 815/54/6 814/42/6 862/122/6 863/128/6
f 814/52/229 816/12/229 864/13/229 862/127/229
f 813/27/229 815/50/229 863/125/229 861/126/229
f 785/46/5 817/47/5 865/123/5 833/124/5
f 787/42/6 786/43/6 834/121/6 835/122/6
f 818/34/6 783/35/6 831/119/6 866/120/6
f 788/30/5 836/118/5 864/117/5 816/33/5
f 818/28/220 866/116/220 865/2/220 817/3/220
f 774/40/230 822/131/230 825/132/230 777/41/230
f 776/38/231 824/133/231 826/134/231 778/39/231
f 782/27/218 775/26/218 823/135/218 830/126/218
f 867/2/232 868/116/232 820/28/232 819/3/232
f 869/117/233 870/118/233 822/30/216 821/33/216
f 871/119/234 823/35/217 820/34/217 868/120/234
f 872/121/234 824/43/217 825/42/217 873/122/234
f 867/123/235 819/47/216 826/46/216 874/124/235
f 875/125/236 827/50/236 828/27/236 876/126/236
f 869/13/237 821/12/237 829/52/237 877/127/237
f 877/122/234 829/42/217 827/54/217 875/128/234
f 876/129/233 828/57/216 830/56/216 878/130/233
f 879/135/238 831/26/238 832/27/238 880/126/238
f 881/134/239 882/133/239 834/38/239 833/39/239
f 883/132/240 884/131/240 836/40/240 835/41/240
f 885/60/241 886/61/241 887/62/241 888/63/241
f 889/60/242 890/61/242 886/62/242 885/63/242
f 891/60/243 892/61/243 890/62/243 889/63/243
f 888/60/244 887/61/244 892/62/244 891/63/244
f 886/64/5 890/65/5 892/66/5 887/67/5
f 893/62/241 894/61/241 895/60/241 896/63/241
f 894/62/245 897/61/245 898/60/245 895/63/245
f 897/62/243 899/61/243 900/60/243 898/63/243
f 899/62/246 893/61/246 896/60/246 900/63/246
f 899/66/5 897/65/5 894/64/5 893/67/5
f 901/68/247 902/69/247 903/70/247 904/71/247
f 905/87/248 906/88/248 902/89/248 901/90/248
f 907/91/249 908/68/249 906/71/249 905/89/249
f 904/79/250 903/80/250 908/81/250 907/82/250
f 902/92/5 906/93/5 908/94/5 903/95/5
f 905/112/6 901/113/6 904/114/6 907/115/6
f 832/56/5 861/57/5 909/129/5 880/130/5
f 863/54/6 862/42/6 910/122/6 911/128/6
f 862/52/238 864/12/238 912/13/238 910/127/238
f 861/27/238 863/50/238 911/125/238 909/126/238
f 833/46/5 865/47/5 913/123/5 881/124/5
f 835/42/6 834/43/6 882/121/6 883/122/6
f 866/34/6 831/35/6 879/119/6 914/120/6
f 836/30/5 884/118/5 912/117/5 864/33/5
f 866/28/239 914/116/239 913/2/239 865/3/239
f 822/40/251 870/131/251 873/132/251 825/41/251
f 824/38/252 872/133/252 874/134/252 826/39/252
f 830/27/237 823/26/237 871/135/237 878/126/237
f 880/5/253 909/5/253 914/5/253 879/5/253
f 270/3/14 269/34/14 276/26/14 289/56/14
f 6/58/5 915/137/5 1/138/5 4/59/5
f 916/139/5 917/140/254 918/141/254 919/142/5
f 917/140/254 920/129/255 921/130/255 918/141/254
f 14/45/6 922/143/6 923/144/6 9/55/6
f 924/145/6 925/146/256 926/147/256 927/148/6
f 925/146/256 928/122/257 929/128/257 926/147/256
f 13/41/1 930/132/1 922/149/1 14/53/1
f 931/150/1 932/151/1 925/152/1 924/153/1
f 932/151/258 933/13/258 928/127/258 925/152/258
f 9/51/1 923/154/1 915/1/1 6/4/1
f 927/155/1 926/156/1 917/157/1 916/158/1
f 926/156/258 929/125/258 920/126/258 917/157/258
f 8/48/5 934/159/5 16/160/5 5/49/5
f 935/161/5 936/162/259 937/163/260 938/164/5
f 936/162/259 939/123/261 940/124/261 937/163/260
f 10/44/6 15/165/6 18/143/6 11/45/6
f 941/166/6 942/167/256 943/146/256 944/145/6
f 942/167/256 945/121/257 946/122/257 943/146/256
f 947/131/262 948/168/262 943/169/262 946/132/262
f 595/170/3 17/10/3 18/13/3 596/171/3
f 945/133/262 942/172/262 937/173/262 940/134/262
f 593/174/3 15/6/3 16/9/3 590/175/3
f 3/36/6 2/176/6 949/177/6 7/37/6
f 950/178/6 951/179/256 952/180/256 953/181/6
f 951/179/256 954/119/257 955/120/257 952/180/256
f 13/32/5 12/31/5 17/182/5 930/183/5
f 931/184/5 956/185/5 948/186/254 932/187/254
f 932/187/254 948/186/254 947/118/255 933/117/255
f 8/26/3 7/29/3 949/188/3 934/135/3
f 935/189/3 953/190/3 952/191/3 936/192/3
f 936/192/263 952/191/263 955/116/263 939/2/263
f 921/126/258 954/135/258 951/193/258 918/157/258
f 588/194/1 587/195/1 2/2/1 1/1/1
f 918/157/1 951/193/1 950/196/1 919/158/1
f 919/158/1 950/196/1 957/197/1 958/198/1
f 934/135/3 949/188/3 592/199/3 591/200/3
f 959/201/3 960/202/3 953/190/3 935/189/3
f 930/183/5 17/182/5 595/203/5 594/204/5
f 961/205/5 962/206/5 956/185/5 931/184/5
f 2/176/6 587/207/6 592/208/6 949/177/6
f 957/209/6 950/178/6 953/181/6 960/210/6
f 942/172/3 941/211/3 938/212/3 937/173/3
f 941/211/3 963/213/3 964/214/3 938/212/3
f 948/168/3 956/215/3 944/216/3 943/169/3
f 956/215/3 962/217/3 965/218/3 944/216/3
f 15/165/6 593/219/6 596/220/6 18/143/6
f 963/221/6 941/166/6 944/145/6 965/222/6
f 934/159/5 591/223/5 590/224/5 16/160/5
f 959/225/5 935/161/5 938/164/5 964/226/5
f 923/154/1 597/227/1 589/194/1 915/1/1
f 966/228/1 927/155/1 916/158/1 967/198/1
f 930/132/1 594/229/1 598/230/1 922/149/1
f 961/231/1 931/150/1 924/153/1 968/232/1
f 922/143/6 598/220/6 597/233/6 923/144/6
f 968/222/6 924/145/6 927/148/6 966/234/6
f 915/137/5 589/235/5 588/236/5 1/138/5
f 967/237/5 916/139/5 919/142/5 958/238/5
f 962/5/2 961/5/2 968/5/2 966/5/2
f 962/5/2 966/5/2 963/5/2 965/5/2
f 958/5/2 957/5/2 964/5/2 967/5/2
f 960/5/2 959/5/2 964/5/2 957/5/2
f 964/5/2 963/5/2 966/5/2 967/5/2
f 569/5/264 574/5/264 539/5/264 540/5/264
f 573/5/265 574/5/265 569/5/266 541/5/265
f 542/5/267 541/5/265 569/5/266 571/5/268
f 542/5/267 571/5/268 544/5/269 543/5/270
f 570/5/271 572/5/271 544/5/269 571/5/268
f 871/5/272 868/5/272 876/5/272 878/5/272
f 868/5/273 867/5/273 874/5/273 876/5/273
f 913/5/272 914/5/272 909/5/272 881/5/272
f 911/5/274 882/5/275 881/5/272 909/5/272
f 876/5/272 874/5/272 872/5/272 875/5/272
f 875/5/276 870/5/276 869/5/276 877/5/276
f 912/5/277 884/5/278 911/5/274 910/5/277
f 883/5/279 882/5/275 911/5/274 884/5/278
f 873/5/280 870/5/280 875/5/280 872/5/280
f 969/62/4 970/61/4 971/60/4 972/63/4
f 970/62/3 973/61/3 974/60/3 971/63/3
f 973/62/2 975/61/2 976/60/2 974/63/2
f 975/62/1 969/61/1 972/60/1 976/63/1
f 975/66/5 973/65/5 970/64/5 969/67/5
f 361/239/281 360/239/281 397/239/281 387/239/281
f 366/239/282 387/239/283 397/239/284 395/239/284
f 389/239/285 387/239/283 366/239/282 365/239/286
f 365/239/286 370/239/287 369/239/288 389/239/285
f 390/239/289 389/239/285 369/239/288 393/239/289
f 920/239/290 955/239/291 954/239/4 921/239/4
f 939/239/292 955/239/291 920/239/290 940/239/293
f 920/239/290 929/239/4 945/239/4 940/239/293
f 945/239/4 933/239/4 947/239/4 946/239/4
f 928/239/4 933/239/4 945/239/4 929/239/4
f 977/60/294 978/61/294 979/62/294 980/63/294
f 981/60/295 982/61/295 978/62/295 977/63/295
f 983/60/296 984/61/296 982/62/296 981/63/296
f 980/60/297 979/61/297 984/62/297 983/63/297
f 978/64/5 982/65/5 984/66/5 979/67/5
