# Blender 5.0.1
# www.blender.org
mtllib track_switch_medium_45degree_inactive_left1.mtl
o right_off_track_normal.001
v -0.360477 0.041289 -1.750000
v -0.360477 0.025803 -1.750000
v -0.360477 0.025803 -2.500000
v -0.360477 0.041289 -2.500000
v -0.318222 0.041289 -2.500000
v -0.342732 0.041289 -2.500000
v -0.300477 0.025803 -2.500000
v -0.300477 0.041289 -2.500000
v -0.342732 0.071584 -2.500000
v -0.318222 0.071584 -2.500000
v -0.308588 0.071584 -2.500000
v -0.308588 0.085803 -2.500000
v -0.352366 0.085803 -2.500000
v -0.352366 0.071584 -2.500000
v -0.318222 0.071584 -1.750000
v -0.318222 0.041289 -1.750000
v -0.308588 0.085803 -1.750000
v -0.308588 0.071584 -1.750000
v 0.308588 0.071584 0.500000
v 0.308588 0.085803 0.500000
v 0.342732 0.071584 0.500000
v 0.318222 0.071584 0.500000
v 0.352366 0.085803 0.500000
v 0.352366 0.071584 0.500000
v 0.360477 0.041289 0.500000
v 0.360477 0.025803 0.500000
v 0.318222 0.041289 0.500000
v 0.342732 0.041289 0.500000
v 0.300477 0.025803 0.500000
v 0.300477 0.041289 0.500000
v 0.360477 0.025803 -2.500000
v 0.360477 0.041289 -2.500000
v 0.300477 0.025803 -2.500000
v 0.318222 0.041289 -2.500000
v 0.300477 0.041289 -2.500000
v 0.342732 0.041289 -2.500000
v 0.352366 0.071584 -2.500000
v 0.352366 0.085803 -2.500000
v 0.318222 0.071584 -2.500000
v 0.342732 0.071584 -2.500000
v 0.308588 0.085803 -2.500000
v 0.308588 0.071584 -2.500000
v 0.287867 -0.025279 0.140000
v 0.287867 0.054721 0.140000
v 0.317867 0.054721 0.140000
v 0.317867 -0.025279 0.140000
v 0.287867 -0.025279 0.110000
v 0.287867 0.054721 0.110000
v 0.317867 -0.025279 0.110000
v 0.317867 0.054721 0.110000
v 0.287867 -0.025279 -0.110000
v 0.287867 0.054721 -0.110000
v 0.317867 0.054721 -0.110000
v 0.317867 -0.025279 -0.110000
v 0.287867 -0.025279 -0.140000
v 0.287867 0.054721 -0.140000
v 0.317867 -0.025279 -0.140000
v 0.317867 0.054721 -0.140000
v 0.287867 -0.025279 -0.360000
v 0.287867 0.054721 -0.360000
v 0.317867 0.054721 -0.360000
v 0.317867 -0.025279 -0.360000
v 0.287867 -0.025279 -0.390000
v 0.287867 0.054721 -0.390000
v 0.317867 -0.025279 -0.390000
v 0.317867 0.054721 -0.390000
v -0.470000 -0.030000 -0.305000
v -0.470000 0.030000 -0.305000
v 0.470000 0.030000 -0.305000
v 0.470000 -0.030000 -0.305000
v -0.470000 -0.030000 -0.445000
v -0.470000 0.030000 -0.445000
v 0.470000 -0.030000 -0.445000
v 0.470000 0.030000 -0.445000
v -0.470000 -0.030000 -0.055000
v -0.470000 0.030000 -0.055000
v 0.470000 0.030000 -0.055000
v 0.470000 -0.030000 -0.055000
v -0.470000 -0.030000 -0.195000
v -0.470000 0.030000 -0.195000
v 0.470000 -0.030000 -0.195000
v 0.470000 0.030000 -0.195000
v -0.470000 -0.030000 0.195000
v -0.470000 0.030000 0.195000
v 0.470000 0.030000 0.195000
v 0.470000 -0.030000 0.195000
v -0.470000 -0.030000 0.055000
v -0.470000 0.030000 0.055000
v 0.470000 -0.030000 0.055000
v 0.470000 0.030000 0.055000
v -0.470000 -0.030000 0.445000
v -0.470000 0.030000 0.445000
v 0.470000 0.030000 0.445000
v 0.470000 -0.030000 0.445000
v -0.470000 -0.030000 0.305000
v -0.470000 0.030000 0.305000
v 0.470000 -0.030000 0.305000
v 0.470000 0.030000 0.305000
v 0.287867 -0.025279 -0.610000
v 0.287867 0.054721 -0.610000
v 0.317867 0.054721 -0.610000
v 0.317867 -0.025279 -0.610000
v 0.287867 -0.025279 -0.640000
v 0.287867 0.054721 -0.640000
v 0.317867 -0.025279 -0.640000
v 0.317867 0.054721 -0.640000
v 0.287867 -0.025279 -0.860000
v 0.287867 0.054721 -0.860000
v 0.317867 0.054721 -0.860000
v 0.317867 -0.025279 -0.860000
v 0.287867 -0.025279 -0.890000
v 0.287867 0.054721 -0.890000
v 0.317867 -0.025279 -0.890000
v 0.317867 0.054721 -0.890000
v 0.287867 -0.025279 -1.110000
v 0.287867 0.054721 -1.110000
v 0.317867 0.054721 -1.110000
v 0.317867 -0.025279 -1.110000
v 0.287867 -0.025279 -1.140000
v 0.287867 0.054721 -1.140000
v 0.317867 -0.025279 -1.140000
v 0.317867 0.054721 -1.140000
v -0.317867 0.054721 -1.110000
v -0.287867 0.054721 -1.110000
v -0.287867 -0.025279 -1.110000
v -0.317867 -0.025279 -1.110000
v -0.287867 0.054721 -1.140000
v -0.287867 -0.025279 -1.140000
v -0.317867 0.054721 -1.140000
v -0.317867 -0.025279 -1.140000
v 0.287867 -0.025279 -1.360000
v 0.287867 0.054721 -1.360000
v 0.317867 0.054721 -1.360000
v 0.317867 -0.025279 -1.360000
v 0.287867 -0.025279 -1.390000
v 0.287867 0.054721 -1.390000
v 0.317867 -0.025279 -1.390000
v 0.317867 0.054721 -1.390000
v -0.470000 -0.030000 -1.305000
v -0.470000 0.030000 -1.305000
v 0.470000 0.030000 -1.305000
v 0.470000 -0.030000 -1.305000
v -0.470000 -0.030000 -1.445000
v -0.470000 0.030000 -1.445000
v 0.470000 -0.030000 -1.445000
v 0.470000 0.030000 -1.445000
v -0.470000 -0.030000 -1.055000
v -0.470000 0.030000 -1.055000
v 0.470000 0.030000 -1.055000
v 0.470000 -0.030000 -1.055000
v -0.470000 -0.030000 -1.195000
v -0.470000 0.030000 -1.195000
v 0.470000 -0.030000 -1.195000
v 0.470000 0.030000 -1.195000
v -0.470000 -0.030000 -0.805000
v -0.470000 0.030000 -0.805000
v 0.470000 0.030000 -0.805000
v 0.470000 -0.030000 -0.805000
v -0.470000 -0.030000 -0.945000
v -0.470000 0.030000 -0.945000
v 0.470000 -0.030000 -0.945000
v 0.470000 0.030000 -0.945000
v -0.470000 -0.030000 -0.555000
v -0.470000 0.030000 -0.555000
v 0.470000 0.030000 -0.555000
v 0.470000 -0.030000 -0.555000
v -0.470000 -0.030000 -0.695000
v -0.470000 0.030000 -0.695000
v 0.470000 -0.030000 -0.695000
v 0.470000 0.030000 -0.695000
v 0.287867 -0.025279 -1.610000
v 0.287867 0.054721 -1.610000
v 0.317867 0.054721 -1.610000
v 0.317867 -0.025279 -1.610000
v 0.287867 -0.025279 -1.640000
v 0.287867 0.054721 -1.640000
v 0.317867 -0.025279 -1.640000
v 0.317867 0.054721 -1.640000
v -0.317867 0.054721 -1.610000
v -0.287867 0.054721 -1.610000
v -0.287867 -0.025279 -1.610000
v -0.317867 -0.025279 -1.610000
v -0.287867 0.054721 -1.640000
v -0.287867 -0.025279 -1.640000
v -0.317867 0.054721 -1.640000
v -0.317867 -0.025279 -1.640000
v 0.287867 -0.025279 -1.860000
v 0.287867 0.054721 -1.860000
v 0.317867 0.054721 -1.860000
v 0.317867 -0.025279 -1.860000
v 0.287867 -0.025279 -1.890000
v 0.287867 0.054721 -1.890000
v 0.317867 -0.025279 -1.890000
v 0.317867 0.054721 -1.890000
v -0.317867 0.054721 -1.860000
v -0.287867 0.054721 -1.860000
v -0.287867 -0.025279 -1.860000
v -0.317867 -0.025279 -1.860000
v -0.287867 0.054721 -1.890000
v -0.287867 -0.025279 -1.890000
v -0.317867 0.054721 -1.890000
v -0.317867 -0.025279 -1.890000
v 0.287867 -0.025279 -2.110000
v 0.287867 0.054721 -2.110000
v 0.317867 0.054721 -2.110000
v 0.317867 -0.025279 -2.110000
v 0.287867 -0.025279 -2.140000
v 0.287867 0.054721 -2.140000
v 0.317867 -0.025279 -2.140000
v 0.317867 0.054721 -2.140000
v -0.317867 0.054721 -2.110000
v -0.287867 0.054721 -2.110000
v -0.287867 -0.025279 -2.110000
v -0.317867 -0.025279 -2.110000
v -0.287867 0.054721 -2.140000
v -0.287867 -0.025279 -2.140000
v -0.317867 0.054721 -2.140000
v -0.317867 -0.025279 -2.140000
v 0.287867 -0.025279 -2.360000
v 0.287867 0.054721 -2.360000
v 0.317867 0.054721 -2.360000
v 0.317867 -0.025279 -2.360000
v 0.287867 -0.025279 -2.390000
v 0.287867 0.054721 -2.390000
v 0.317867 -0.025279 -2.390000
v 0.317867 0.054721 -2.390000
v -0.317867 0.054721 -2.360000
v -0.287867 0.054721 -2.360000
v -0.287867 -0.025279 -2.360000
v -0.317867 -0.025279 -2.360000
v -0.287867 0.054721 -2.390000
v -0.287867 -0.025279 -2.390000
v -0.317867 0.054721 -2.390000
v -0.317867 -0.025279 -2.390000
v -0.470000 -0.030000 -2.305000
v -0.470000 0.030000 -2.305000
v 0.470000 0.030000 -2.305000
v 0.470000 -0.030000 -2.305000
v -0.470000 -0.030000 -2.445000
v -0.470000 0.030000 -2.445000
v 0.470000 -0.030000 -2.445000
v 0.470000 0.030000 -2.445000
v -0.470000 -0.030000 -2.055000
v -0.470000 0.030000 -2.055000
v 0.470000 0.030000 -2.055000
v 0.470000 -0.030000 -2.055000
v -0.470000 -0.030000 -2.195000
v -0.470000 0.030000 -2.195000
v 0.470000 -0.030000 -2.195000
v 0.470000 0.030000 -2.195000
v -0.470000 -0.030000 -1.805000
v -0.470000 0.030000 -1.805000
v 0.470000 0.030000 -1.805000
v 0.470000 -0.030000 -1.805000
v -0.470000 -0.030000 -1.945000
v -0.470000 0.030000 -1.945000
v 0.470000 -0.030000 -1.945000
v 0.470000 0.030000 -1.945000
v -0.470000 -0.030000 -1.555000
v -0.470000 0.030000 -1.555000
v 0.470000 0.030000 -1.555000
v 0.470000 -0.030000 -1.555000
v -0.470000 -0.030000 -1.695000
v -0.470000 0.030000 -1.695000
v 0.470000 -0.030000 -1.695000
v 0.470000 0.030000 -1.695000
v -0.302141 0.040830 0.279838
v -0.302127 0.025344 0.280561
v -0.299367 0.025344 0.500611
v -0.299367 0.040830 0.500611
v -0.353973 0.085343 0.282127
v -0.310243 0.085343 0.280196
v -0.307478 0.085343 0.500598
v -0.351256 0.085343 0.500531
v -0.362078 0.025344 0.282374
v -0.359367 0.025344 0.500518
v -0.319858 0.071124 0.281092
v -0.317111 0.071124 0.500583
v -0.307478 0.071124 0.500598
v -0.310232 0.071124 0.280804
v -0.317111 0.040830 0.500583
v -0.319858 0.040830 0.281092
v -0.344347 0.071124 0.281833
v -0.341622 0.071124 0.500545
v -0.341622 0.040830 0.500545
v -0.344347 0.040830 0.281833
v -0.351256 0.071124 0.500531
v -0.353973 0.071124 0.282127
v -0.359367 0.040830 0.500518
v -0.362078 0.040830 0.282374
v 0.286855 -0.025739 0.402302
v 0.286855 0.054262 0.402302
v 0.316855 0.054262 0.402348
v 0.316855 -0.025739 0.402348
v 0.286211 -0.025739 0.370640
v 0.286211 0.054262 0.370640
v 0.316211 -0.025739 0.370513
v 0.316211 0.054262 0.370513
v -0.318878 0.054262 0.401365
v -0.288878 0.054262 0.401412
v -0.288878 -0.025739 0.401412
v -0.318878 -0.025739 0.401365
v -0.289518 0.054262 0.373078
v -0.289518 -0.025739 0.373078
v -0.319517 0.054262 0.373205
v -0.319517 -0.025739 0.373205
v -0.318351 0.040830 0.076127
v -0.318271 0.025344 0.076848
v -0.369797 0.085343 0.082848
v -0.326393 0.085343 0.077177
v -0.377852 0.025344 0.083788
v -0.335893 0.071124 0.078896
v -0.326326 0.071124 0.077784
v -0.335893 0.040830 0.078896
v -0.360231 0.071124 0.081731
v -0.360231 0.040830 0.081731
v -0.369797 0.071124 0.082848
v -0.377852 0.040830 0.083788
v -0.351834 0.040830 -0.126595
v -0.351689 0.025344 -0.125880
v -0.402551 0.085343 -0.115658
v -0.359762 0.085343 -0.124886
v -0.410502 0.025344 -0.114058
v -0.369084 0.071124 -0.122388
v -0.359640 0.071124 -0.124283
v -0.369084 0.040830 -0.122388
v -0.393108 0.071124 -0.117558
v -0.393108 0.040830 -0.117558
v -0.402551 0.071124 -0.115658
v -0.410502 0.040830 -0.114058
v -0.348318 0.054262 -0.004538
v -0.318722 0.054262 -0.009445
v -0.318722 -0.025739 -0.009445
v -0.348318 -0.025739 -0.004538
v -0.322898 0.054262 -0.036040
v -0.322898 -0.025739 -0.036040
v -0.352439 0.054262 -0.030811
v -0.352439 -0.025739 -0.030811
v -0.491218 -0.030460 0.065505
v -0.491218 0.029540 0.065505
v 0.438998 0.029540 -0.069756
v 0.438998 -0.030460 -0.069756
v -0.511087 -0.030460 -0.049346
v -0.511087 0.029540 -0.049346
v 0.411150 -0.030460 -0.231216
v 0.411150 0.029540 -0.231216
v -0.401787 0.040830 -0.327441
v -0.401579 0.025344 -0.326735
v -0.451499 0.085343 -0.312591
v -0.409558 0.085343 -0.325120
v -0.459303 0.025344 -0.310378
v -0.418652 0.071124 -0.321901
v -0.409383 0.071124 -0.324525
v -0.418652 0.040830 -0.321901
v -0.442231 0.071124 -0.315219
v -0.442231 0.040830 -0.315219
v -0.451499 0.071124 -0.312591
v -0.459303 0.040830 -0.310378
v 0.187930 0.024782 -0.503887
v 0.213885 0.023419 -0.097643
v 0.206673 0.039698 -0.098846
v 0.187930 0.040268 -0.503887
v 0.146568 0.040268 -0.491933
v 0.146562 0.070562 -0.491934
v 0.165339 0.069992 -0.090092
v 0.165339 0.039698 -0.090092
v 0.137167 0.070562 -0.489368
v 0.137215 0.084781 -0.489208
v 0.155914 0.084211 -0.088096
v 0.155880 0.069992 -0.088261
v -0.388261 0.054262 -0.205155
v -0.359158 0.054262 -0.212433
v -0.359158 -0.025739 -0.212433
v -0.388261 -0.025739 -0.205155
v -0.365704 0.054262 -0.238748
v -0.365705 -0.025739 -0.238748
v -0.394732 0.054262 -0.231172
v -0.394732 -0.025739 -0.231172
v -0.524571 -0.030460 -0.123343
v -0.524571 0.029540 -0.123343
v 0.391463 0.029540 -0.334245
v 0.391463 -0.030460 -0.334246
v -0.554026 -0.030460 -0.237576
v -0.554026 0.029540 -0.237576
v 0.350962 -0.030460 -0.491729
v 0.350962 0.029540 -0.491729
v 0.189402 0.039698 -0.094746
v 0.170709 0.040268 -0.498455
v 0.189402 0.069992 -0.094746
v 0.198860 0.069992 -0.096574
v 0.180101 0.070562 -0.501017
v 0.170709 0.070562 -0.498455
v 0.198860 0.084211 -0.096574
v 0.180173 0.084781 -0.501017
v 0.147919 0.039698 -0.086719
v 0.129202 0.040268 -0.487209
v 0.155131 0.023419 -0.085516
v 0.129202 0.024782 -0.487209
v -0.467099 0.040830 -0.525648
v -0.466832 0.025344 -0.524955
v -0.515606 0.085343 -0.507238
v -0.474682 0.085343 -0.522771
v -0.523231 0.025344 -0.504467
v -0.483513 0.071124 -0.518899
v -0.474456 0.071124 -0.522187
v -0.483513 0.040830 -0.518899
v -0.506551 0.071124 -0.510529
v -0.506551 0.040830 -0.510529
v -0.515606 0.071124 -0.507238
v -0.523231 0.040830 -0.504467
v 0.146788 0.025344 -0.749233
v 0.147067 0.040830 -0.749233
v 0.106587 0.040830 -0.734365
v 0.106669 0.071124 -0.734365
v 0.097527 0.071124 -0.731130
v 0.097575 0.085343 -0.730975
v -0.444135 0.054262 -0.403703
v -0.415666 0.054262 -0.413164
v -0.415666 -0.025739 -0.413163
v -0.444135 -0.025739 -0.403702
v -0.424477 0.054262 -0.439061
v -0.424477 -0.025739 -0.439061
v -0.452855 0.054262 -0.429331
v -0.452855 -0.025739 -0.429331
v -0.573740 -0.030460 -0.311197
v -0.573740 0.029540 -0.311197
v 0.323343 0.029540 -0.591984
v 0.323343 -0.030460 -0.591984
v -0.611806 -0.030460 -0.424511
v -0.611806 0.029540 -0.424511
v 0.271959 -0.030460 -0.744757
v 0.271959 0.029540 -0.744757
v 0.130432 0.040830 -0.742592
v 0.139564 0.071124 -0.745824
v 0.130432 0.071124 -0.742592
v 0.139332 0.085343 -0.745824
v 0.089703 0.040830 -0.728407
v 0.089703 0.025344 -0.728407
v -0.546455 0.040830 -0.720629
v -0.546132 0.025344 -0.719951
v -0.593626 0.085343 -0.699024
v -0.553828 0.085343 -0.717252
v -0.601050 0.025344 -0.695751
v -0.562375 0.071124 -0.712797
v -0.553556 0.071124 -0.716681
v -0.562375 0.040830 -0.712797
v -0.584808 0.071124 -0.702911
v -0.584808 0.040830 -0.702911
v -0.593626 0.071124 -0.699024
v -0.601050 0.040830 -0.695751
v 0.059358 0.025344 -0.985343
v 0.059358 0.040830 -0.985343
v 0.020894 0.040830 -0.967859
v 0.020894 0.071124 -0.967859
v 0.012053 0.071124 -0.964021
v 0.012124 0.085343 -0.963872
v -0.514760 0.054262 -0.599504
v -0.487025 0.054262 -0.610938
v -0.487025 -0.025739 -0.610938
v -0.514760 -0.025739 -0.599504
v -0.497961 0.054262 -0.636296
v -0.497961 -0.025739 -0.636296
v -0.525598 0.054262 -0.624624
v -0.525598 -0.025739 -0.624624
v -0.637936 -0.030460 -0.497373
v -0.637936 0.029540 -0.497373
v 0.236843 0.029540 -0.841408
v 0.236843 -0.030460 -0.841408
v -0.684607 -0.030460 -0.609308
v -0.684607 0.029540 -0.609308
v 0.175456 -0.030460 -0.988635
v 0.175456 0.029540 -0.988635
v 0.043386 0.040830 -0.977619
v 0.052227 0.071124 -0.981455
v 0.043386 0.071124 -0.977619
v 0.052227 0.085343 -0.981455
v 0.004612 0.040830 -0.960790
v 0.004612 0.025344 -0.960790
v -0.639274 0.040830 -0.911661
v -0.638926 0.025344 -0.910991
v -0.685047 0.085343 -0.887235
v -0.646429 0.085343 -0.907843
v -0.692257 0.025344 -0.883520
v -0.654700 0.071124 -0.902870
v -0.646136 0.071124 -0.907279
v -0.654700 0.040830 -0.902870
v -0.676485 0.071124 -0.891648
v -0.676485 0.040830 -0.891648
v -0.685047 0.071124 -0.887235
v -0.692257 0.040830 -0.883520
v -0.050889 0.025344 -1.212561
v -0.050889 0.040830 -1.212562
v -0.088219 0.040830 -1.192771
v -0.088219 0.071124 -1.192771
v -0.096806 0.071124 -1.188403
v -0.096730 0.085343 -1.188258
v -0.055539 -0.025739 -1.058075
v -0.055539 0.054262 -1.058075
v -0.028594 0.054262 -1.071264
v -0.028594 -0.025739 -1.071264
v -0.069696 -0.025739 -1.087228
v -0.069696 0.054262 -1.087228
v -0.042858 -0.025739 -1.100633
v -0.042858 0.054262 -1.100633
v -0.599597 0.054262 -0.791777
v -0.572651 0.054262 -0.804965
v -0.572651 -0.025739 -0.804965
v -0.599597 -0.025739 -0.791777
v -0.584756 0.054262 -0.829968
v -0.584757 -0.025739 -0.829968
v -0.611595 0.054262 -0.816563
v -0.611595 -0.025739 -0.816563
v -0.715595 -0.030460 -0.681376
v -0.715595 0.029540 -0.681376
v 0.134766 0.029540 -1.081982
v 0.134766 -0.030460 -1.081982
v -0.770143 -0.030460 -0.791626
v -0.770143 0.029540 -0.791626
v 0.064788 -0.030460 -1.223469
v 0.064788 0.029540 -1.223469
v -0.066372 0.040830 -1.203878
v -0.057784 0.071124 -1.208243
v -0.066372 0.071124 -1.203878
v -0.057784 0.085343 -1.208243
v -0.104034 0.040830 -1.184727
v -0.104034 0.025344 -1.184727
v -0.743948 0.040830 -1.098449
v -0.743551 0.025344 -1.097798
v -0.788309 0.085343 -1.071543
v -0.750882 0.085343 -1.094243
v -0.795306 0.025344 -1.067437
v -0.758859 0.071124 -1.088821
v -0.750548 0.071124 -1.093694
v -0.758859 0.040830 -1.088821
v -0.780000 0.071124 -1.076419
v -0.780000 0.040830 -1.076419
v -0.788309 0.071124 -1.071543
v -0.795306 0.040830 -1.067437
v -0.172936 0.025344 -1.431404
v -0.172936 0.040830 -1.431404
v -0.209114 0.040830 -1.409579
v -0.209115 0.071124 -1.409579
v -0.217448 0.071124 -1.404742
v -0.217364 0.085343 -1.404603
v -0.169425 -0.025739 -1.277639
v -0.169425 0.054262 -1.277639
v -0.143293 0.054262 -1.292375
v -0.143293 -0.025739 -1.292375
v -0.185259 -0.025739 -1.305663
v -0.185259 0.054262 -1.305663
v -0.159235 -0.025739 -1.320588
v -0.159235 0.054262 -1.320588
v -0.697052 0.054262 -0.980110
v -0.670920 0.054262 -0.994846
v -0.670920 -0.025739 -0.994846
v -0.697052 -0.025739 -0.980110
v -0.684691 0.054262 -1.019242
v -0.684691 -0.025739 -1.019242
v -0.710715 0.054262 -1.004318
v -0.710715 -0.025739 -1.004318
v -0.805464 -0.030460 -0.862792
v -0.805464 0.029540 -0.862792
v 0.019390 0.029540 -1.313586
v 0.019390 -0.030460 -1.313586
v -0.867118 -0.030460 -0.971135
v -0.867118 0.029540 -0.971135
v -0.057889 -0.030460 -1.449410
v -0.057889 0.029540 -1.449410
v -0.187913 0.040830 -1.421883
v -0.179579 0.071124 -1.426718
v -0.187912 0.071124 -1.421883
v -0.179579 0.085343 -1.426718
v -0.224463 0.040830 -1.400670
v -0.224463 0.025344 -1.400670
v -0.858475 0.040830 -1.281164
v -0.858034 0.025344 -1.280534
v -0.901434 0.085343 -1.252072
v -0.865190 0.085343 -1.276617
v -0.908219 0.025344 -1.247621
v -0.872878 0.071124 -1.270802
v -0.864819 0.071124 -1.276086
v -0.872878 0.040830 -1.270802
v -0.893377 0.071124 -1.257358
v -0.893377 0.040830 -1.257358
v -0.901434 0.071124 -1.252072
v -0.908219 0.040830 -1.247621
v -0.360477 0.025803 -1.608078
v -0.360477 0.041289 -1.608078
v -0.342732 0.041289 -1.608078
v -0.318222 0.041289 -1.608078
v -0.300477 0.041289 -1.608078
v -0.300477 0.025803 -1.608078
v -0.318222 0.071584 -1.608078
v -0.352366 0.085803 -1.608078
v -0.308588 0.085803 -1.608078
v -0.308588 0.071584 -1.608078
v -0.342732 0.071584 -1.608078
v -0.352366 0.071584 -1.608078
v -0.805162 0.054262 -1.164520
v -0.779849 0.054262 -1.180620
v -0.779849 -0.025739 -1.180620
v -0.805162 -0.025739 -1.164520
v -0.795330 0.054262 -1.204262
v -0.795330 -0.025739 -1.204262
v -0.820540 0.054262 -1.188000
v -0.820540 -0.025739 -1.188000
v -0.907463 -0.030460 -1.040892
v -0.907463 0.029540 -1.040892
v -0.108167 0.029540 -1.535588
v -0.108167 -0.030460 -1.535588
v -0.975573 -0.030460 -1.147105
v -0.975573 0.029540 -1.147105
v -0.191689 -0.030460 -1.665875
v -0.191689 0.029540 -1.665875
v -0.983253 0.040830 -1.458951
v -0.982792 0.025344 -1.458332
v -1.024864 0.085343 -1.427962
v -0.989757 0.085343 -1.454107
v -1.031441 0.025344 -1.423214
v -0.997182 0.071124 -1.447948
v -0.989369 0.071124 -1.453585
v -0.997182 0.040830 -1.447948
v -1.017054 0.071124 -1.433602
v -1.017054 0.040830 -1.433602
v -1.024864 0.071124 -1.427962
v -1.031441 0.040830 -1.423214
v -0.446489 0.025344 -1.844630
v -0.304940 0.025344 -1.642305
v -0.304940 0.040830 -1.642305
v -0.446489 0.040830 -1.844630
v -0.480424 0.040830 -1.819461
v -0.480425 0.071124 -1.819461
v -0.339975 0.071124 -1.618690
v -0.339975 0.040830 -1.618690
v -0.488258 0.071124 -1.813851
v -0.488162 0.085343 -1.813722
v -0.347964 0.085343 -1.613305
v -0.348053 0.071124 -1.613441
v -0.428888 -0.025739 -1.693403
v -0.428888 0.054262 -1.693403
v -0.404370 0.054262 -1.710692
v -0.404371 -0.025739 -1.710692
v -0.447127 -0.025739 -1.719492
v -0.447127 0.054262 -1.719492
v -0.422714 -0.025739 -1.736927
v -0.422714 0.054262 -1.736927
v -0.923919 0.054262 -1.344322
v -0.899402 0.054262 -1.361610
v -0.899402 -0.025739 -1.361610
v -0.923919 -0.025739 -1.344322
v -0.915643 0.054262 -1.384884
v -0.915643 -0.025739 -1.384884
v -0.940057 0.054262 -1.367449
v -0.940057 -0.025739 -1.367449
v -1.019596 -0.030460 -1.215636
v -1.019596 0.029540 -1.215636
v -0.245482 0.029540 -1.748878
v -0.245482 -0.030460 -1.748878
v -1.093371 -0.030460 -1.319666
v -1.093371 0.029540 -1.319666
v -0.334234 -0.030460 -1.874021
v -0.334234 0.029540 -1.874020
v -0.319426 0.040830 -1.632041
v -0.460495 0.040830 -1.833731
v -0.319426 0.071124 -1.632041
v -0.311348 0.071124 -1.637289
v -0.452661 0.071124 -1.839339
v -0.460495 0.071124 -1.833731
v -0.311348 0.085343 -1.637289
v -0.452661 0.085343 -1.839339
v -0.354852 0.040830 -1.609022
v -0.494852 0.040830 -1.809129
v -0.354852 0.025344 -1.609022
v -0.494852 0.025344 -1.809129
v -1.115501 0.040830 -1.632738
v -1.115004 0.025344 -1.632141
v -1.155808 0.085343 -1.600070
v -1.121802 0.085343 -1.627632
v -1.162187 0.025344 -1.595057
v -1.128960 0.071124 -1.621175
v -1.121383 0.071124 -1.627128
v -1.128960 0.040830 -1.621175
v -1.148233 0.071124 -1.606026
v -1.148233 0.040830 -1.606026
v -1.155809 0.071124 -1.600071
v -1.162187 0.040830 -1.595057
v -0.595028 0.025344 -2.040134
v -0.595028 0.040830 -2.040134
v -0.627899 0.040830 -2.013590
v -0.627899 0.071124 -2.013590
v -0.635494 0.071124 -2.007663
v -0.635394 0.085343 -2.007537
v -0.571718 -0.025739 -1.890139
v -0.571718 0.054262 -1.890139
v -0.547972 0.054262 -1.908473
v -0.547972 -0.025739 -1.908473
v -0.591264 -0.025739 -1.914986
v -0.591264 0.054262 -1.914986
v -0.567615 -0.025739 -1.933445
v -0.567615 0.054262 -1.933445
v -1.051166 0.054262 -1.519946
v -1.027421 0.054262 -1.538280
v -1.027421 -0.025739 -1.538280
v -1.051166 -0.025739 -1.519946
v -1.045114 0.054262 -1.560741
v -1.045114 -0.025739 -1.560741
v -1.068763 0.054262 -1.542282
v -1.068763 -0.025739 -1.542282
v -1.140925 -0.030460 -1.386833
v -1.140925 0.029540 -1.386833
v -0.391212 0.029540 -1.953867
v -0.391212 -0.030460 -1.953867
v -1.220027 -0.030460 -1.488490
v -1.220027 0.029540 -1.488490
v -0.484625 -0.030460 -2.073965
v -0.484625 0.029540 -2.073965
v -0.608578 0.040830 -2.028666
v -0.600984 0.071124 -2.034590
v -0.608578 0.071124 -2.028666
v -0.600984 0.085343 -2.034590
v -0.641886 0.040830 -2.002674
v -0.641886 0.025344 -2.002674
v -1.255899 0.040830 -1.801637
v -1.255386 0.025344 -1.801049
v -1.294979 0.085343 -1.767510
v -1.262008 0.085343 -1.796302
v -1.301169 0.025344 -1.762267
v -1.268927 0.071124 -1.789581
v -1.261575 0.071124 -1.795807
v -1.268927 0.040830 -1.789581
v -1.287629 0.071124 -1.773738
v -1.287629 0.040830 -1.773739
v -1.294979 0.071124 -1.767510
v -1.301169 0.040830 -1.762267
v -0.750767 0.025344 -2.227944
v -0.750767 0.040830 -2.227944
v -0.782636 0.040830 -2.200204
v -0.782637 0.071124 -2.200204
v -0.790008 0.071124 -2.193998
v -0.789903 0.085343 -2.193879
v -0.722051 -0.025739 -2.079639
v -0.722051 0.054262 -2.079639
v -0.699039 0.054262 -2.098886
v -0.699039 -0.025739 -2.098886
v -0.742206 -0.025739 -2.103868
v -0.742206 0.054262 -2.103868
v -0.719290 -0.025739 -2.123228
v -0.719290 0.054262 -2.123228
v -1.186680 0.054262 -1.691008
v -1.163669 0.054262 -1.710256
v -1.163669 -0.025739 -1.710256
v -1.186680 -0.025739 -1.691008
v -1.182008 0.054262 -1.732325
v -1.182008 -0.025739 -1.732325
v -1.204925 0.054262 -1.712965
v -1.204925 -0.025739 -1.712965
v -1.270784 -0.030460 -1.554214
v -1.270784 0.029540 -1.554214
v -0.544365 0.029540 -2.150799
v -0.544365 -0.030460 -2.150799
v -1.354250 -0.030460 -1.653690
v -1.354250 0.029540 -1.653690
v -0.641502 -0.030460 -2.266544
v -0.641502 0.029540 -2.266544
v -0.763883 0.040830 -2.215989
v -0.756511 0.071124 -2.222193
v -0.763883 0.071124 -2.215989
v -0.756511 0.085343 -2.222193
v -0.796213 0.040830 -2.188775
v -0.796213 0.025344 -2.188775
v -1.402263 0.040830 -1.966641
v -1.401734 0.025344 -1.966064
v -1.440173 0.085343 -1.931219
v -1.408189 0.085343 -1.961104
v -1.446182 0.025344 -1.925772
v -1.414881 0.071124 -1.954149
v -1.407743 0.071124 -1.960618
v -1.414881 0.040830 -1.954149
v -1.433037 0.071124 -1.937690
v -1.433037 0.040830 -1.937690
v -1.440173 0.071124 -1.931219
v -1.446182 0.040830 -1.925772
v -0.911854 0.025344 -2.409659
v -0.911854 0.040830 -2.409659
v -0.942769 0.040830 -2.380860
v -0.942769 0.071124 -2.380860
v -0.949926 0.071124 -2.374410
v -0.949818 0.085343 -2.374293
v -0.878245 -0.025739 -2.263063
v -0.878245 0.054262 -2.263063
v -0.855935 0.054262 -2.283119
v -0.855935 -0.025739 -2.283119
v -0.899444 -0.025739 -2.286133
v -0.899444 0.054262 -2.286133
v -0.877219 -0.025739 -2.306284
v -0.877219 0.054262 -2.306284
v -1.328723 0.054262 -1.858114
v -1.306412 0.054262 -1.878170
v -1.306412 -0.025739 -1.878170
v -1.328723 -0.025739 -1.858114
v -1.325961 0.054262 -1.899413
v -1.325961 -0.025739 -1.899413
v -1.348186 0.054262 -1.879262
v -1.348186 -0.025739 -1.879262
v -1.407994 -0.030460 -1.717907
v -1.407994 0.029540 -1.717907
v -0.703717 0.029540 -2.340477
v -0.703717 -0.030460 -2.340477
v -1.495758 -0.030460 -1.814976
v -1.495758 0.029540 -1.814976
v -0.804353 -0.030460 -2.451810
v -0.804353 0.029540 -2.451810
v -0.924562 0.040830 -2.397267
v -0.917406 0.071124 -2.403716
v -0.924562 0.071124 -2.397267
v -0.917406 0.085343 -2.403716
v -0.955950 0.040830 -2.368981
v -0.955950 0.025344 -2.368981
v -1.554666 0.040830 -2.127342
v -1.554107 0.025344 -2.126788
v -1.591475 0.085343 -2.090779
v -1.560419 0.085343 -2.121627
v -1.597318 0.025344 -2.085150
v -1.566888 0.071124 -2.114475
v -1.559948 0.071124 -2.121159
v -1.566888 0.040830 -2.114475
v -1.584538 0.071124 -2.097466
v -1.584538 0.040830 -2.097466
v -1.591476 0.071124 -2.090779
v -1.597318 0.040830 -2.085150
v -1.077953 0.025347 -2.585294
v -1.077953 0.040833 -2.585294
v -1.107969 0.040831 -2.555558
v -1.107969 0.071125 -2.555558
v -1.114925 0.071125 -2.548888
v -1.114813 0.085345 -2.548778
v -1.040441 -0.025739 -2.439784
v -1.040441 0.054262 -2.439784
v -1.018786 0.054262 -2.460545
v -1.018786 -0.025739 -2.460545
v -1.062124 -0.025739 -2.462287
v -1.062124 0.054262 -2.462287
v -1.040551 -0.025739 -2.483135
v -1.040551 0.054262 -2.483135
v -1.477691 0.054262 -2.020587
v -1.456036 0.054262 -2.041348
v -1.456036 -0.025739 -2.041348
v -1.477691 -0.025739 -2.020587
v -1.476125 0.054262 -2.062197
v -1.476125 -0.025739 -2.062197
v -1.497698 0.054262 -2.041349
v -1.497698 -0.025739 -2.041349
v -1.551589 -0.030460 -1.878053
v -1.551589 0.029540 -1.878053
v -0.868310 0.029540 -2.523597
v -0.868310 -0.030460 -2.523597
v -1.642987 -0.030460 -1.972903
v -1.642987 0.029540 -1.972903
v -0.971844 -0.030457 -2.631057
v -0.971844 0.029543 -2.631057
v -1.090272 0.040831 -2.572523
v -1.083317 0.071125 -2.579190
v -1.090272 0.071125 -2.572523
v -1.083317 0.085345 -2.579190
v -1.120780 0.040830 -2.543275
v -1.120780 0.025344 -2.543275
v -1.718059 0.041289 -2.293112
v -1.717481 0.025803 -2.292539
v -1.754213 0.085802 -2.255900
v -1.723710 0.085802 -2.287296
v -1.759956 0.025803 -2.250173
v -1.730043 0.071583 -2.280009
v -1.723222 0.071583 -2.286812
v -1.730043 0.041289 -2.280009
v -1.747394 0.071583 -2.262704
v -1.747394 0.041289 -2.262704
v -1.754213 0.071583 -2.255901
v -1.759956 0.041289 -2.250173
v -1.251101 0.025346 -2.759856
v -1.251101 0.040832 -2.759856
v -1.280542 0.040832 -2.729553
v -1.280542 0.071126 -2.729553
v -1.287363 0.071126 -2.722749
v -1.287255 0.085345 -2.722643
v -1.207129 -0.025736 -2.611241
v -1.207129 0.054265 -2.611241
v -1.186095 0.054265 -2.632632
v -1.186095 -0.025736 -2.632632
v -1.229263 -0.025736 -2.633201
v -1.229263 0.054265 -2.633201
v -1.208310 -0.025736 -2.654672
v -1.208310 0.054265 -2.654672
v -1.631810 0.054262 -2.179316
v -1.610777 0.054262 -2.200707
v -1.610777 -0.025739 -2.200707
v -1.631810 -0.025739 -2.179316
v -1.631371 0.054262 -2.221159
v -1.631371 -0.025739 -2.221159
v -1.652324 0.054262 -2.199689
v -1.652324 -0.025739 -2.199689
v -1.701598 -0.030460 -2.034227
v -1.701598 0.029540 -2.034227
v -1.037976 0.029543 -2.699963
v -1.037976 -0.030457 -2.699963
v -1.796903 -0.030460 -2.128867
v -1.796903 0.029540 -2.128867
v -1.141886 -0.030457 -2.803071
v -1.141886 0.029543 -2.803071
v -1.263191 0.040832 -2.746860
v -1.256371 0.071126 -2.753662
v -1.263191 0.071126 -2.746860
v -1.256371 0.085345 -2.753662
v -1.293104 0.040832 -2.717023
v -1.293104 0.025346 -2.717023
v -0.342732 0.041289 -1.750000
v -0.342732 0.041289 -1.187500
v -0.342732 0.041289 -1.000000
v -0.360477 0.041289 -1.000000
v -0.360477 0.041289 -1.187500
v -0.342205 0.041614 -0.065666
v -0.359950 0.041614 -0.065666
v -0.352366 0.071584 -1.750000
v -0.342732 0.071584 -1.750000
v -0.352366 0.071584 -1.187500
v -0.352366 0.071584 -1.000000
v -0.342732 0.071584 -1.000000
v -0.342732 0.071584 -1.187500
v -0.351839 0.071909 -0.065666
v -0.342205 0.071909 -0.065666
v -0.352366 0.085803 -1.750000
v -0.352366 0.085803 -1.187500
v -0.352366 0.085803 -1.000000
v -0.351839 0.086128 -0.065666
v -0.300477 0.041289 -1.750000
v -0.300477 0.041289 -1.187500
v -0.300477 0.041289 -1.000000
v -0.318222 0.041289 -1.000000
v -0.318222 0.041289 -1.187500
v -0.299950 0.041614 -0.065666
v -0.317695 0.041614 -0.065666
v -0.318222 0.071584 -1.187500
v -0.318222 0.071584 -1.000000
v -0.308588 0.071584 -1.000000
v -0.308588 0.071584 -1.187500
v -0.317695 0.071909 -0.065666
v -0.308061 0.071909 -0.065666
v -0.308061 0.086128 -0.065666
v -0.308588 0.085803 -1.000000
v -0.300477 0.025803 -1.750000
v -0.360477 0.025803 -1.187500
v -0.360477 0.025803 -1.000000
v -0.300477 0.025803 -1.000000
v -0.300477 0.025803 -1.187500
v -0.359950 0.026128 -0.065666
v -0.299950 0.026128 -0.065666
v -0.308588 0.085803 -1.187500
v -0.360477 0.025803 -1.395000
v -0.360477 0.041289 -1.395000
v -0.300477 0.041289 -1.395000
v -0.300477 0.025803 -1.395000
v -0.352366 0.085803 -1.395000
v -0.308588 0.085803 -1.395000
v -0.318222 0.071584 -1.395000
v -0.318222 0.041289 -1.395000
v -0.308588 0.071584 -1.395000
v -0.342732 0.071584 -1.395000
v -0.342732 0.041289 -1.395000
v -0.352366 0.071584 -1.395000
v -0.317867 0.054721 -1.350000
v -0.287867 0.054721 -1.350000
v -0.287867 -0.025279 -1.350000
v -0.317867 -0.025279 -1.350000
v -0.287867 0.054721 -1.380000
v -0.287867 -0.025279 -1.380000
v -0.317867 0.054721 -1.380000
v -0.317867 -0.025279 -1.380000
v -0.322450 -0.025279 0.161405
v -0.322450 0.054721 0.161405
v -0.292633 0.054721 0.158097
v -0.292633 -0.025279 0.158097
v -0.325759 -0.025279 0.131588
v -0.325759 0.054721 0.131588
v -0.295942 -0.025279 0.128280
v -0.295942 0.054721 0.128280
vn -1.0000 -0.0000 -0.0000
vn -0.0000 -0.0000 -1.0000
vn 1.0000 -0.0000 -0.0000
vn -0.0000 -0.0000 1.0000
vn -0.0000 1.0000 -0.0000
vn -0.0000 -1.0000 -0.0000
vn 0.9999 0.0002 -0.0126
vn -0.9999 -0.0000 0.0125
vn -0.9999 -0.0000 0.0124
vn -0.0015 -0.0000 1.0000
vn -0.9998 -0.0000 0.0203
vn -0.0042 -0.0000 -1.0000
vn 0.9998 -0.0000 -0.0202
vn -0.0016 -0.0000 1.0000
vn 0.9997 -0.0000 -0.0226
vn -0.9997 -0.0000 0.0227
vn 0.9999 0.0001 -0.0125
vn 0.9999 -0.0000 -0.0125
vn 0.9969 -0.0007 -0.0792
vn -0.9969 -0.0000 0.0791
vn -0.9969 -0.0000 0.0792
vn 0.9969 -0.0006 -0.0792
vn 0.9969 -0.0000 -0.0791
vn 0.9867 -0.0004 -0.1628
vn -0.9867 -0.0000 0.1628
vn 0.1636 -0.0000 0.9865
vn 0.9879 -0.0000 -0.1551
vn -0.1743 -0.0000 -0.9847
vn -0.9879 -0.0000 0.1550
vn 0.1439 -0.0000 0.9896
vn -0.9854 -0.0000 0.1705
vn -0.1935 -0.0000 -0.9811
vn 0.9854 -0.0000 -0.1700
vn 0.9867 -0.0000 -0.1627
vn 0.9705 -0.0000 -0.2412
vn -0.9705 -0.0000 0.2412
vn 0.9883 0.1062 -0.1098
vn 0.9883 0.1059 -0.1100
vn 0.9742 0.2192 -0.0532
vn -0.9945 0.0006 0.1047
vn -0.9989 -0.0001 0.0467
vn -0.9945 0.0006 0.1049
vn -0.9945 0.0019 0.1047
vn -0.9989 0.0023 0.0466
vn -0.9946 0.0019 0.1040
vn 0.2426 -0.0000 0.9701
vn 0.9704 -0.0000 -0.2414
vn -0.2525 -0.0000 -0.9676
vn -0.9704 -0.0000 0.2414
vn 0.2244 -0.0000 0.9745
vn -0.9683 -0.0000 0.2497
vn -0.2704 -0.0000 -0.9628
vn 0.9685 -0.0000 -0.2491
vn 0.0004 1.0000 0.0014
vn 0.0006 1.0000 0.0018
vn 0.0006 1.0000 0.0017
vn -0.0003 -1.0000 -0.0014
vn -0.0005 -1.0000 -0.0018
vn 0.9989 -0.0025 -0.0462
vn 0.9944 0.0015 -0.1052
vn 0.9944 0.0015 -0.1053
vn 0.9989 -0.0000 -0.0463
vn 0.9945 -0.0000 -0.1046
vn 0.9945 -0.0000 -0.1048
vn 0.0003 1.0000 0.0014
vn 0.0005 1.0000 0.0019
vn 0.0005 1.0000 0.0018
vn -0.0008 -1.0000 -0.0033
vn -0.0008 -1.0000 -0.0028
vn -0.0008 -1.0000 -0.0027
vn -0.9742 -0.2192 0.0537
vn -0.9880 -0.1103 0.1085
vn -0.9879 -0.1106 0.1084
vn 0.9705 -0.0000 -0.2411
vn 0.9498 0.0004 -0.3128
vn -0.9498 -0.0000 0.3128
vn 0.9863 -0.0089 -0.1648
vn -0.9867 0.0012 0.1625
vn -0.9868 0.0015 0.1618
vn 0.3154 -0.0000 0.9490
vn 0.9467 -0.0000 -0.3221
vn -0.3243 -0.0000 -0.9459
vn -0.9467 -0.0000 0.3221
vn 0.2987 -0.0000 0.9543
vn -0.9479 -0.0000 0.3184
vn -0.3407 -0.0000 -0.9402
vn 0.9478 -0.0000 -0.3188
vn 0.0004 1.0000 0.0010
vn 0.0004 1.0000 0.0012
vn -0.0004 -1.0000 -0.0011
vn -0.0003 -1.0000 -0.0010
vn 0.9865 0.0055 -0.1639
vn 0.9867 -0.0000 -0.1628
vn 0.0003 1.0000 0.0010
vn -0.0004 -1.0000 -0.0012
vn -0.9869 -0.0000 0.1616
vn 0.9498 -0.0000 -0.3127
vn 0.9263 0.0010 -0.3768
vn -0.9263 -0.0000 0.3768
vn 0.9376 -0.0084 -0.3477
vn -0.9387 0.0013 0.3447
vn -0.9388 0.0002 0.3445
vn 0.3811 -0.0000 0.9245
vn 0.9182 -0.0000 -0.3960
vn -0.3891 -0.0000 -0.9212
vn -0.9182 -0.0000 0.3961
vn 0.3660 -0.0000 0.9306
vn -0.9230 -0.0000 0.3848
vn -0.4035 -0.0000 -0.9150
vn 0.9230 -0.0000 -0.3848
vn 0.9378 0.0077 -0.3471
vn 0.9378 -0.0000 -0.3473
vn -0.9390 -0.0000 0.3438
vn 0.9263 0.0009 -0.3768
vn 0.9263 -0.0000 -0.3768
vn 0.8995 0.0005 -0.4370
vn -0.8995 -0.0000 0.4369
vn 0.8997 -0.0000 -0.4365
vn -0.8997 -0.0000 0.4365
vn -0.8997 0.0001 0.4365
vn 0.4396 -0.0000 0.8982
vn -0.8995 -0.0000 0.4368
vn -0.4468 -0.0000 -0.8946
vn 0.8995 -0.0000 -0.4369
vn 0.9001 -0.0000 -0.4358
vn -0.9001 -0.0000 0.4357
vn 0.4262 -0.0000 0.9046
vn -0.8963 -0.0000 0.4435
vn -0.4594 -0.0000 -0.8882
vn 0.8964 -0.0000 -0.4433
vn 0.8997 -0.0000 -0.4364
vn 0.8995 0.0004 -0.4370
vn 0.8724 0.0001 -0.4888
vn -0.8724 -0.0000 0.4888
vn 0.8734 -0.0000 -0.4871
vn -0.8734 -0.0000 0.4870
vn 0.4912 -0.0000 0.8711
vn -0.8706 -0.0000 0.4919
vn -0.4975 -0.0000 -0.8675
vn 0.8706 -0.0000 -0.4920
vn 0.8708 -0.0000 -0.4916
vn -0.8709 -0.0000 0.4915
vn 0.4796 -0.0000 0.8775
vn -0.8691 -0.0000 0.4946
vn -0.5088 -0.0000 -0.8609
vn 0.8692 -0.0000 -0.4945
vn 0.8734 -0.0000 -0.4869
vn -0.8734 -0.0000 0.4871
vn 0.8725 -0.0000 -0.4887
vn 0.8474 0.0010 -0.5310
vn -0.8474 -0.0000 0.5310
vn 0.5367 -0.0000 0.8438
vn 0.8366 -0.0000 -0.5478
vn -0.5421 -0.0000 -0.8403
vn -0.8365 -0.0000 0.5479
vn 0.5263 -0.0000 0.8503
vn -0.8418 -0.0000 0.5398
vn -0.5519 -0.0000 -0.8339
vn 0.8419 -0.0000 -0.5397
vn 0.8474 0.0008 -0.5310
vn 0.8474 -0.0000 -0.5309
vn 0.8186 0.0007 -0.5744
vn -0.8186 -0.0000 0.5744
vn 0.8194 -0.0000 -0.5732
vn -0.8194 -0.0000 0.5732
vn 0.5763 -0.0000 0.8172
vn -0.8196 -0.0000 0.5730
vn -0.5812 -0.0000 -0.8138
vn 0.8195 -0.0000 -0.5730
vn 0.5763 -0.0000 0.8173
vn 0.8201 -0.0000 -0.5723
vn -0.8201 -0.0000 0.5722
vn 0.5673 -0.0000 0.8235
vn -0.8157 -0.0000 0.5785
vn -0.5897 -0.0000 -0.8076
vn 0.8157 -0.0000 -0.5785
vn 0.8195 -0.0000 -0.5731
vn -0.8194 -0.0000 0.5733
vn 0.8186 0.0006 -0.5744
vn 0.8186 -0.0000 -0.5744
vn 0.7958 0.0008 -0.6055
vn -0.7959 -0.0000 0.6055
vn -0.7958 -0.0000 0.6055
vn 0.7962 -0.0000 -0.6050
vn -0.7963 -0.0000 0.6049
vn -0.7963 0.0001 0.6049
vn 0.6111 -0.0000 0.7915
vn -0.7860 -0.0000 0.6183
vn -0.6153 -0.0000 -0.7883
vn 0.7860 -0.0000 -0.6183
vn 0.7855 -0.0000 -0.6188
vn -0.7855 -0.0000 0.6188
vn 0.6032 -0.0000 0.7976
vn -0.7892 -0.0000 0.6141
vn -0.6228 -0.0000 -0.7823
vn 0.7893 -0.0000 -0.6140
vn 0.7963 -0.0000 -0.6049
vn 0.7958 0.0007 -0.6055
vn 0.7959 -0.0000 -0.6054
vn 0.7690 0.0006 -0.6392
vn -0.7690 -0.0000 0.6392
vn 0.7698 -0.0000 -0.6383
vn -0.7698 -0.0000 0.6383
vn 0.6416 -0.0000 0.7671
vn -0.7688 -0.0000 0.6395
vn -0.6454 -0.0000 -0.7639
vn 0.7687 -0.0000 -0.6396
vn 0.6416 -0.0000 0.7670
vn 0.7691 -0.0000 -0.6391
vn -0.6453 -0.0000 -0.7639
vn -0.7691 -0.0000 0.6391
vn 0.6347 -0.0000 0.7728
vn -0.7661 -0.0000 0.6428
vn -0.6520 -0.0000 -0.7582
vn 0.7660 -0.0000 -0.6428
vn 0.7699 -0.0000 -0.6382
vn 0.7698 -0.0000 -0.6382
vn 0.7691 -0.0000 -0.6392
vn 0.7481 0.0002 -0.6636
vn -0.7481 -0.0000 0.6635
vn 0.7483 -0.0000 -0.6634
vn -0.7483 -0.0000 0.6633
vn -0.7483 0.0001 0.6633
vn 0.6685 -0.0000 0.7437
vn -0.7363 -0.0000 0.6766
vn -0.6717 -0.0000 -0.7408
vn 0.7364 -0.0000 -0.6766
vn 0.7358 -0.0000 -0.6772
vn -0.7358 -0.0000 0.6772
vn 0.6623 -0.0000 0.7492
vn -0.7418 -0.0000 0.6707
vn -0.6775 -0.0000 -0.7355
vn 0.7418 -0.0000 -0.6706
vn 0.7483 -0.0000 -0.6633
vn 0.7482 -0.0000 -0.6635
vn 0.7257 0.0004 -0.6881
vn 0.0007 1.0000 0.0007
vn -0.0007 -1.0000 -0.0007
vn -0.7256 -0.0000 0.6881
vn 0.7266 -0.0000 -0.6871
vn -0.7266 -0.0000 0.6871
vn -0.7266 0.0001 0.6871
vn 0.6920 -0.0000 0.7219
vn -0.7201 -0.0000 0.6939
vn -0.6949 -0.0000 -0.7191
vn 0.7201 -0.0000 -0.6938
vn 0.7201 -0.0000 -0.6939
vn 0.6867 -0.0000 0.7269
vn -0.7002 -0.0000 -0.7140
vn 0.7266 -0.0000 -0.6870
vn 0.7256 0.0003 -0.6881
vn 0.7257 -0.0000 -0.6880
vn 0.7122 0.0006 -0.7020
vn 0.0014 1.0000 0.0014
vn -0.0014 -1.0000 -0.0014
vn 0.0014 1.0000 0.0013
vn -0.7122 -0.0000 0.7020
vn -0.7122 -0.0000 0.7019
vn 0.7100 -0.0000 -0.7042
vn -0.7100 -0.0000 0.7042
vn -0.7100 0.0001 0.7042
vn 0.7130 -0.0000 0.7011
vn -0.7043 -0.0000 0.7099
vn -0.7157 -0.0000 -0.6984
vn 0.7043 -0.0000 -0.7099
vn 0.7047 -0.0000 -0.7095
vn -0.7047 -0.0000 0.7095
vn 0.7082 -0.0000 0.7060
vn -0.7046 -0.0000 0.7096
vn -0.7172 -0.0000 -0.6968
vn 0.7044 -0.0000 -0.7098
vn 0.7122 0.0005 -0.7020
vn 0.7122 -0.0000 -0.7020
vn -0.7180 0.0233 -0.6957
vn -0.0000 1.0000 -0.0002
vn -0.0000 1.0000 -0.0003
vn -0.0000 -1.0000 0.0002
vn -0.0000 -1.0000 0.0003
vn -1.0000 -0.0000 0.0003
vn -1.0000 -0.0000 0.0006
vn 1.0000 -0.0000 -0.0006
vn 1.0000 -0.0000 -0.0003
vn -0.5177 0.0252 -0.8552
vn -0.5020 -0.0000 -0.8649
vn -0.5019 -0.0000 -0.8649
vn -0.5071 0.0077 -0.8618
vn -0.5082 0.0004 -0.8613
vn -0.5019 0.0115 -0.8648
vn -0.4980 0.0108 -0.8671
vn -0.5045 0.0021 -0.8634
vn -0.7062 -0.0000 -0.7080
vn -0.7195 -0.0220 -0.6941
vn -0.7110 0.0004 -0.7032
vn -0.7102 0.0071 -0.7040
vn -0.7152 -0.0086 -0.6988
vn -0.7082 0.0019 -0.7060
vn -0.7032 0.0100 -0.7109
vn -0.7062 0.0107 -0.7080
vn -0.7053 -0.0483 -0.7072
vn 0.2067 0.1385 0.9685
vn 0.1889 0.1036 0.9765
vn 0.1877 0.1549 0.9699
vn 0.1898 0.0337 0.9812
vn 0.1972 -0.0005 0.9804
vn 0.1961 -0.0080 0.9805
vn 0.1853 -0.0112 0.9826
vn 0.1899 -0.0119 0.9817
vn 0.1930 -0.0022 0.9812
vn 0.1103 -0.0000 0.9939
vn -0.9939 -0.0000 0.1103
vn -0.1103 -0.0000 -0.9939
vn 0.9939 -0.0000 -0.1103
vt 0.679406 0.062150
vt 0.905875 0.062150
vt 0.905875 0.048121
vt 0.679406 0.048121
vt 0.982037 0.022561
vt 0.226469 0.121202
vt 0.226469 0.093759
vt 0.000000 0.093759
vt 0.000000 0.121202
vt 0.226469 0.025761
vt 0.226469 0.012881
vt 0.000000 0.012881
vt 0.000000 0.025761
vt 0.949641 0.103062
vt 0.958243 0.103062
vt 0.980127 0.103062
vt 0.949641 0.115757
vt 0.988729 0.115757
vt 0.988729 0.103062
vt 0.995971 0.076013
vt 0.980127 0.076013
vt 0.958243 0.076013
vt 0.995971 0.062186
vt 0.942399 0.062186
vt 0.942399 0.076013
vt 0.000000 0.062150
vt 0.000000 0.048121
vt 0.905875 0.034093
vt 0.000000 0.034093
vt 0.906075 0.219937
vt 0.906075 0.259595
vt 0.000200 0.259595
vt 0.000200 0.219937
vt -0.000122 0.156096
vt 0.905753 0.156096
vt 0.905753 0.210448
vt -0.000122 0.210448
vt 0.905875 0.093759
vt 0.905875 0.121202
vt 0.905875 0.012881
vt 0.905875 0.025761
vt 0.000512 0.321630
vt 0.906387 0.321630
vt 0.906387 0.330358
vt 0.000512 0.330358
vt 0.906075 0.312903
vt 0.000200 0.312903
vt 0.000200 0.296828
vt 0.906075 0.296828
vt 0.905875 0.089593
vt 0.000000 0.089593
vt 0.000000 0.000000
vt 0.905875 0.000000
vt 0.000512 0.312903
vt 0.906387 0.312903
vt 0.906075 0.297453
vt 0.000200 0.297453
vt 0.000200 0.281378
vt 0.906075 0.281378
vt 0.999050 0.183297
vt 0.939310 0.183297
vt 0.939310 0.342604
vt 0.999050 0.342604
vt 0.985655 0.132863
vt 0.939081 0.132863
vt 0.939081 0.179437
vt 0.985655 0.179437
vt 0.979692 0.781451
vt -0.000781 0.781451
vt -0.000781 0.844034
vt 0.979692 0.844034
vt 0.146184 0.656284
vt 0.000156 0.656284
vt 0.000156 0.718868
vt 0.146184 0.718868
vt 0.980629 0.718868
vt 0.000156 0.781451
vt 0.980629 0.781451
vt 0.302823 0.656284
vt 0.156795 0.656284
vt 0.156795 0.718868
vt 0.302823 0.718868
vt 0.999534 0.505675
vt -0.000466 0.505675
vt -0.000466 0.654611
vt 0.999534 0.654611
vt 0.145247 0.656284
vt -0.000781 0.656284
vt -0.000781 0.718868
vt 0.145247 0.718868
vt 0.979692 0.718868
vt 1.000000 0.851064
vt 0.000000 0.851064
vt 0.000000 1.000000
vt 1.000000 1.000000
vt 0.999897 0.349106
vt -0.000103 0.349106
vt -0.000103 0.498042
vt 0.999897 0.498042
vt 0.998987 0.850355
vt 0.001647 0.850355
vt 0.001647 0.998895
vt 0.998987 0.998895
vt 0.998987 0.849509
vt 0.001647 0.849509
vt 0.001647 0.998049
vt 0.998987 0.998049
vt 0.997339 0.352016
vt 0.000000 0.352016
vt 0.000000 0.500556
vt 0.997339 0.500556
vt 0.998987 0.504118
vt 0.001647 0.504118
vt 0.001647 0.652658
vt 0.998987 0.652658
vt 0.679406 0.034093
vt 0.679606 0.259595
vt 0.679606 0.219937
vt 0.226347 0.210448
vt 0.226347 0.156096
vt 0.226981 0.330358
vt 0.226981 0.321630
vt 0.679606 0.296828
vt 0.679606 0.312903
vt 0.226469 0.089593
vt 0.226469 0.062150
vt 0.226469 0.000000
vt 0.226981 0.312903
vt 0.679606 0.281378
vt 0.679606 0.297453
vt 0.679406 0.012881
vt 0.679406 0.025761
vt 0.679406 0.093759
vt 0.679406 0.121202
vt 0.226469 0.048121
vt 0.415989 0.075507
vt 0.226669 0.297453
vt 0.226669 0.281378
vt 0.396520 0.281378
vt 0.396520 0.297453
vt 0.453137 0.297453
vt 0.453137 0.281378
vt 0.679918 0.312903
vt 0.679918 0.321630
vt 0.510067 0.321630
vt 0.510067 0.312903
vt 0.453449 0.312903
vt 0.453449 0.321630
vt 0.679406 0.000000
vt 0.509555 0.012881
vt 0.509555 0.000000
vt 0.452938 0.000000
vt 0.452938 0.012881
vt 0.679406 0.089593
vt 0.509555 0.089593
vt 0.509555 0.062150
vt 0.452938 0.062150
vt 0.452938 0.089593
vt 0.226669 0.312903
vt 0.226669 0.296828
vt 0.396520 0.296828
vt 0.396520 0.312903
vt 0.453137 0.312903
vt 0.453137 0.296828
vt 0.679918 0.330358
vt 0.510067 0.330358
vt 0.453449 0.330358
vt 0.452937 0.012881
vt 0.452937 0.025761
vt 0.283086 0.025761
vt 0.283086 0.012881
vt 0.452937 0.093759
vt 0.452937 0.121202
vt 0.283086 0.121202
vt 0.283086 0.093759
vt 0.679284 0.156096
vt 0.679284 0.210448
vt 0.509433 0.210448
vt 0.509433 0.156096
vt 0.452816 0.156096
vt 0.452816 0.210448
vt 0.226669 0.259595
vt 0.226669 0.219937
vt 0.396520 0.259595
vt 0.453137 0.259595
vt 0.453137 0.219937
vt 0.396520 0.219937
vt 0.226469 0.034093
vt 0.396320 0.048121
vt 0.452937 0.048121
vt 0.452937 0.034093
vt 0.396320 0.034093
vt 0.452938 0.048121
vt 0.622789 0.062150
vt 0.622789 0.048121
vt 0.509555 0.048121
vt 0.566172 0.062150
vt 0.566172 0.048121
vt 0.283086 0.048121
vt 0.283086 0.034093
vt 0.339703 0.048121
vt 0.339703 0.034093
vt 0.283286 0.259595
vt 0.283286 0.219937
vt 0.339903 0.259595
vt 0.339903 0.219937
vt 0.622667 0.156096
vt 0.622667 0.210448
vt 0.566050 0.210448
vt 0.566050 0.156096
vt 0.396320 0.093759
vt 0.396320 0.121202
vt 0.339703 0.093759
vt 0.339703 0.121202
vt 0.396320 0.012881
vt 0.396320 0.025761
vt 0.339703 0.012881
vt 0.339703 0.025761
vt 0.623301 0.321630
vt 0.623301 0.330358
vt 0.566684 0.330358
vt 0.566684 0.321630
vt 0.283286 0.312903
vt 0.283286 0.296828
vt 0.339903 0.296828
vt 0.339903 0.312903
vt 0.622789 0.089593
vt 0.566172 0.089593
vt 0.622789 0.000000
vt 0.622789 0.012881
vt 0.566172 0.012881
vt 0.566172 0.000000
vt 0.623301 0.312903
vt 0.566684 0.312903
vt 0.283286 0.297453
vt 0.283286 0.281378
vt 0.339903 0.281378
vt 0.339903 0.297453
vt 0.955240 0.109372
s 1
usemtl Default_OBJ.001
f 1/1/1 4/2/1 3/3/1 2/4/1
f 5/5/2 3/5/2 4/5/2 6/5/2
f 3/5/2 5/5/2 8/5/2 7/5/2
f 9/5/2 12/5/2 11/5/2 10/5/2
f 12/5/2 9/5/2 14/5/2 13/5/2
f 6/5/2 9/5/2 10/5/2 5/5/2
f 15/6/3 16/7/3 5/8/3 10/9/3
f 17/10/3 18/11/3 11/12/3 12/13/3
f 19/14/4 22/15/4 21/16/4 20/17/4
f 23/18/4 20/17/4 21/16/4 24/19/4
f 25/20/4 28/21/4 27/22/4 26/23/4
f 29/24/4 26/23/4 27/22/4 30/25/4
f 27/22/4 28/21/4 21/16/4 22/15/4
f 31/3/3 32/2/3 25/26/3 26/27/3
f 33/5/2 35/5/2 34/5/2 31/5/2
f 32/5/2 31/5/2 34/5/2 36/5/2
f 37/5/2 40/5/2 39/5/2 38/5/2
f 41/5/2 38/5/2 39/5/2 42/5/2
f 40/5/2 36/5/2 34/5/2 39/5/2
f 29/28/1 30/3/1 35/27/1 33/29/1
f 20/30/5 23/31/5 38/32/5 41/33/5
f 29/34/6 33/35/6 31/36/6 26/37/6
f 34/8/1 27/38/1 22/39/1 39/9/1
f 42/12/1 19/40/1 20/41/1 41/13/1
f 19/42/6 42/43/6 39/44/6 22/45/6
f 27/46/5 34/47/5 35/48/5 30/49/5
f 28/26/3 36/2/3 40/50/3 21/51/3
f 24/52/3 37/53/3 38/40/3 23/12/3
f 21/54/6 40/55/6 37/43/6 24/42/6
f 25/56/5 32/57/5 36/58/5 28/59/5
f 43/60/4 46/61/4 45/62/4 44/63/4
f 47/60/1 43/61/1 44/62/1 48/63/1
f 49/60/2 47/61/2 48/62/2 50/63/2
f 46/60/3 49/61/3 50/62/3 45/63/3
f 44/64/5 45/65/5 50/66/5 48/67/5
f 51/60/4 54/61/4 53/62/4 52/63/4
f 55/60/1 51/61/1 52/62/1 56/63/1
f 57/60/2 55/61/2 56/62/2 58/63/2
f 54/60/3 57/61/3 58/62/3 53/63/3
f 52/64/5 53/65/5 58/66/5 56/67/5
f 59/60/4 62/61/4 61/62/4 60/63/4
f 63/60/1 59/61/1 60/62/1 64/63/1
f 65/60/2 63/61/2 64/62/2 66/63/2
f 62/60/3 65/61/3 66/62/3 61/63/3
f 60/64/5 61/65/5 66/66/5 64/67/5
f 67/68/4 70/69/4 69/70/4 68/71/4
f 71/72/1 67/73/1 68/74/1 72/75/1
f 73/76/2 71/74/2 72/77/2 74/78/2
f 70/79/3 73/80/3 74/81/3 69/82/3
f 68/83/5 69/84/5 74/85/5 72/86/5
f 75/68/4 78/69/4 77/70/4 76/71/4
f 79/87/1 75/88/1 76/89/1 80/90/1
f 81/91/2 79/89/2 80/69/2 82/68/2
f 78/79/3 81/80/3 82/81/3 77/82/3
f 76/92/5 77/93/5 82/94/5 80/95/5
f 83/68/4 86/69/4 85/70/4 84/71/4
f 87/87/1 83/88/1 84/89/1 88/90/1
f 89/91/2 87/89/2 88/69/2 90/68/2
f 86/79/3 89/80/3 90/81/3 85/82/3
f 84/96/5 85/97/5 90/98/5 88/99/5
f 91/68/4 94/69/4 93/70/4 92/71/4
f 95/87/1 91/88/1 92/89/1 96/90/1
f 97/91/2 95/89/2 96/69/2 98/68/2
f 94/79/3 97/80/3 98/81/3 93/82/3
f 92/92/5 93/93/5 98/94/5 96/95/5
f 71/100/6 73/101/6 70/102/6 67/103/6
f 79/104/6 81/105/6 78/106/6 75/107/6
f 87/108/6 89/109/6 86/110/6 83/111/6
f 95/112/6 97/113/6 94/114/6 91/115/6
f 99/60/4 102/61/4 101/62/4 100/63/4
f 103/60/1 99/61/1 100/62/1 104/63/1
f 105/60/2 103/61/2 104/62/2 106/63/2
f 102/60/3 105/61/3 106/62/3 101/63/3
f 100/64/5 101/65/5 106/66/5 104/67/5
f 107/60/4 110/61/4 109/62/4 108/63/4
f 111/60/1 107/61/1 108/62/1 112/63/1
f 113/60/2 111/61/2 112/62/2 114/63/2
f 110/60/3 113/61/3 114/62/3 109/63/3
f 108/64/5 109/65/5 114/66/5 112/67/5
f 115/60/4 118/61/4 117/62/4 116/63/4
f 119/60/1 115/61/1 116/62/1 120/63/1
f 121/60/2 119/61/2 120/62/2 122/63/2
f 118/60/3 121/61/3 122/62/3 117/63/3
f 116/64/5 117/65/5 122/66/5 120/67/5
f 123/62/4 126/61/4 125/60/4 124/63/4
f 124/62/3 125/61/3 128/60/3 127/63/3
f 127/62/2 128/61/2 130/60/2 129/63/2
f 129/62/1 130/61/1 126/60/1 123/63/1
f 129/66/5 123/65/5 124/64/5 127/67/5
f 131/60/4 134/61/4 133/62/4 132/63/4
f 135/60/1 131/61/1 132/62/1 136/63/1
f 137/60/2 135/61/2 136/62/2 138/63/2
f 134/60/3 137/61/3 138/62/3 133/63/3
f 132/64/5 133/65/5 138/66/5 136/67/5
f 139/68/4 142/69/4 141/70/4 140/71/4
f 143/72/1 139/73/1 140/74/1 144/75/1
f 145/76/2 143/74/2 144/77/2 146/78/2
f 142/79/3 145/80/3 146/81/3 141/82/3
f 140/83/5 141/84/5 146/85/5 144/86/5
f 147/68/4 150/69/4 149/70/4 148/71/4
f 151/87/1 147/88/1 148/89/1 152/90/1
f 153/91/2 151/89/2 152/69/2 154/68/2
f 150/79/3 153/80/3 154/81/3 149/82/3
f 148/92/5 149/93/5 154/94/5 152/95/5
f 155/68/4 158/69/4 157/70/4 156/71/4
f 159/87/1 155/88/1 156/89/1 160/90/1
f 161/91/2 159/89/2 160/69/2 162/68/2
f 158/79/3 161/80/3 162/81/3 157/82/3
f 156/96/5 157/97/5 162/98/5 160/99/5
f 163/68/4 166/69/4 165/70/4 164/71/4
f 167/87/1 163/88/1 164/89/1 168/90/1
f 169/91/2 167/89/2 168/69/2 170/68/2
f 166/79/3 169/80/3 170/81/3 165/82/3
f 164/92/5 165/93/5 170/94/5 168/95/5
f 143/100/6 145/101/6 142/102/6 139/103/6
f 151/104/6 153/105/6 150/106/6 147/107/6
f 159/108/6 161/109/6 158/110/6 155/111/6
f 167/112/6 169/113/6 166/114/6 163/115/6
f 171/60/4 174/61/4 173/62/4 172/63/4
f 175/60/1 171/61/1 172/62/1 176/63/1
f 177/60/2 175/61/2 176/62/2 178/63/2
f 174/60/3 177/61/3 178/62/3 173/63/3
f 172/64/5 173/65/5 178/66/5 176/67/5
f 179/62/4 182/61/4 181/60/4 180/63/4
f 180/62/3 181/61/3 184/60/3 183/63/3
f 183/62/2 184/61/2 186/60/2 185/63/2
f 185/62/1 186/61/1 182/60/1 179/63/1
f 185/66/5 179/65/5 180/64/5 183/67/5
f 187/60/4 190/61/4 189/62/4 188/63/4
f 191/60/1 187/61/1 188/62/1 192/63/1
f 193/60/2 191/61/2 192/62/2 194/63/2
f 190/60/3 193/61/3 194/62/3 189/63/3
f 188/64/5 189/65/5 194/66/5 192/67/5
f 195/62/4 198/61/4 197/60/4 196/63/4
f 196/62/3 197/61/3 200/60/3 199/63/3
f 199/62/2 200/61/2 202/60/2 201/63/2
f 201/62/1 202/61/1 198/60/1 195/63/1
f 201/66/5 195/65/5 196/64/5 199/67/5
f 203/60/4 206/61/4 205/62/4 204/63/4
f 207/60/1 203/61/1 204/62/1 208/63/1
f 209/60/2 207/61/2 208/62/2 210/63/2
f 206/60/3 209/61/3 210/62/3 205/63/3
f 204/64/5 205/65/5 210/66/5 208/67/5
f 211/62/4 214/61/4 213/60/4 212/63/4
f 212/62/3 213/61/3 216/60/3 215/63/3
f 215/62/2 216/61/2 218/60/2 217/63/2
f 217/62/1 218/61/1 214/60/1 211/63/1
f 217/66/5 211/65/5 212/64/5 215/67/5
f 219/60/4 222/61/4 221/62/4 220/63/4
f 223/60/1 219/61/1 220/62/1 224/63/1
f 225/60/2 223/61/2 224/62/2 226/63/2
f 222/60/3 225/61/3 226/62/3 221/63/3
f 220/64/5 221/65/5 226/66/5 224/67/5
f 227/62/4 230/61/4 229/60/4 228/63/4
f 228/62/3 229/61/3 232/60/3 231/63/3
f 231/62/2 232/61/2 234/60/2 233/63/2
f 233/62/1 234/61/1 230/60/1 227/63/1
f 233/66/5 227/65/5 228/64/5 231/67/5
f 235/68/4 238/69/4 237/70/4 236/71/4
f 239/72/1 235/73/1 236/74/1 240/75/1
f 241/76/2 239/74/2 240/77/2 242/78/2
f 238/79/3 241/80/3 242/81/3 237/82/3
f 236/83/5 237/84/5 242/85/5 240/86/5
f 243/68/4 246/69/4 245/70/4 244/71/4
f 247/87/1 243/88/1 244/89/1 248/90/1
f 249/91/2 247/89/2 248/69/2 250/68/2
f 246/79/3 249/80/3 250/81/3 245/82/3
f 244/92/5 245/93/5 250/94/5 248/95/5
f 251/68/4 254/69/4 253/70/4 252/71/4
f 255/87/1 251/88/1 252/89/1 256/90/1
f 257/91/2 255/89/2 256/69/2 258/68/2
f 254/79/3 257/80/3 258/81/3 253/82/3
f 252/96/5 253/97/5 258/98/5 256/99/5
f 259/68/4 262/69/4 261/70/4 260/71/4
f 263/87/1 259/88/1 260/89/1 264/90/1
f 265/91/2 263/89/2 264/69/2 266/68/2
f 262/79/3 265/80/3 266/81/3 261/82/3
f 260/92/5 261/93/5 266/94/5 264/95/5
f 239/100/6 241/101/6 238/102/6 235/103/6
f 247/104/6 249/105/6 246/106/6 243/107/6
f 255/108/6 257/109/6 254/110/6 251/111/6
f 263/112/6 265/113/6 262/114/6 259/115/6
f 267/4/7 270/3/7 269/28/7 268/116/7
f 271/117/5 274/31/5 273/30/5 272/118/5
f 275/119/6 268/120/6 269/34/6 276/37/6
f 277/121/6 280/122/6 279/42/6 278/45/6
f 267/123/5 282/124/5 281/46/5 270/49/5
f 283/125/8 286/126/8 285/26/8 284/51/8
f 271/11/9 288/127/9 287/52/9 274/12/9
f 288/122/6 283/128/6 284/54/6 287/42/6
f 286/129/5 290/130/5 289/56/5 285/59/5
f 291/60/10 294/61/10 293/62/10 292/63/10
f 295/60/11 291/61/11 292/62/11 296/63/11
f 297/60/12 295/61/12 296/62/12 298/63/12
f 294/60/13 297/61/13 298/62/13 293/63/13
f 292/64/5 293/65/5 298/66/5 296/67/5
f 299/62/14 302/61/14 301/60/14 300/63/14
f 300/62/15 301/61/15 304/60/15 303/63/15
f 303/62/12 304/61/12 306/60/12 305/63/12
f 305/62/16 306/61/16 302/60/16 299/63/16
f 305/66/5 299/65/5 300/64/5 303/67/5
f 273/41/17 279/40/17 280/131/17 272/132/17
f 278/39/18 281/38/18 282/133/18 277/134/18
f 289/26/9 290/126/9 275/135/9 276/27/9
f 307/4/19 267/3/19 268/28/19 308/116/19
f 309/117/5 271/31/5 272/30/5 310/118/5
f 311/119/6 308/120/6 268/34/6 275/37/6
f 312/121/6 313/122/6 280/42/6 277/45/6
f 307/123/5 314/124/5 282/46/5 267/49/5
f 315/125/20 316/126/20 286/26/20 283/51/20
f 309/11/21 317/127/21 288/52/21 271/12/21
f 317/122/6 315/128/6 283/54/6 288/42/6
f 316/129/5 318/130/5 290/56/5 286/59/5
f 272/41/22 280/40/22 313/131/22 310/132/22
f 277/39/23 282/38/23 314/133/23 312/134/23
f 290/26/21 318/126/21 311/135/21 275/27/21
f 319/4/24 307/3/24 308/28/24 320/116/24
f 321/117/5 309/31/5 310/30/5 322/118/5
f 323/119/6 320/120/6 308/34/6 311/37/6
f 324/121/6 325/122/6 313/42/6 312/45/6
f 319/123/5 326/124/5 314/46/5 307/49/5
f 327/125/25 328/126/25 316/26/25 315/51/25
f 321/11/25 329/127/25 317/52/25 309/12/25
f 329/122/6 327/128/6 315/54/6 317/42/6
f 328/129/5 330/130/5 318/56/5 316/59/5
f 331/62/26 334/61/26 333/60/26 332/63/26
f 332/62/27 333/61/27 336/60/27 335/63/27
f 335/62/28 336/61/28 338/60/28 337/63/28
f 337/62/29 338/61/29 334/60/29 331/63/29
f 337/66/5 331/65/5 332/64/5 335/67/5
f 339/68/30 342/69/30 341/70/30 340/71/30
f 343/87/31 339/88/31 340/89/31 344/90/31
f 345/91/32 343/89/32 344/69/32 346/68/32
f 342/79/33 345/80/33 346/81/33 341/82/33
f 340/92/5 341/93/5 346/94/5 344/95/5
f 343/112/6 345/113/6 342/114/6 339/115/6
f 310/41/24 313/40/24 325/131/24 322/132/24
f 312/39/34 314/38/34 326/133/34 324/134/34
f 318/26/25 330/126/25 323/135/25 311/27/25
f 347/4/35 319/3/35 320/28/35 348/116/35
f 349/117/5 321/31/5 322/30/5 350/118/5
f 351/119/6 348/120/6 320/34/6 323/37/6
f 352/121/6 353/122/6 325/42/6 324/45/6
f 347/123/5 354/124/5 326/46/5 319/49/5
f 355/125/36 356/126/36 328/26/36 327/51/36
f 349/11/36 357/127/36 329/52/36 321/12/36
f 357/122/6 355/128/6 327/54/6 329/42/6
f 356/129/5 358/130/5 330/56/5 328/59/5
f 359/135/37 362/126/38 361/26/39 360/27/39
f 363/133/40 366/38/41 365/39/41 364/134/42
f 367/131/43 370/40/44 369/41/44 368/132/45
f 371/62/46 374/61/46 373/60/46 372/63/46
f 372/62/47 373/61/47 376/60/47 375/63/47
f 375/62/48 376/61/48 378/60/48 377/63/48
f 377/62/49 378/61/49 374/60/49 371/63/49
f 377/66/5 371/65/5 372/64/5 375/67/5
f 379/68/50 382/69/50 381/70/50 380/71/50
f 383/87/51 379/88/51 380/89/51 384/90/51
f 385/91/52 383/89/52 384/69/52 386/68/52
f 382/79/53 385/80/53 386/81/53 381/82/53
f 380/92/5 381/93/5 386/94/5 384/95/5
f 383/112/6 385/113/6 382/114/6 379/115/6
f 361/56/54 362/130/55 388/129/56 387/59/54
f 389/54/57 392/128/58 391/122/58 390/42/57
f 390/52/59 391/127/60 394/11/61 393/12/59
f 387/26/62 388/126/63 392/125/64 389/51/62
f 366/46/65 363/124/66 396/123/67 395/49/65
f 370/42/57 367/122/58 364/121/58 365/45/57
f 397/34/68 398/120/69 359/119/70 360/37/68
f 369/30/65 393/31/65 394/117/67 368/118/67
f 397/28/71 395/3/71 396/4/72 398/116/73
f 322/41/35 325/40/35 353/131/35 350/132/35
f 324/39/74 326/38/74 354/133/74 352/134/74
f 330/26/36 358/126/36 351/135/36 323/27/36
f 399/4/75 347/3/75 348/28/75 400/116/75
f 401/117/5 349/31/5 350/30/5 402/118/5
f 403/119/6 400/120/6 348/34/6 351/37/6
f 404/121/6 405/122/6 353/42/6 352/45/6
f 399/123/5 406/124/5 354/46/5 347/49/5
f 407/125/76 408/126/76 356/26/76 355/51/76
f 401/11/76 409/127/76 357/52/76 349/12/76
f 409/122/6 407/128/6 355/54/6 357/42/6
f 408/129/5 410/130/5 358/56/5 356/59/5
f 411/135/77 412/126/77 362/26/38 359/27/37
f 413/133/78 363/38/40 364/39/42 414/134/78
f 415/131/79 367/40/43 368/41/45 416/132/79
f 417/62/80 420/61/80 419/60/80 418/63/80
f 418/62/81 419/61/81 422/60/81 421/63/81
f 421/62/82 422/61/82 424/60/82 423/63/82
f 423/62/83 424/61/83 420/60/83 417/63/83
f 423/66/5 417/65/5 418/64/5 421/67/5
f 425/68/84 428/69/84 427/70/84 426/71/84
f 429/87/85 425/88/85 426/89/85 430/90/85
f 431/91/86 429/89/86 430/69/86 432/68/86
f 428/79/87 431/80/87 432/81/87 427/82/87
f 426/92/5 427/93/5 432/94/5 430/95/5
f 429/112/6 431/113/6 428/114/6 425/115/6
f 362/56/55 412/130/88 433/129/89 388/59/56
f 392/54/58 435/128/90 434/122/91 391/42/58
f 391/52/60 434/127/92 436/11/92 394/12/61
f 388/26/63 433/126/93 435/125/93 392/51/64
f 363/46/66 413/124/94 437/123/89 396/49/67
f 367/42/58 415/122/95 414/121/91 364/45/58
f 398/34/69 438/120/95 411/119/91 359/37/70
f 368/30/67 394/31/67 436/117/94 416/118/89
f 398/28/73 396/3/72 437/4/96 438/116/96
f 350/41/75 353/40/75 405/131/75 402/132/75
f 352/39/97 354/38/97 406/133/97 404/134/97
f 358/26/76 410/126/76 403/135/76 351/27/76
f 439/4/98 399/3/98 400/28/98 440/116/98
f 441/117/5 401/31/5 402/30/5 442/118/5
f 443/119/6 440/120/6 400/34/6 403/37/6
f 444/121/6 445/122/6 405/42/6 404/45/6
f 439/123/5 446/124/5 406/46/5 399/49/5
f 447/125/99 448/126/99 408/26/99 407/51/99
f 441/11/99 449/127/99 409/52/99 401/12/99
f 449/122/6 447/128/6 407/54/6 409/42/6
f 448/129/5 450/130/5 410/56/5 408/59/5
f 451/135/100 452/126/100 412/26/100 411/27/100
f 453/133/101 413/38/101 414/39/101 454/134/101
f 455/131/102 415/40/102 416/41/102 456/132/102
f 457/62/103 460/61/103 459/60/103 458/63/103
f 458/62/104 459/61/104 462/60/104 461/63/104
f 461/62/105 462/61/105 464/60/105 463/63/105
f 463/62/106 464/61/106 460/60/106 457/63/106
f 463/66/5 457/65/5 458/64/5 461/67/5
f 465/68/107 468/69/107 467/70/107 466/71/107
f 469/87/108 465/88/108 466/89/108 470/90/108
f 471/91/109 469/89/109 470/69/109 472/68/109
f 468/79/110 471/80/110 472/81/110 467/82/110
f 466/92/5 467/93/5 472/94/5 470/95/5
f 469/112/6 471/113/6 468/114/6 465/115/6
f 412/56/88 452/130/5 473/129/5 433/59/89
f 435/54/90 475/128/6 474/122/6 434/42/91
f 434/52/111 474/127/111 476/11/111 436/12/111
f 433/26/112 473/126/112 475/125/112 435/51/112
f 413/46/94 453/124/5 477/123/5 437/49/89
f 415/42/95 455/122/6 454/121/6 414/45/91
f 438/34/95 478/120/6 451/119/6 411/37/91
f 416/30/89 436/31/94 476/117/5 456/118/5
f 438/28/113 437/3/113 477/4/113 478/116/113
f 402/41/114 405/40/114 445/131/114 442/132/114
f 404/39/115 406/38/115 446/133/115 444/134/115
f 410/26/99 450/126/99 443/135/99 403/27/99
f 479/4/116 439/3/116 440/28/116 480/116/116
f 481/117/5 441/31/5 442/30/5 482/118/5
f 483/119/6 480/120/6 440/34/6 443/37/6
f 484/121/6 485/122/6 445/42/6 444/45/6
f 479/123/5 486/124/5 446/46/5 439/49/5
f 487/125/117 488/126/117 448/26/117 447/51/117
f 481/11/117 489/127/117 449/52/117 441/12/117
f 489/122/6 487/128/6 447/54/6 449/42/6
f 488/129/5 490/130/5 450/56/5 448/59/5
f 491/135/118 492/126/118 452/26/118 451/27/118
f 493/133/119 453/38/119 454/39/119 494/134/119
f 495/131/120 455/40/120 456/41/120 496/132/120
f 497/60/121 500/61/121 499/62/121 498/63/121
f 501/60/122 497/61/122 498/62/122 502/63/122
f 503/60/123 501/61/123 502/62/123 504/63/123
f 500/60/124 503/61/124 504/62/124 499/63/124
f 498/64/5 499/65/5 504/66/5 502/67/5
f 505/62/121 508/61/121 507/60/121 506/63/121
f 506/62/125 507/61/125 510/60/125 509/63/125
f 509/62/123 510/61/123 512/60/123 511/63/123
f 511/62/126 512/61/126 508/60/126 505/63/126
f 511/66/5 505/65/5 506/64/5 509/67/5
f 513/68/127 516/69/127 515/70/127 514/71/127
f 517/87/128 513/88/128 514/89/128 518/90/128
f 519/91/129 517/89/129 518/69/129 520/68/129
f 516/79/130 519/80/130 520/81/130 515/82/130
f 514/92/5 515/93/5 520/94/5 518/95/5
f 517/112/6 519/113/6 516/114/6 513/115/6
f 452/56/5 492/130/5 521/129/5 473/59/5
f 475/54/6 523/128/6 522/122/6 474/42/6
f 474/52/131 522/127/131 524/11/131 476/12/131
f 473/26/118 521/126/118 523/125/118 475/51/118
f 453/46/5 493/124/5 525/123/5 477/49/5
f 455/42/6 495/122/6 494/121/6 454/45/6
f 478/34/6 526/120/6 491/119/6 451/37/6
f 456/30/5 476/31/5 524/117/5 496/118/5
f 478/28/119 477/3/119 525/4/119 526/116/119
f 442/41/132 445/40/132 485/131/132 482/132/132
f 444/39/124 446/38/124 486/133/124 484/134/124
f 450/26/117 490/126/117 483/135/117 443/27/117
f 527/4/133 479/3/133 480/28/133 528/116/133
f 529/117/5 481/31/5 482/30/5 530/118/5
f 531/119/6 528/120/6 480/34/6 483/37/6
f 532/121/6 533/122/6 485/42/6 484/45/6
f 527/123/5 534/124/5 486/46/5 479/49/5
f 535/125/134 536/126/134 488/26/134 487/51/134
f 529/11/134 537/127/134 489/52/134 481/12/134
f 537/122/6 535/128/6 487/54/6 489/42/6
f 536/129/5 538/130/5 490/56/5 488/59/5
f 539/135/135 540/126/135 492/26/135 491/27/135
f 541/133/136 493/38/136 494/39/136 542/134/136
f 543/131/136 495/40/136 496/41/136 544/132/136
f 545/60/137 548/61/137 547/62/137 546/63/137
f 549/60/138 545/61/138 546/62/138 550/63/138
f 551/60/139 549/61/139 550/62/139 552/63/139
f 548/60/140 551/61/140 552/62/140 547/63/140
f 546/64/5 547/65/5 552/66/5 550/67/5
f 553/62/137 556/61/137 555/60/137 554/63/137
f 554/62/141 555/61/141 558/60/141 557/63/141
f 557/62/139 558/61/139 560/60/139 559/63/139
f 559/62/142 560/61/142 556/60/142 553/63/142
f 559/66/5 553/65/5 554/64/5 557/67/5
f 561/68/143 564/69/143 563/70/143 562/71/143
f 565/87/144 561/88/144 562/89/144 566/90/144
f 567/91/145 565/89/145 566/69/145 568/68/145
f 564/79/146 567/80/146 568/81/146 563/82/146
f 562/92/5 563/93/5 568/94/5 566/95/5
f 565/112/6 567/113/6 564/114/6 561/115/6
f 492/56/5 540/130/5 569/129/5 521/59/5
f 523/54/6 571/128/6 570/122/6 522/42/6
f 522/52/147 570/127/147 572/11/147 524/12/147
f 521/26/147 569/126/147 571/125/147 523/51/147
f 493/46/5 541/124/5 573/123/5 525/49/5
f 495/42/6 543/122/6 542/121/6 494/45/6
f 526/34/6 574/120/6 539/119/6 491/37/6
f 496/30/5 524/31/5 572/117/5 544/118/5
f 526/28/148 525/3/148 573/4/148 574/116/148
f 482/41/133 485/40/133 533/131/133 530/132/133
f 484/39/149 486/38/149 534/133/149 532/134/149
f 490/26/134 538/126/134 531/135/134 483/27/134
f 575/4/150 527/3/150 528/28/150 576/116/150
f 577/117/5 529/31/5 530/30/5 578/118/5
f 579/119/6 576/120/6 528/34/6 531/37/6
f 580/121/6 581/122/6 533/42/6 532/45/6
f 575/123/5 582/124/5 534/46/5 527/49/5
f 583/125/151 584/126/151 536/26/151 535/51/151
f 577/11/151 585/127/151 537/52/151 529/12/151
f 585/122/6 583/128/6 535/54/6 537/42/6
f 584/129/5 586/130/5 538/56/5 536/59/5
f 587/136/4 590/136/4 589/136/4 588/136/4
f 590/136/4 587/136/4 592/136/4 591/136/4
f 593/136/4 596/136/4 595/136/4 594/136/4
f 593/136/4 594/136/4 598/136/4 597/136/4
f 597/136/4 589/136/4 590/136/4 593/136/4
f 599/62/152 602/61/152 601/60/152 600/63/152
f 600/62/153 601/61/153 604/60/153 603/63/153
f 603/62/154 604/61/154 606/60/154 605/63/154
f 605/62/155 606/61/155 602/60/155 599/63/155
f 605/66/5 599/65/5 600/64/5 603/67/5
f 607/68/156 610/69/156 609/70/156 608/71/156
f 611/87/157 607/88/157 608/89/157 612/90/157
f 613/91/158 611/89/158 612/69/158 614/68/158
f 610/79/159 613/80/159 614/81/159 609/82/159
f 608/92/5 609/93/5 614/94/5 612/95/5
f 611/112/6 613/113/6 610/114/6 607/115/6
f 530/41/160 533/40/160 581/131/160 578/132/160
f 532/39/161 534/38/161 582/133/161 580/134/161
f 538/26/151 586/126/151 579/135/151 531/27/151
f 615/4/162 575/3/162 576/28/162 616/116/162
f 617/117/5 577/31/5 578/30/5 618/118/5
f 619/119/6 616/120/6 576/34/6 579/37/6
f 620/121/6 621/122/6 581/42/6 580/45/6
f 615/123/5 622/124/5 582/46/5 575/49/5
f 623/125/163 624/126/163 584/26/163 583/51/163
f 617/11/163 625/127/163 585/52/163 577/12/163
f 625/122/6 623/128/6 583/54/6 585/42/6
f 624/129/5 626/130/5 586/56/5 584/59/5
f 627/135/164 630/126/164 629/26/164 628/27/164
f 631/133/165 634/38/165 633/39/165 632/134/165
f 635/131/165 638/40/165 637/41/165 636/132/165
f 639/60/166 642/61/166 641/62/166 640/63/166
f 643/60/167 639/61/167 640/62/167 644/63/167
f 645/60/168 643/61/168 644/62/168 646/63/168
f 642/60/169 645/61/169 646/62/169 641/63/169
f 640/64/5 641/65/5 646/66/5 644/67/5
f 647/62/170 650/61/170 649/60/170 648/63/170
f 648/62/171 649/61/171 652/60/171 651/63/171
f 651/62/168 652/61/168 654/60/168 653/63/168
f 653/62/172 654/61/172 650/60/172 647/63/172
f 653/66/5 647/65/5 648/64/5 651/67/5
f 655/68/173 658/69/173 657/70/173 656/71/173
f 659/87/174 655/88/174 656/89/174 660/90/174
f 661/91/175 659/89/175 660/69/175 662/68/175
f 658/79/176 661/80/176 662/81/176 657/82/176
f 656/92/5 657/93/5 662/94/5 660/95/5
f 659/112/6 661/113/6 658/114/6 655/115/6
f 629/56/5 630/130/5 664/129/5 663/59/5
f 665/54/6 668/128/6 667/122/6 666/42/6
f 666/52/177 667/127/177 670/11/177 669/12/177
f 663/26/164 664/126/164 668/125/164 665/51/164
f 634/46/5 631/124/5 672/123/5 671/49/5
f 638/42/6 635/122/6 632/121/6 633/45/6
f 673/34/6 674/120/6 627/119/6 628/37/6
f 637/30/5 669/31/5 670/117/5 636/118/5
f 673/28/178 671/3/178 672/4/178 674/116/178
f 578/41/179 581/40/179 621/131/179 618/132/179
f 580/39/180 582/38/180 622/133/180 620/134/180
f 586/26/163 626/126/163 619/135/163 579/27/163
f 675/4/181 615/3/181 616/28/181 676/116/181
f 677/117/5 617/31/5 618/30/5 678/118/5
f 679/119/6 676/120/6 616/34/6 619/37/6
f 680/121/6 681/122/6 621/42/6 620/45/6
f 675/123/5 682/124/5 622/46/5 615/49/5
f 683/125/182 684/126/182 624/26/182 623/51/182
f 677/11/183 685/127/183 625/52/183 617/12/183
f 685/122/6 683/128/6 623/54/6 625/42/6
f 684/129/5 686/130/5 626/56/5 624/59/5
f 687/135/184 688/126/184 630/26/184 627/27/184
f 689/133/185 631/38/185 632/39/185 690/134/185
f 691/131/186 635/40/186 636/41/186 692/132/186
f 693/60/187 696/61/187 695/62/187 694/63/187
f 697/60/188 693/61/188 694/62/188 698/63/188
f 699/60/189 697/61/189 698/62/189 700/63/189
f 696/60/190 699/61/190 700/62/190 695/63/190
f 694/64/5 695/65/5 700/66/5 698/67/5
f 701/62/187 704/61/187 703/60/187 702/63/187
f 702/62/191 703/61/191 706/60/191 705/63/191
f 705/62/189 706/61/189 708/60/189 707/63/189
f 707/62/192 708/61/192 704/60/192 701/63/192
f 707/66/5 701/65/5 702/64/5 705/67/5
f 709/68/193 712/69/193 711/70/193 710/71/193
f 713/87/194 709/88/194 710/89/194 714/90/194
f 715/91/195 713/89/195 714/69/195 716/68/195
f 712/79/196 715/80/196 716/81/196 711/82/196
f 710/92/5 711/93/5 716/94/5 714/95/5
f 713/112/6 715/113/6 712/114/6 709/115/6
f 630/56/5 688/130/5 717/129/5 664/59/5
f 668/54/6 719/128/6 718/122/6 667/42/6
f 667/52/197 718/127/197 720/11/197 670/12/197
f 664/26/197 717/126/197 719/125/197 668/51/197
f 631/46/5 689/124/5 721/123/5 672/49/5
f 635/42/6 691/122/6 690/121/6 632/45/6
f 674/34/6 722/120/6 687/119/6 627/37/6
f 636/30/5 670/31/5 720/117/5 692/118/5
f 674/28/185 672/3/185 721/4/185 722/116/185
f 618/41/198 621/40/198 681/131/198 678/132/198
f 620/39/199 622/38/199 682/133/199 680/134/199
f 626/26/183 686/126/183 679/135/183 619/27/183
f 723/4/200 675/3/200 676/28/200 724/116/200
f 725/117/5 677/31/5 678/30/5 726/118/5
f 727/119/6 724/120/6 676/34/6 679/37/6
f 728/121/6 729/122/6 681/42/6 680/45/6
f 723/123/5 730/124/5 682/46/5 675/49/5
f 731/125/201 732/126/201 684/26/201 683/51/201
f 725/11/201 733/127/201 685/52/201 677/12/201
f 733/122/6 731/128/6 683/54/6 685/42/6
f 732/129/5 734/130/5 686/56/5 684/59/5
f 735/135/202 736/126/202 688/26/202 687/27/202
f 737/133/203 689/38/203 690/39/203 738/134/203
f 739/131/203 691/40/203 692/41/203 740/132/203
f 741/60/204 744/61/204 743/62/204 742/63/204
f 745/60/205 741/61/205 742/62/205 746/63/205
f 747/60/206 745/61/206 746/62/206 748/63/206
f 744/60/207 747/61/207 748/62/207 743/63/207
f 742/64/5 743/65/5 748/66/5 746/67/5
f 749/62/208 752/61/208 751/60/208 750/63/208
f 750/62/209 751/61/209 754/60/209 753/63/209
f 753/62/210 754/61/210 756/60/210 755/63/210
f 755/62/211 756/61/211 752/60/211 749/63/211
f 755/66/5 749/65/5 750/64/5 753/67/5
f 757/68/212 760/69/212 759/70/212 758/71/212
f 761/87/213 757/88/213 758/89/213 762/90/213
f 763/91/214 761/89/214 762/69/214 764/68/214
f 760/79/215 763/80/215 764/81/215 759/82/215
f 758/92/5 759/93/5 764/94/5 762/95/5
f 761/112/6 763/113/6 760/114/6 757/115/6
f 688/56/5 736/130/5 765/129/5 717/59/5
f 719/54/6 767/128/6 766/122/6 718/42/6
f 718/52/216 766/127/216 768/11/216 720/12/216
f 717/26/217 765/126/217 767/125/217 719/51/217
f 689/46/5 737/124/5 769/123/5 721/49/5
f 691/42/6 739/122/6 738/121/6 690/45/6
f 722/34/6 770/120/6 735/119/6 687/37/6
f 692/30/5 720/31/5 768/117/5 740/118/5
f 722/28/203 721/3/203 769/4/203 770/116/203
f 678/41/200 681/40/200 729/131/200 726/132/200
f 680/39/218 682/38/218 730/133/218 728/134/218
f 686/26/201 734/126/201 727/135/201 679/27/201
f 771/4/219 723/3/219 724/28/219 772/116/219
f 773/117/5 725/31/5 726/30/5 774/118/5
f 775/119/6 772/120/6 724/34/6 727/37/6
f 776/121/6 777/122/6 729/42/6 728/45/6
f 771/123/5 778/124/5 730/46/5 723/49/5
f 779/125/220 780/126/220 732/26/220 731/51/220
f 773/11/220 781/127/220 733/52/220 725/12/220
f 781/122/6 779/128/6 731/54/6 733/42/6
f 780/129/5 782/130/5 734/56/5 732/59/5
f 783/135/221 784/126/221 736/26/221 735/27/221
f 785/133/222 737/38/222 738/39/222 786/134/222
f 787/131/223 739/40/223 740/41/223 788/132/223
f 789/60/224 792/61/224 791/62/224 790/63/224
f 793/60/225 789/61/225 790/62/225 794/63/225
f 795/60/226 793/61/226 794/62/226 796/63/226
f 792/60/227 795/61/227 796/62/227 791/63/227
f 790/64/5 791/65/5 796/66/5 794/67/5
f 797/62/224 800/61/224 799/60/224 798/63/224
f 798/62/228 799/61/228 802/60/228 801/63/228
f 801/62/226 802/61/226 804/60/226 803/63/226
f 803/62/229 804/61/229 800/60/229 797/63/229
f 803/66/5 797/65/5 798/64/5 801/67/5
f 805/68/230 808/69/230 807/70/230 806/71/230
f 809/87/231 805/88/231 806/89/231 810/90/231
f 811/91/232 809/89/232 810/69/232 812/68/232
f 808/79/233 811/80/233 812/81/233 807/82/233
f 806/92/5 807/93/5 812/94/5 810/95/5
f 809/112/6 811/113/6 808/114/6 805/115/6
f 736/56/5 784/130/5 813/129/5 765/59/5
f 767/54/6 815/128/6 814/122/6 766/42/6
f 766/52/234 814/127/234 816/11/234 768/12/234
f 765/26/234 813/126/234 815/125/234 767/51/234
f 737/46/5 785/124/5 817/123/5 769/49/5
f 739/42/6 787/122/6 786/121/6 738/45/6
f 770/34/6 818/120/6 783/119/6 735/37/6
f 740/30/5 768/31/5 816/117/5 788/118/5
f 770/28/222 769/3/222 817/4/222 818/116/222
f 726/41/219 729/40/219 777/131/219 774/132/219
f 728/39/235 730/38/235 778/133/235 776/134/235
f 734/26/220 782/126/220 775/135/220 727/27/220
f 819/4/236 771/3/236 772/28/236 820/116/236
f 821/117/237 773/31/5 774/30/5 822/118/237
f 823/119/238 820/120/238 772/34/6 775/37/6
f 824/121/238 825/122/238 777/42/6 776/45/6
f 819/123/237 826/124/237 778/46/5 771/49/5
f 827/125/239 828/126/239 780/26/239 779/51/239
f 821/11/239 829/127/239 781/52/239 773/12/239
f 829/122/238 827/128/238 779/54/6 781/42/6
f 828/129/237 830/130/237 782/56/5 780/59/5
f 831/135/240 832/126/240 784/26/240 783/27/240
f 833/133/241 785/38/241 786/39/241 834/134/241
f 835/131/242 787/40/242 788/41/242 836/132/242
f 837/60/243 840/61/243 839/62/243 838/63/243
f 841/60/244 837/61/244 838/62/244 842/63/244
f 843/60/245 841/61/245 842/62/245 844/63/245
f 840/60/246 843/61/246 844/62/246 839/63/246
f 838/64/5 839/65/5 844/66/5 842/67/5
f 845/62/243 848/61/243 847/60/243 846/63/243
f 846/62/247 847/61/247 850/60/247 849/63/247
f 849/62/245 850/61/245 852/60/245 851/63/245
f 851/62/244 852/61/244 848/60/244 845/63/244
f 851/66/5 845/65/5 846/64/5 849/67/5
f 853/68/248 856/69/248 855/70/248 854/71/248
f 857/87/244 853/88/244 854/89/244 858/90/244
f 859/91/249 857/89/249 858/69/249 860/68/249
f 856/79/246 859/80/246 860/81/246 855/82/246
f 854/92/5 855/93/5 860/94/5 858/95/5
f 857/112/6 859/113/6 856/114/6 853/115/6
f 784/56/5 832/130/5 861/129/5 813/59/5
f 815/54/6 863/128/6 862/122/6 814/42/6
f 814/52/250 862/127/250 864/11/250 816/12/250
f 813/26/250 861/126/250 863/125/250 815/51/250
f 785/46/5 833/124/5 865/123/5 817/49/5
f 787/42/6 835/122/6 834/121/6 786/45/6
f 818/34/6 866/120/6 831/119/6 783/37/6
f 788/30/5 816/31/5 864/117/5 836/118/5
f 818/28/241 817/3/241 865/4/241 866/116/241
f 774/41/251 777/40/251 825/131/251 822/132/251
f 776/39/252 778/38/252 826/133/252 824/134/252
f 782/26/239 830/126/239 823/135/239 775/27/239
f 867/4/253 819/3/253 820/28/253 868/116/253
f 869/117/254 821/31/237 822/30/237 870/118/254
f 871/119/255 868/120/255 820/34/238 823/37/238
f 872/121/255 873/122/255 825/42/238 824/45/238
f 867/123/256 874/124/256 826/46/237 819/49/237
f 875/125/257 876/126/257 828/26/257 827/51/257
f 869/11/258 877/127/258 829/52/258 821/12/258
f 877/122/255 875/128/255 827/54/238 829/42/238
f 876/129/254 878/130/254 830/56/237 828/59/237
f 879/135/259 880/126/259 832/26/259 831/27/259
f 881/133/260 833/38/260 834/39/260 882/134/260
f 883/131/261 835/40/261 836/41/261 884/132/261
f 885/60/262 888/61/262 887/62/262 886/63/262
f 889/60/263 885/61/263 886/62/263 890/63/263
f 891/60/264 889/61/264 890/62/264 892/63/264
f 888/60/265 891/61/265 892/62/265 887/63/265
f 886/64/5 887/65/5 892/66/5 890/67/5
f 893/62/262 896/61/262 895/60/262 894/63/262
f 894/62/266 895/61/266 898/60/266 897/63/266
f 897/62/264 898/61/264 900/60/264 899/63/264
f 899/62/267 900/61/267 896/60/267 893/63/267
f 899/66/5 893/65/5 894/64/5 897/67/5
f 901/68/268 904/69/268 903/70/268 902/71/268
f 905/87/269 901/88/269 902/89/269 906/90/269
f 907/91/270 905/89/270 906/69/270 908/68/270
f 904/79/271 907/80/271 908/81/271 903/82/271
f 902/92/5 903/93/5 908/94/5 906/95/5
f 905/112/6 907/113/6 904/114/6 901/115/6
f 832/56/5 880/130/5 909/129/5 861/59/5
f 863/54/6 911/128/6 910/122/6 862/42/6
f 862/52/259 910/127/259 912/11/259 864/12/259
f 861/26/259 909/126/259 911/125/259 863/51/259
f 833/46/5 881/124/5 913/123/5 865/49/5
f 835/42/6 883/122/6 882/121/6 834/45/6
f 866/34/6 914/120/6 879/119/6 831/37/6
f 836/30/5 864/31/5 912/117/5 884/118/5
f 866/28/260 865/3/260 913/4/260 914/116/260
f 822/41/272 825/40/272 873/131/272 870/132/272
f 824/39/273 826/38/273 874/133/273 872/134/273
f 830/26/258 878/126/258 871/135/258 823/27/258
f 880/5/274 879/5/274 914/5/274 909/5/274
f 270/3/14 289/56/14 276/27/14 269/34/14
f 6/58/5 4/57/5 1/137/5 915/138/5
f 916/139/5 919/140/5 918/141/275 917/142/275
f 917/142/275 918/141/275 921/130/276 920/129/276
f 14/43/6 9/55/6 923/143/6 922/144/6
f 924/145/6 927/146/6 926/147/277 925/148/277
f 925/148/277 926/147/277 929/128/278 928/122/278
f 13/40/1 14/53/1 922/149/1 930/131/1
f 931/150/1 924/151/1 925/152/279 932/153/279
f 932/153/279 925/152/279 928/127/280 933/11/280
f 9/50/1 6/2/1 915/1/1 923/154/1
f 927/155/1 916/156/1 917/157/279 926/158/279
f 926/158/279 917/157/279 920/126/280 929/125/280
f 8/48/5 5/47/5 16/159/5 934/160/5
f 935/161/5 938/162/5 937/163/275 936/164/275
f 936/164/275 937/163/275 940/124/276 939/123/276
f 10/44/6 11/43/6 18/144/6 15/165/6
f 941/166/6 944/145/6 943/148/277 942/167/277
f 942/167/277 943/148/277 946/122/278 945/121/278
f 947/132/281 946/131/281 943/168/282 948/169/282
f 595/170/3 596/171/3 18/11/3 17/10/3
f 945/134/281 940/133/281 937/172/282 942/173/282
f 593/174/3 590/175/3 16/7/3 15/6/3
f 3/36/6 7/35/6 949/176/6 2/177/6
f 950/178/6 953/179/6 952/180/277 951/181/277
f 951/181/277 952/180/277 955/120/278 954/119/278
f 13/32/5 930/182/5 17/183/5 12/33/5
f 931/184/5 932/185/275 948/186/275 956/187/5
f 932/185/275 933/117/276 947/118/276 948/186/275
f 8/27/3 934/135/3 949/188/3 7/29/3
f 935/189/3 936/190/282 952/191/282 953/192/3
f 936/190/282 939/4/281 955/116/281 952/191/282
f 921/126/280 918/157/279 951/193/279 954/135/280
f 588/194/1 1/1/1 2/4/1 587/195/1
f 918/157/279 919/156/1 950/196/1 951/193/279
f 919/156/1 958/197/1 957/198/1 950/196/1
f 934/135/3 591/199/3 592/200/3 949/188/3
f 959/201/3 935/189/3 953/192/3 960/202/3
f 930/182/5 594/203/5 595/204/5 17/183/5
f 961/205/5 931/184/5 956/187/5 962/206/5
f 2/177/6 949/176/6 592/207/6 587/208/6
f 957/209/6 960/210/6 953/179/6 950/178/6
f 942/173/282 937/172/282 938/211/3 941/212/3
f 941/212/3 938/211/3 964/213/3 963/214/3
f 948/169/282 943/168/282 944/215/3 956/216/3
f 956/216/3 944/215/3 965/217/3 962/218/3
f 15/165/6 18/144/6 596/219/6 593/220/6
f 963/221/6 965/222/6 944/145/6 941/166/6
f 934/160/5 16/159/5 590/223/5 591/224/5
f 959/225/5 964/226/5 938/162/5 935/161/5
f 923/154/1 915/1/1 589/194/1 597/227/1
f 966/228/1 967/197/1 916/156/1 927/155/1
f 930/131/1 922/149/1 598/229/1 594/230/1
f 961/231/1 968/232/1 924/151/1 931/150/1
f 922/144/6 923/143/6 597/233/6 598/219/6
f 968/222/6 966/234/6 927/146/6 924/145/6
f 915/138/5 1/137/5 588/235/5 589/236/5
f 967/237/5 958/238/5 919/140/5 916/139/5
f 962/5/2 966/5/2 968/5/2 961/5/2
f 962/5/2 965/5/2 963/5/2 966/5/2
f 958/5/2 967/5/2 964/5/2 957/5/2
f 960/5/2 957/5/2 964/5/2 959/5/2
f 964/5/2 967/5/2 966/5/2 963/5/2
f 569/5/283 540/5/283 539/5/283 574/5/283
f 573/5/284 541/5/284 569/5/285 574/5/284
f 542/5/286 571/5/287 569/5/285 541/5/284
f 542/5/286 543/5/288 544/5/289 571/5/287
f 570/5/290 571/5/287 544/5/289 572/5/290
f 871/5/291 878/5/291 876/5/291 868/5/291
f 868/5/292 876/5/292 874/5/292 867/5/292
f 913/5/291 881/5/291 909/5/291 914/5/291
f 911/5/293 909/5/291 881/5/291 882/5/294
f 876/5/291 875/5/291 872/5/291 874/5/291
f 875/5/295 877/5/295 869/5/295 870/5/295
f 912/5/296 910/5/296 911/5/293 884/5/297
f 883/5/298 884/5/297 911/5/293 882/5/294
f 873/5/299 872/5/299 875/5/299 870/5/299
f 969/62/4 972/61/4 971/60/4 970/63/4
f 970/62/3 971/61/3 974/60/3 973/63/3
f 973/62/2 974/61/2 976/60/2 975/63/2
f 975/62/1 976/61/1 972/60/1 969/63/1
f 975/66/5 969/65/5 970/64/5 973/67/5
f 361/239/300 387/239/300 397/239/300 360/239/300
f 366/239/301 395/239/302 397/239/302 387/239/303
f 389/239/304 365/239/305 366/239/301 387/239/303
f 365/239/305 389/239/304 369/239/306 370/239/307
f 390/239/308 393/239/308 369/239/306 389/239/304
f 920/239/4 921/239/4 954/239/4 955/239/4
f 939/239/4 940/239/4 920/239/4 955/239/4
f 920/239/4 940/239/4 945/239/4 929/239/4
f 945/239/4 946/239/4 947/239/4 933/239/4
f 928/239/4 929/239/4 945/239/4 933/239/4
f 977/60/309 980/61/309 979/62/309 978/63/309
f 981/60/310 977/61/310 978/62/310 982/63/310
f 983/60/311 981/61/311 982/62/311 984/63/311
f 980/60/312 983/61/312 984/62/312 979/63/312
f 978/64/5 979/65/5 984/66/5 982/67/5
